<?xml version="1.0" encoding="UTF-8"?>
<svg xmlns="http://www.w3.org/2000/svg" xmlns:xlink="http://www.w3.org/1999/xlink" id="Gradient" viewBox="0 0 512 512" width="512" height="512"><defs><linearGradient id="linear-gradient" x1="256" y1="496" x2="256" y2="14.704" gradientUnits="userSpaceOnUse"><stop offset="0" stop-color="#12bee5"/><stop offset="0.5" stop-color="#c071e9"/><stop offset="1" stop-color="#f24f5a"/></linearGradient></defs><path d="M472.669,382.888a95.981,95.981,0,1,0-158.5-91.2L240,251.25V219.833A71.984,71.984,0,0,0,272,160V112.414A90.37,90.37,0,0,0,288.784,92.24a132.426,132.426,0,0,0,14.977-34.3,7.967,7.967,0,0,0-10.214-9.554c-.806.248-19.956,5.891-39.89-14.043C228.776,9.463,196.773,14.8,190.944,16.038a45.992,45.992,0,0,0-11.474,2.373,63.4,63.4,0,0,0-20.728,11.881c-9.671-3.515-25.176-3.478-37.213,4.211-14.085,9-27.063,30-9.529,78.867V160a71.984,71.984,0,0,0,32,59.833V251.2L30.009,312.051A39.783,39.783,0,0,0,8,347.777V448a8,8,0,0,0,8,8H317.22l-4.754,13.31a8,8,0,0,0,9.1,10.535l35.8-7.161,20.972,20.973a8,8,0,0,0,13.375-3.552L408,430.405l16.282,59.7a8,8,0,0,0,13.375,3.552l20.972-20.973,35.8,7.161a8,8,0,0,0,9.1-10.535ZM408,232a80,80,0,1,1-80,80A80.091,80.091,0,0,1,408,232ZM216,440H168V370.422L180.281,352h23.438L216,370.422ZM150.536,265.85l29.613,29.612L146.21,323.744l-24.338-42.593ZM203.056,336H180.944l-7.19-14.381L192,306.414l18.246,15.205Zm.795-40.538,29.573-29.573,28.535,15.559-24.169,42.3ZM128.633,49.048c9.707-7.5,23.4-4.807,25.891-3.216a8,8,0,0,0,11.133-.175C178.865,32.449,191.555,32.012,192,32a7.273,7.273,0,0,0,1.909-.231c1.135-.274,28.068-6.478,48.434,13.888,15.522,15.521,31.254,19.291,42.114,19.6a114.958,114.958,0,0,1-9.443,18.829C263.334,102.607,248.862,112,232,112c-42.684,0-64.244-34.643-65.151-36.134A8,8,0,0,0,155,73.753L123.974,98.576C116.847,74.327,118.417,56.936,128.633,49.048ZM128,160V115.845L158.43,91.5C168.479,104.036,192.816,128,232,128a57.674,57.674,0,0,0,24-5.141V160a56.064,56.064,0,0,1-56,56H184A56.064,56.064,0,0,1,128,160Zm56,72h16a71.663,71.663,0,0,0,24-4.128v24.815l-32,32-32-32V227.872A71.663,71.663,0,0,0,184,232ZM24,347.777a23.868,23.868,0,0,1,13.267-21.466c.064-.032.127-.065.189-.1l70.3-37.524,29.3,51.28a8,8,0,0,0,12.068,2.177l12-10,5.642,11.283-13.425,20.137A7.993,7.993,0,0,0,152,368v72H88V400a8,8,0,0,0-16,0v40H24ZM312,440V400a8,8,0,0,0-16,0v40H232V368a7.993,7.993,0,0,0-1.344-4.438l-13.425-20.137,5.642-11.283,12,10a8,8,0,0,0,12.068-2.177l29.063-50.86,36.051,19.658c-.035,1.074-.06,2.151-.06,3.233a95.773,95.773,0,0,0,31.331,70.888L322.934,440Zm67.909,32.6-14.252-14.252a8,8,0,0,0-7.226-2.188l-26.145,5.229,24.39-68.291a95.362,95.362,0,0,0,41,14.351Zm77.66-16.44a8,8,0,0,0-7.226,2.188L436.091,472.6l-17.769-65.151a95.362,95.362,0,0,0,41-14.351l24.39,68.291ZM408,376a64,64,0,1,0-64-64A64.072,64.072,0,0,0,408,376Zm0-112a48,48,0,1,1-48,48A48.055,48.055,0,0,1,408,264Zm-21.657,37.657a8,8,0,0,1,0-11.314l8-8A8,8,0,0,1,400,280h8a8,8,0,0,1,8,8v40a8,8,0,0,1,0,16H400a8,8,0,0,1,0-16V299.313l-2.343,2.344A8,8,0,0,1,386.343,301.657Z" style="fill:url(#linear-gradient)"/></svg>
