<?xml version="1.0"?>
<svg xmlns="http://www.w3.org/2000/svg" xmlns:xlink="http://www.w3.org/1999/xlink" viewBox="0 0 512 512" width="512" height="512"><defs><linearGradient id="linear-gradient" x1="61.67" y1="499.581" x2="450.33" y2="110.92" gradientUnits="userSpaceOnUse"><stop offset="0" stop-color="#fff"/><stop offset="0.03" stop-color="#41dfd0"/><stop offset="1" stop-color="#ee83ef"/></linearGradient></defs><g id="gradient"><path d="M256,16A240.05,240.05,0,0,0,49.827,378.916a7.991,7.991,0,0,0-.483,9.522l9.06,13.59L19.884,425.14a8,8,0,0,0,2.547,14.705l33.207,6.641-2.223,41.081a8,8,0,0,0,12.107,7.291l61.1-36.7a240.12,240.12,0,0,0,258.763,0l61.1,36.7a8,8,0,0,0,12.107-7.291l-2.223-41.081,33.207-6.641a8,8,0,0,0,2.547-14.705L453.6,402.028l9.06-13.59a7.992,7.992,0,0,0-.485-9.525A240.026,240.026,0,0,0,256,16ZM90.369,376.377a382.764,382.764,0,0,1,331.262,0l22.6,10.85-23.083,34.625a398.732,398.732,0,0,0-330.3,0L67.766,387.227ZM256,322.685a401.343,401.343,0,0,0-132.68,22.763A158.725,158.725,0,0,1,96,256c0-88.225,71.775-160,160-160s160,71.775,160,160a158.815,158.815,0,0,1-27.325,89.446A401.338,401.338,0,0,0,256,322.685Zm55.37,83.439a160.163,160.163,0,0,1-110.743,0,377.593,377.593,0,0,1,110.743,0ZM70.206,473.381l1.782-32.948a8,8,0,0,0-6.419-8.278L45.86,428.214l21.43-12.858,14.054,21.082a8,8,0,0,0,10.095,2.785q8.032-3.825,16.253-7.263l9,13.5Zm65.076-28.67a8.057,8.057,0,0,0-.626-1.149l-11.736-17.6A386.228,386.228,0,0,1,173,411.217a176.124,176.124,0,0,0,166,0,385.992,385.992,0,0,1,50.081,14.74l-11.736,17.6a7.942,7.942,0,0,0-.625,1.148,224.122,224.122,0,0,1-241.437,0Zm330.858-16.5-19.709,3.941a8,8,0,0,0-6.419,8.278l1.782,32.948L395.309,445.46l9-13.5q8.213,3.446,16.253,7.263a8,8,0,0,0,10.1-2.785l14.054-21.082Zm-18.067-56.892-19.518-9.369q-12.058-5.787-24.512-10.745A174.7,174.7,0,0,0,432,256c0-97.047-78.953-176-176-176S80,158.953,80,256a174.6,174.6,0,0,0,27.949,95.211q-12.436,4.959-24.5,10.742l-19.513,9.366a224,224,0,1,1,384.141,0ZM332,192H288a8.009,8.009,0,0,1-8-8V160a24.028,24.028,0,0,0-24-24H240a8,8,0,0,0-8,8v17.633a45.692,45.692,0,0,1-13.474,32.526L212.686,200H168a8,8,0,0,0-8,8v88a8,8,0,0,0,8,8H308A20,20,0,0,0,326.7,276.894a19.991,19.991,0,0,0,8-24,19.991,19.991,0,0,0,8-24A20,20,0,0,0,332,192ZM176,216h32v72H176Zm156,0h-8a8,8,0,0,0,0,16,4,4,0,0,1,0,8h-8a8,8,0,0,0,0,16,4,4,0,0,1,0,8h-8a8,8,0,0,0,0,16,4,4,0,0,1,0,8H224V211.313l5.841-5.839A61.6,61.6,0,0,0,248,161.633V152h8a8.009,8.009,0,0,1,8,8v24a24.028,24.028,0,0,0,24,24h44a4,4,0,0,1,0,8ZM241.173,354.772h9.147l2.827-8.7a3,3,0,0,1,5.706,0l2.827,8.7h9.147a3,3,0,0,1,1.763,5.427l-7.4,5.377,2.827,8.7a3,3,0,0,1-4.617,3.355l-7.4-5.377-7.4,5.377a3,3,0,0,1-4.617-3.355l2.827-8.7-7.4-5.377A3,3,0,0,1,241.173,354.772Zm-46.167,5.784h9.147l2.826-8.7a3,3,0,0,1,5.707,0l2.826,8.7h9.148a3,3,0,0,1,1.763,5.427l-7.4,5.377,2.827,8.7a3,3,0,0,1-4.617,3.355l-7.4-5.377-7.4,5.377a3,3,0,0,1-4.617-3.355l2.827-8.7-7.4-5.377A3,3,0,0,1,195.006,360.556Zm92.334,0h9.148l2.826-8.7a3,3,0,0,1,5.707,0l2.826,8.7h9.147a3,3,0,0,1,1.764,5.427l-7.4,5.377,2.827,8.7a3,3,0,0,1-4.617,3.355l-7.4-5.377-7.4,5.377a3,3,0,0,1-4.617-3.355l2.827-8.7-7.4-5.377A3,3,0,0,1,287.34,360.556Z" style="fill:url(#linear-gradient)"/></g></svg>
