<svg id="Layer_1" enable-background="new 0 0 512 512" height="512" viewBox="0 0 512 512" width="512" xmlns="http://www.w3.org/2000/svg" xmlns:xlink="http://www.w3.org/1999/xlink"><linearGradient id="SVGID_1_" gradientTransform="matrix(1 0 0 -1 0 512)" gradientUnits="userSpaceOnUse" x1="47.733" x2="471.823" y1="20.032" y2="444.122"><stop offset="0" stop-color="#be53ff"/><stop offset="1" stop-color="#4958ff"/></linearGradient><g id="_x33_2_Refund"><g><path d="m393.943 268.196c-19.726 0-35.774-16.046-35.774-35.774 0-2.945-2.388-5.333-5.333-5.333h-277.476c-2.945 0-5.333 2.388-5.333 5.333 0 19.726-16.046 35.774-35.774 35.774-2.945 0-5.333 2.388-5.333 5.333v104.149c0 2.945 2.388 5.333 5.333 5.333 19.726 0 35.774 16.046 35.774 35.774 0 2.945 2.388 5.333 5.333 5.333h277.476c2.945 0 5.333-2.388 5.333-5.333 0-19.726 16.046-35.774 35.774-35.774 2.945 0 5.333-2.388 5.333-5.333v-104.149c0-2.946-2.388-5.333-5.333-5.333zm-5.334 104.452c-21.354 2.453-38.349 19.447-40.802 40.802h-267.419c-2.453-21.354-19.447-38.349-40.802-40.802v-94.091c21.354-2.453 38.349-19.448 40.802-40.802h267.419c2.453 21.354 19.447 38.349 40.802 40.802zm-174.51-117.13c-33.544 0-60.836 31.44-60.836 70.083 0 38.645 27.291 70.085 60.836 70.085s60.833-31.44 60.833-70.085c0-38.643-27.289-70.083-60.833-70.083zm0 129.503c-27.664 0-50.169-26.656-50.169-59.42s22.505-59.417 50.169-59.417c27.661 0 50.166 26.654 50.166 59.417s-22.505 59.42-50.166 59.42zm-117.945-90.737c-17.271 0-31.32 14.05-31.32 31.318 0 17.271 14.05 31.32 31.32 31.32s31.32-14.05 31.32-31.32c0-17.269-14.05-31.318-31.32-31.318zm0 51.971c-11.388 0-20.654-9.266-20.654-20.654s9.266-20.651 20.654-20.651 20.654 9.263 20.654 20.651c-.001 11.389-9.266 20.654-20.654 20.654zm235.888-51.971c-17.271 0-31.32 14.05-31.32 31.318 0 17.271 14.05 31.32 31.32 31.32 17.271 0 31.32-14.05 31.32-31.32 0-17.269-14.049-31.318-31.32-31.318zm0 51.971c-11.388 0-20.654-9.266-20.654-20.654s9.266-20.651 20.654-20.651 20.654 9.263 20.654 20.651c-.001 11.389-9.267 20.654-20.654 20.654zm-126.424-34.466c0 4.699 3.782 8.479 8.481 8.479 10.557 0 19.145 8.592 19.145 19.148 0 8.694-5.86 15.971-13.812 18.299v1.688c0 2.945-2.388 5.333-5.333 5.333s-5.333-2.388-5.333-5.333v-1.688c-7.952-2.327-13.815-9.604-13.815-18.299 0-2.945 2.388-5.333 5.333-5.333s5.333 2.388 5.333 5.333c0 4.677 3.804 8.481 8.481 8.481 4.674 0 8.479-3.804 8.479-8.481s-3.804-8.481-8.479-8.481c-10.594 0-19.148-8.551-19.148-19.145 0-8.694 5.862-15.972 13.815-18.299v-1.691c0-2.945 2.388-5.333 5.333-5.333s5.333 2.388 5.333 5.333v1.691c7.952 2.327 13.812 9.604 13.812 18.299 0 2.945-2.388 5.333-5.333 5.333s-5.333-2.388-5.333-5.333c0-4.677-3.804-8.481-8.479-8.481-4.676-.001-8.48 3.803-8.48 8.48zm306.382-167.594c0-48.188-39.206-87.393-87.393-87.393s-87.391 39.206-87.391 87.393c0 19.406 6.436 37.294 17.179 51.812h-335.7c-10.31.001-18.695 8.386-18.695 18.696v221.799c0 10.31 8.385 18.696 18.696 18.696h390.807c10.307 0 18.693-8.385 18.693-18.696v-205.096c46.516-1.902 83.804-40.234 83.804-87.211zm-102.498 300.336h-390.806c-4.427 0-8.029-3.601-8.029-8.029v-221.799c0-4.427 3.601-8.029 8.029-8.029h344.929c14.173 13.838 33.006 22.868 53.904 24.555v205.273c-.001 4.427-3.602 8.029-8.027 8.029zm15.105-223.609c-42.305 0-76.724-34.419-76.724-76.727s34.419-76.727 76.724-76.727c42.307 0 76.727 34.419 76.727 76.727s-34.42 76.727-76.727 76.727zm42.666-75.143c0 17.725-14.306 32-32 32h-48c-2.945 0-5.333-2.388-5.333-5.333s2.388-5.333 5.333-5.333h48c11.788 0 21.333-9.474 21.333-21.333 0-11.763-9.571-21.333-21.333-21.333h-13.396l6.61 7.008c2.021 2.143 1.922 5.518-.221 7.539-2.139 2.02-5.515 1.923-7.539-.221l-15.092-16c-1.717-1.823-2.034-5.158 0-7.317l15.092-16c2.024-2.143 5.404-2.237 7.539-.221 2.143 2.021 2.242 5.396.221 7.539l-6.61 7.008h13.396c17.646-.003 32 14.351 32 31.997z" fill="url(#SVGID_1_)"/></g></g></svg>