<?xml version="1.0"?>
<svg xmlns="http://www.w3.org/2000/svg" xmlns:xlink="http://www.w3.org/1999/xlink" viewBox="0 0 64 64" width="512" height="512"><defs><linearGradient id="New_Gradient_Swatch_3" x1="41" y1="64.94" x2="41" y2="-0.967" gradientUnits="userSpaceOnUse"><stop offset="0" stop-color="#006df0"/><stop offset="1" stop-color="#00e7f0"/></linearGradient><linearGradient id="New_Gradient_Swatch_3-2" x1="48" y1="64.94" x2="48" y2="-0.967" xlink:href="#New_Gradient_Swatch_3"/><linearGradient id="New_Gradient_Swatch_3-3" x1="55" y1="64.94" x2="55" y2="-0.967" xlink:href="#New_Gradient_Swatch_3"/><linearGradient id="New_Gradient_Swatch_3-4" x1="32" y1="64.94" x2="32" y2="-0.967" xlink:href="#New_Gradient_Swatch_3"/><linearGradient id="New_Gradient_Swatch_3-5" x1="29.5" y1="64.94" x2="29.5" y2="-0.967" xlink:href="#New_Gradient_Swatch_3"/><linearGradient id="New_Gradient_Swatch_3-6" x1="22.5" y1="64.94" x2="22.5" y2="-0.967" xlink:href="#New_Gradient_Swatch_3"/><linearGradient id="New_Gradient_Swatch_3-7" x1="24" y1="64.94" x2="24" y2="-0.967" xlink:href="#New_Gradient_Swatch_3"/></defs><g id="SEO_report" data-name="SEO report"><path d="M43,45a1,1,0,0,0,0-2H40a2,2,0,0,0-2,2v2a2,2,0,0,0,2,2h2v2H39a1,1,0,0,0,0,2h3a2,2,0,0,0,2-2V49a2,2,0,0,0-2-2H40V45Z" style="fill:url(#New_Gradient_Swatch_3)"/><path d="M50,45a1,1,0,0,0,0-2H47a2,2,0,0,0-2,2v6a2,2,0,0,0,2,2h3a1,1,0,0,0,0-2H47V49h2a1,1,0,0,0,0-2H47V45Z" style="fill:url(#New_Gradient_Swatch_3-2)"/><path d="M56,43H54a2,2,0,0,0-2,2v6a2,2,0,0,0,2,2h2a2,2,0,0,0,2-2V45A2,2,0,0,0,56,43Zm-2,8V45h2v6Z" style="fill:url(#New_Gradient_Swatch_3-3)"/><path d="M52,34.59V7a1,1,0,0,0-1-1H48V3a1,1,0,0,0-1-1H13a1,1,0,0,0-.707.293l-10,10A1,1,0,0,0,2,13V53a1,1,0,0,0,1,1H6v3a1,1,0,0,0,1,1H38.17c.015,0,.027-.008.041-.008A13.993,13.993,0,1,0,52,34.59ZM46,6H17a1,1,0,0,0-.707.293L14,8.586V4H46ZM12,10.586,10.586,12H5.414L12,5.414Zm4-1.172V16H9.414ZM4,52V14H8.586L6.293,16.293A1,1,0,0,0,6,17V52ZM8,18h9a1,1,0,0,0,1-1V8H50V34.16A13.973,13.973,0,0,0,36.527,56H8ZM48,60A12,12,0,1,1,60,48,12.013,12.013,0,0,1,48,60Z" style="fill:url(#New_Gradient_Swatch_3-4)"/><path d="M47,29a1,1,0,0,0,0-2H46V20a1,1,0,0,0-1-1H42a1,1,0,0,0-1,1v7H39V13a1,1,0,0,0-1-1H35a1,1,0,0,0-1,1V27H32V18a1,1,0,0,0-1-1H28a1,1,0,0,0-1,1v9H25V20a1,1,0,0,0-1-1H21a1,1,0,0,0-1,1v7H18V24a1,1,0,0,0-1-1H14a1,1,0,0,0-1,1v3H12a1,1,0,0,0,0,2Zm-4-8h1v6H43Zm-7-7h1V27H36Zm-7,5h1v8H29Zm-7,2h1v6H22Zm-7,4h1v2H15Z" style="fill:url(#New_Gradient_Swatch_3-5)"/><path d="M32,50H14V35a1,1,0,0,0-2,0V51a1,1,0,0,0,1,1H32a1,1,0,0,0,0-2Z" style="fill:url(#New_Gradient_Swatch_3-6)"/><path d="M32,41H30a1,1,0,0,0-.8.4l-1.7,2.261-1.528-6.878a1,1,0,0,0-1.683-.49L19.586,41H18a1,1,0,0,0-.832.445l-2,3a1,1,0,1,0,1.664,1.11L18.535,43H20a1,1,0,0,0,.707-.293l3.712-3.712,1.605,7.222A1,1,0,0,0,27.8,46.6L30.5,43H32a1,1,0,0,0,0-2Z" style="fill:url(#New_Gradient_Swatch_3-7)"/></g></svg>
