<svg xmlns="http://www.w3.org/2000/svg" xmlns:xlink="http://www.w3.org/1999/xlink" width="1000" height="1000" viewBox="0 0 1000 1000">
  <defs>
    <filter id="Path_132" x="226.744" y="462.064" width="722.04" height="81.872" filterUnits="userSpaceOnUse">
      <feOffset dy="3" input="SourceAlpha"/>
      <feGaussianBlur stdDeviation="4" result="blur"/>
      <feFlood flood-opacity="0.522"/>
      <feComposite operator="in" in2="blur"/>
      <feComposite in="SourceGraphic"/>
    </filter>
    <clipPath id="clip-Artboard_8">
      <rect width="1000" height="1000"/>
    </clipPath>
  </defs>
  <g id="Artboard_8" data-name="Artboard – 8" clip-path="url(#clip-Artboard_8)">
    <rect width="1000" height="1000" fill="#fff"/>
    <g id="Group_85" data-name="Group 85" transform="translate(63.216 471.064)">
      <path id="Path_119" data-name="Path 119" d="M466.639,71.554l32.995,33a12.427,12.427,0,0,0,17.577,0h0a12.429,12.429,0,0,0,0-17.576l-33-33a12.157,12.157,0,0,0-8.694-3.658,12.447,12.447,0,0,0-8.879,21.234Z" transform="translate(-363.752 -50.325)" fill="#333"/>
      <path id="Path_120" data-name="Path 120" d="M466.639,71.554l32.995,33a12.427,12.427,0,0,0,17.577,0h0a12.429,12.429,0,0,0,0-17.576l-33-33a12.157,12.157,0,0,0-8.694-3.658,12.447,12.447,0,0,0-8.879,21.234Z" transform="translate(-363.752 -50.325)" fill="#333"/>
      <path id="Path_121" data-name="Path 121" d="M170.621,71.554l-32.993,33a12.427,12.427,0,0,1-17.577,0h0a12.429,12.429,0,0,1,0-17.576l33-33a12.157,12.157,0,0,1,8.695-3.658,12.446,12.446,0,0,1,8.878,21.229Z" transform="translate(-116.411 -50.325)" fill="#333"/>
      <g id="Group_83" data-name="Group 83" transform="translate(33.055 0.004)">
        <path id="Path_122" data-name="Path 122" d="M252.989,53.995a12.426,12.426,0,1,0-17.573,17.574l8.762,8.764L261.9,62.906Z" transform="translate(-231.777 -50.353)" fill="#333"/>
        <path id="Path_123" data-name="Path 123" d="M341.164,50.355A12.425,12.425,0,0,0,332.375,54L312.484,73.889a6.108,6.108,0,0,1-8.635,0L292.717,62.756,275.144,80.33l21.039,21.036a16.951,16.951,0,0,0,23.973,0l29.8-29.8a12.426,12.426,0,0,0-8.792-21.21Z" transform="translate(-262.744 -50.353)" fill="#333"/>
        <path id="Path_124" data-name="Path 124" d="M340.71,50.36a12.649,12.649,0,0,0-8.472,3.772L312.483,73.886a6.107,6.107,0,0,1-8.635,0h0a15.744,15.744,0,0,0-22.27,0l-6.441,6.441,21.045,21.036a16.951,16.951,0,0,0,23.973,0l29.8-29.8a12.427,12.427,0,0,0-9.247-21.2Z" transform="translate(-262.743 -50.351)" fill="#333"/>
      </g>
    </g>
    <g transform="matrix(1, 0, 0, 1, 0, 0)" filter="url(#Path_132)">
      <path id="Path_132-2" data-name="Path 132" d="M74.943-112.869H60.4L41.972-76.547,23.544-112.869H9v57.11H23.7V-82.791L37.4-55.759H46.54L60.323-82.791v27.032h14.62Zm35.865-.381c-17.285,0-30.307,11.041-30.307,28.936s13.021,28.936,30.307,28.936c17.209,0,30.23-11.041,30.23-28.936S128.018-113.25,110.809-113.25Zm0,12.184c9.442,0,15.61,6.472,15.61,16.752,0,10.356-6.092,16.752-15.61,16.752S95.2-73.958,95.2-84.314C95.2-94.594,101.29-101.066,110.809-101.066Zm87.645,16.752a28.845,28.845,0,0,0-28.707-28.555H146.369v57.11h23.377A28.8,28.8,0,0,0,198.454-84.314ZM170.736-67.943h-9.671v-32.743h9.671c9.138.3,13.021,10.432,13.021,16.372C183.758-78.451,179.95-68.095,170.736-67.943Zm75.766,0H218.709V-78.984h21.7v-12.26h-21.7v-9.442h26.5v-12.184h-41.2v57.11H246.5ZM298.359-91.7c0-12.031-9.595-21.245-21.7-21.169h-23.3v57.11h14.7V-70.608h6.777l9.9,14.849h16.143l-12.26-18.123A20.775,20.775,0,0,0,298.359-91.7Zm-30.307,8.909v-17.895h7.234c6.473,0,8.376,3.807,8.376,8.985,0,5.1-1.9,8.909-8.376,8.909Zm90.31,27.032v-57.11h-14.62v32.515l-22.616-32.515H306.963v57.11h14.7V-88.274l22.463,32.515Zm48.277,0h14.011l-22.235-57.11H385.623l-22.159,57.11h14.011l3.731-9.214h21.7Zm-20.484-21.4L392.02-91.7l5.939,14.544Zm131.125-35.713H502.738L484.31-76.547l-18.428-36.322H451.338v57.11h14.7V-82.791l13.706,27.032h9.138l13.783-27.032v27.032h14.62Zm50.866,44.927H540.354V-78.984h21.7v-12.26h-21.7v-9.442h26.5v-12.184h-41.2v57.11h42.49Zm57.643-16.372a28.845,28.845,0,0,0-28.707-28.555H573.707v57.11h23.377A28.8,28.8,0,0,0,625.791-84.314ZM598.074-67.943H588.4v-32.743h9.671c9.138.3,13.021,10.432,13.021,16.372C611.095-78.451,607.287-68.095,598.074-67.943Zm47.973,12.184v-57.11h-14.7v57.11Zm46.983,0H707.04l-22.235-57.11H672.012l-22.159,57.11h14.011l3.731-9.214h21.7Zm-20.484-21.4L678.409-91.7l5.939,14.544Z" transform="translate(229.74 584.31)" fill="#333"/>
    </g>
  </g>
</svg>
