<svg xmlns="http://www.w3.org/2000/svg" xmlns:xlink="http://www.w3.org/1999/xlink" width="1000" height="1000" viewBox="0 0 1000 1000">
  <defs>
    <linearGradient id="linear-gradient" x1="0.998" y1="0.998" x2="-0.528" y2="-0.527" gradientUnits="objectBoundingBox">
      <stop offset="0" stop-color="#0740a5"/>
      <stop offset="0.489" stop-color="#00abe9"/>
      <stop offset="0.999" stop-color="#ff2a95"/>
    </linearGradient>
    <linearGradient id="linear-gradient-2" x1="0.275" y1="0.276" x2="0.927" y2="0.928" gradientUnits="objectBoundingBox">
      <stop offset="0" stop-color="#044cb0"/>
      <stop offset="0.444" stop-color="#0477c8"/>
      <stop offset="1" stop-color="#024ba8"/>
    </linearGradient>
    <linearGradient id="linear-gradient-3" x1="1.856" y1="1.855" x2="0.33" y2="0.33" xlink:href="#linear-gradient"/>
    <linearGradient id="linear-gradient-4" x1="3.029" y1="3.03" x2="0.087" y2="0.086" xlink:href="#linear-gradient"/>
    <linearGradient id="linear-gradient-5" x1="1.21" y1="1.328" x2="0.085" y2="-0.249" xlink:href="#linear-gradient"/>
    <linearGradient id="linear-gradient-6" x1="0.28" y1="0.024" x2="0.544" y2="0.394" gradientUnits="objectBoundingBox">
      <stop offset="0" stop-color="#a50770"/>
      <stop offset="1" stop-color="#04a9e8"/>
    </linearGradient>
    <clipPath id="clip-Artboard_6">
      <rect width="1000" height="1000"/>
    </clipPath>
  </defs>
  <g id="Artboard_6" data-name="Artboard – 6" clip-path="url(#clip-Artboard_6)">
    <rect width="1000" height="1000" fill="#fff"/>
    <g id="Group_86" data-name="Group 86" transform="translate(150.98 313.886)">
      <path id="Path_119" data-name="Path 119" d="M479.142,144.655,625.748,291.289a55.217,55.217,0,0,0,78.1,0h0a55.226,55.226,0,0,0,0-78.1L557.223,66.578a54.016,54.016,0,0,0-38.629-16.253,55.308,55.308,0,0,0-39.451,94.348Z" transform="translate(-21.98 -50.325)" fill="url(#linear-gradient)"/>
      <path id="Path_120" data-name="Path 120" d="M479.142,144.655,625.748,291.289a55.217,55.217,0,0,0,78.1,0h0a55.226,55.226,0,0,0,0-78.1L557.223,66.578a54.016,54.016,0,0,0-38.629-16.253,55.308,55.308,0,0,0-39.451,94.348Z" transform="translate(-21.98 -50.325)" fill="url(#linear-gradient-2)"/>
      <path id="Path_121" data-name="Path 121" d="M357.284,144.655l-146.6,146.635a55.217,55.217,0,0,1-78.1,0h0a55.226,55.226,0,0,1,0-78.1L279.2,66.578a54.018,54.018,0,0,1,38.634-16.253,55.3,55.3,0,0,1,39.447,94.329Z" transform="translate(-116.411 -50.325)" fill="url(#linear-gradient-3)"/>
      <g id="Group_83" data-name="Group 83" transform="translate(146.873 0.016)">
        <path id="Path_122" data-name="Path 122" d="M326.031,66.526a55.213,55.213,0,1,0-78.081,78.086l38.931,38.94,78.731-77.429Z" transform="translate(-231.777 -50.345)" fill="url(#linear-gradient-4)"/>
        <path id="Path_123" data-name="Path 123" d="M568.495,50.355a55.207,55.207,0,0,0-39.056,16.182l-88.382,88.386a27.138,27.138,0,0,1-38.366,0l-49.466-49.466-78.081,78.086,93.483,93.469a75.318,75.318,0,0,0,106.519,0L607.559,144.6a55.212,55.212,0,0,0-39.065-94.243Z" transform="translate(-220.045 -50.346)" fill="url(#linear-gradient-5)"/>
        <path id="Path_124" data-name="Path 124" d="M566.5,50.389a56.206,56.206,0,0,0-37.645,16.76l-87.775,87.775a27.138,27.138,0,0,1-38.366,0h0a69.954,69.954,0,0,0-98.951,0l-28.62,28.619,93.512,93.469a75.318,75.318,0,0,0,106.519,0L607.582,144.6A55.217,55.217,0,0,0,566.5,50.389Z" transform="translate(-220.063 -50.351)" fill="url(#linear-gradient-6)"/>
      </g>
    </g>
  </g>
</svg>
