<svg xmlns="http://www.w3.org/2000/svg" xmlns:xlink="http://www.w3.org/1999/xlink" width="1000" height="1000" viewBox="0 0 1000 1000">
  <defs>
    <filter id="Path_133" x="128.773" y="619.242" width="722.04" height="81.872" filterUnits="userSpaceOnUse">
      <feOffset dy="3" input="SourceAlpha"/>
      <feGaussianBlur stdDeviation="4" result="blur"/>
      <feFlood flood-opacity="0.522"/>
      <feComposite operator="in" in2="blur"/>
      <feComposite in="SourceGraphic"/>
    </filter>
    <clipPath id="clip-Artboard_7">
      <rect width="1000" height="1000"/>
    </clipPath>
  </defs>
  <g id="Artboard_7" data-name="Artboard – 7" clip-path="url(#clip-Artboard_7)">
    <rect width="1000" height="1000" fill="#fff"/>
    <g id="Group_87" data-name="Group 87" transform="translate(140.773 313.886)">
      <path id="Path_119" data-name="Path 119" d="M479.142,144.655,625.748,291.289a55.217,55.217,0,0,0,78.1,0h0a55.226,55.226,0,0,0,0-78.1L557.223,66.578a54.016,54.016,0,0,0-38.629-16.253,55.308,55.308,0,0,0-39.451,94.348Z" transform="translate(-21.98 -50.325)" fill="#333"/>
      <path id="Path_120" data-name="Path 120" d="M479.142,144.655,625.748,291.289a55.217,55.217,0,0,0,78.1,0h0a55.226,55.226,0,0,0,0-78.1L557.223,66.578a54.016,54.016,0,0,0-38.629-16.253,55.308,55.308,0,0,0-39.451,94.348Z" transform="translate(-21.98 -50.325)" fill="#333"/>
      <path id="Path_121" data-name="Path 121" d="M357.284,144.655l-146.6,146.635a55.217,55.217,0,0,1-78.1,0h0a55.226,55.226,0,0,1,0-78.1L279.2,66.578a54.018,54.018,0,0,1,38.634-16.253,55.3,55.3,0,0,1,39.447,94.329Z" transform="translate(-116.411 -50.325)" fill="#333"/>
      <g id="Group_83" data-name="Group 83" transform="translate(146.873 0.016)">
        <path id="Path_122" data-name="Path 122" d="M326.031,66.526a55.213,55.213,0,1,0-78.081,78.086l38.931,38.94,78.731-77.429Z" transform="translate(-231.777 -50.345)" fill="#333"/>
        <path id="Path_123" data-name="Path 123" d="M568.495,50.355a55.207,55.207,0,0,0-39.056,16.182l-88.382,88.386a27.138,27.138,0,0,1-38.366,0l-49.466-49.466-78.081,78.086,93.483,93.469a75.318,75.318,0,0,0,106.519,0L607.559,144.6a55.212,55.212,0,0,0-39.065-94.243Z" transform="translate(-220.045 -50.346)" fill="#333"/>
        <path id="Path_124" data-name="Path 124" d="M566.5,50.389a56.206,56.206,0,0,0-37.645,16.76l-87.775,87.775a27.138,27.138,0,0,1-38.366,0h0a69.954,69.954,0,0,0-98.951,0l-28.62,28.619,93.512,93.469a75.318,75.318,0,0,0,106.519,0L607.582,144.6A55.217,55.217,0,0,0,566.5,50.389Z" transform="translate(-220.063 -50.351)" fill="#333"/>
      </g>
    </g>
    <g transform="matrix(1, 0, 0, 1, 0, 0)" filter="url(#Path_133)">
      <path id="Path_133-2" data-name="Path 133" d="M74.943-112.869H60.4L41.972-76.547,23.544-112.869H9v57.11H23.7V-82.791L37.4-55.759H46.54L60.323-82.791v27.032h14.62Zm35.865-.381c-17.285,0-30.307,11.041-30.307,28.936s13.021,28.936,30.307,28.936c17.209,0,30.23-11.041,30.23-28.936S128.018-113.25,110.809-113.25Zm0,12.184c9.442,0,15.61,6.472,15.61,16.752,0,10.356-6.092,16.752-15.61,16.752S95.2-73.958,95.2-84.314C95.2-94.594,101.29-101.066,110.809-101.066Zm87.645,16.752a28.845,28.845,0,0,0-28.707-28.555H146.369v57.11h23.377A28.8,28.8,0,0,0,198.454-84.314ZM170.736-67.943h-9.671v-32.743h9.671c9.138.3,13.021,10.432,13.021,16.372C183.758-78.451,179.95-68.095,170.736-67.943Zm75.766,0H218.709V-78.984h21.7v-12.26h-21.7v-9.442h26.5v-12.184h-41.2v57.11H246.5ZM298.359-91.7c0-12.031-9.595-21.245-21.7-21.169h-23.3v57.11h14.7V-70.608h6.777l9.9,14.849h16.143l-12.26-18.123A20.775,20.775,0,0,0,298.359-91.7Zm-30.307,8.909v-17.895h7.234c6.473,0,8.376,3.807,8.376,8.985,0,5.1-1.9,8.909-8.376,8.909Zm90.31,27.032v-57.11h-14.62v32.515l-22.616-32.515H306.963v57.11h14.7V-88.274l22.463,32.515Zm48.277,0h14.011l-22.235-57.11H385.623l-22.159,57.11h14.011l3.731-9.214h21.7Zm-20.484-21.4L392.02-91.7l5.939,14.544Zm131.125-35.713H502.738L484.31-76.547l-18.428-36.322H451.338v57.11h14.7V-82.791l13.706,27.032h9.138l13.783-27.032v27.032h14.62Zm50.866,44.927H540.354V-78.984h21.7v-12.26h-21.7v-9.442h26.5v-12.184h-41.2v57.11h42.49Zm57.643-16.372a28.845,28.845,0,0,0-28.707-28.555H573.707v57.11h23.377A28.8,28.8,0,0,0,625.791-84.314ZM598.074-67.943H588.4v-32.743h9.671c9.138.3,13.021,10.432,13.021,16.372C611.095-78.451,607.287-68.095,598.074-67.943Zm47.973,12.184v-57.11h-14.7v57.11Zm46.983,0H707.04l-22.235-57.11H672.012l-22.159,57.11h14.011l3.731-9.214h21.7Zm-20.484-21.4L678.409-91.7l5.939,14.544Z" transform="translate(131.77 741.49)" fill="#333"/>
    </g>
  </g>
</svg>
