<svg xmlns="http://www.w3.org/2000/svg" xmlns:xlink="http://www.w3.org/1999/xlink" width="1000" height="1000" viewBox="0 0 1000 1000">
  <defs>
    <clipPath id="clip-Artboard_12">
      <rect width="1000" height="1000"/>
    </clipPath>
  </defs>
  <g id="Artboard_12" data-name="Artboard – 12" clip-path="url(#clip-Artboard_12)">
    <rect width="1000" height="1000" fill="#333"/>
    <g id="Group_86" data-name="Group 86" transform="translate(150.98 313.886)">
      <path id="Path_119" data-name="Path 119" d="M479.142,144.655,625.748,291.289a55.217,55.217,0,0,0,78.1,0h0a55.226,55.226,0,0,0,0-78.1L557.223,66.578a54.016,54.016,0,0,0-38.629-16.253,55.308,55.308,0,0,0-39.451,94.348Z" transform="translate(-21.98 -50.325)" fill="#fff"/>
      <path id="Path_120" data-name="Path 120" d="M479.142,144.655,625.748,291.289a55.217,55.217,0,0,0,78.1,0h0a55.226,55.226,0,0,0,0-78.1L557.223,66.578a54.016,54.016,0,0,0-38.629-16.253,55.308,55.308,0,0,0-39.451,94.348Z" transform="translate(-21.98 -50.325)" fill="#fff"/>
      <path id="Path_121" data-name="Path 121" d="M357.284,144.655l-146.6,146.635a55.217,55.217,0,0,1-78.1,0h0a55.226,55.226,0,0,1,0-78.1L279.2,66.578a54.018,54.018,0,0,1,38.634-16.253,55.3,55.3,0,0,1,39.447,94.329Z" transform="translate(-116.411 -50.325)" fill="#fff"/>
      <g id="Group_83" data-name="Group 83" transform="translate(146.873 0.016)">
        <path id="Path_122" data-name="Path 122" d="M326.031,66.526a55.213,55.213,0,1,0-78.081,78.086l38.931,38.94,78.731-77.429Z" transform="translate(-231.777 -50.345)" fill="#fff"/>
        <path id="Path_123" data-name="Path 123" d="M568.495,50.355a55.207,55.207,0,0,0-39.056,16.182l-88.382,88.386a27.138,27.138,0,0,1-38.366,0l-49.466-49.466-78.081,78.086,93.483,93.469a75.318,75.318,0,0,0,106.519,0L607.559,144.6a55.212,55.212,0,0,0-39.065-94.243Z" transform="translate(-220.045 -50.346)" fill="#fff"/>
        <path id="Path_124" data-name="Path 124" d="M566.5,50.389a56.206,56.206,0,0,0-37.645,16.76l-87.775,87.775a27.138,27.138,0,0,1-38.366,0h0a69.954,69.954,0,0,0-98.951,0l-28.62,28.619,93.512,93.469a75.318,75.318,0,0,0,106.519,0L607.582,144.6A55.217,55.217,0,0,0,566.5,50.389Z" transform="translate(-220.063 -50.351)" fill="#fff"/>
      </g>
    </g>
  </g>
</svg>
