<?xml version="1.0"?>
<svg xmlns="http://www.w3.org/2000/svg" xmlns:xlink="http://www.w3.org/1999/xlink" id="Gradient" viewBox="0 0 512 512" width="512" height="512"><defs><linearGradient id="linear-gradient" x1="256" y1="496" x2="256" y2="16" gradientUnits="userSpaceOnUse"><stop offset="0" stop-color="#12c2e9"/><stop offset="0.5" stop-color="#c471ed"/><stop offset="1" stop-color="#f64f59"/></linearGradient></defs><path d="M456,192.8V120a104,104,0,0,0-208,0v72.8A40.071,40.071,0,0,0,216,232v16a40.294,40.294,0,0,0,21.829,35.623L219.4,320H207.544l-15.573-41.527A40.049,40.049,0,0,0,152,240H132.944l-5.789-11.578A8,8,0,0,0,120,224H88a8,8,0,0,0-7.589,10.53l5.152,15.456c-.633.557-1.252,1.13-1.85,1.727A39.742,39.742,0,0,0,72,280v40H48a8,8,0,0,0-7.96,7.2l-16,160A8,8,0,0,0,32,496H248a8,8,0,0,0,7.96-8.8l-7.666-76.661L272,382.1V488a8,8,0,0,0,8,8H472a8,8,0,0,0,8-8V296a39.74,39.74,0,0,0-4.7-18.8A40.251,40.251,0,0,0,488,248V232A40.071,40.071,0,0,0,456,192.8ZM472,232v16a23.8,23.8,0,0,1-6.92,16.871A39.806,39.806,0,0,0,440,256H384V232.472A72.37,72.37,0,0,0,419.938,191.8,39.784,39.784,0,0,0,440,183.978V200a8,8,0,0,0,8,8A24.028,24.028,0,0,1,472,232Zm-120-8a56.063,56.063,0,0,1-56-56V125.766l85.839-28.613L408,123.313V168A56.063,56.063,0,0,1,352,224Zm-16,14.186a71.469,71.469,0,0,0,32,0V264a8.009,8.009,0,0,1-8,8H344a8.009,8.009,0,0,1-8-8ZM424,168V129.376a23.994,23.994,0,0,1-.325,45.358C423.881,172.516,424,170.272,424,168ZM352,32a88.1,88.1,0,0,1,88,88v.022a39.789,39.789,0,0,0-20.526-7.862L389.657,82.343a8,8,0,0,0-8.187-1.932L286.6,112.036a39.78,39.78,0,0,0-22.6,7.986V120A88.1,88.1,0,0,1,352,32ZM280.325,174.734A23.994,23.994,0,0,1,280,129.376V168C280,170.272,280.119,172.516,280.325,174.734ZM232,232a24.028,24.028,0,0,1,24-24,8,8,0,0,0,8-8V183.978a39.784,39.784,0,0,0,20.062,7.826A72.37,72.37,0,0,0,320,232.472V256H276.38a40.15,40.15,0,0,0-30.243,13.86A24.159,24.159,0,0,1,232,248Zm-56,48a8,8,0,0,0,.509,2.809L190.456,320H168V280a39.724,39.724,0,0,0-6.644-22.1A24.035,24.035,0,0,1,176,280Zm-60.944-40,5.789,11.578A8,8,0,0,0,128,256a23.992,23.992,0,0,1,24,24v19.882l-8.509-22.691A8,8,0,0,0,136,272h-8.936A23.97,23.97,0,0,1,104.3,255.589L99.1,240ZM88,280a23.841,23.841,0,0,1,3.846-13.04A39.939,39.939,0,0,0,127.064,288h3.392l12,32H88ZM40.84,480l14.4-144H184.76l14.4,144Zm174.4,0-14.4-144h23.92l14.4,144ZM288,328a8,8,0,0,0-16,0v29.1l-25.937,31.124-6.1-61.024a7.981,7.981,0,0,0-3.364-5.743l17.923-35.378c.038-.077.076-.154.112-.232A24.087,24.087,0,0,1,276.38,272h45A24.039,24.039,0,0,0,344,288h16a24.039,24.039,0,0,0,22.624-16H440a24.027,24.027,0,0,1,24,24v88H432V328a8,8,0,0,0-16,0V480H288ZM432,480V400h32v80ZM328,152a8,8,0,1,1-8-8A8,8,0,0,1,328,152Zm64,0a8,8,0,1,1-8-8A8,8,0,0,1,392,152Z" style="fill:url(#linear-gradient)"/></svg>
