<svg height="512" viewBox="0 0 128 128" width="512" xmlns="http://www.w3.org/2000/svg" xmlns:xlink="http://www.w3.org/1999/xlink"><linearGradient id="a" gradientUnits="userSpaceOnUse" x1="111.062" x2="10.64" y1="117.36" y2="16.938"><stop offset="0" stop-color="#d261e8"/><stop offset="1" stop-color="#19cffc"/></linearGradient><path d="m51.454 58.388a1.748 1.748 0 0 1 0-2.474l3.355-3.355a1.749 1.749 0 0 1 2.474 2.474l-3.354 3.355a1.749 1.749 0 0 1 -2.475 0zm45.8 49.852a7.763 7.763 0 1 1 5.491 2.275 7.773 7.773 0 0 1 -5.487-2.276zm2.474-2.475a4.265 4.265 0 1 0 0-6.032 4.241 4.241 0 0 0 .004 6.032zm27.755-7.305a1.749 1.749 0 0 1 0 2.475l-26.552 26.552a1.748 1.748 0 0 1 -2.474 0l-38.657-38.657-28.73 28.732a1.977 1.977 0 0 1 -.654.413l-12.745 4.505-15.338 5.42a1.75 1.75 0 0 1 -2.233-2.233l5.42-15.338 4.5-12.746a2.948 2.948 0 0 1 .413-.654l28.737-28.729-38.657-38.66a1.749 1.749 0 0 1 0-2.475l26.551-26.552a1.749 1.749 0 0 1 2.475 0l9.246 9.245 29.415 29.412 16.089-16.092 9.5-9.5 11.1-11.1a8.474 8.474 0 0 1 11.969 0l8.663 8.664a8.461 8.461 0 0 1 0 11.969l-11.1 11.1-9.5 9.5-16.091 16.089 15.87 15.868 9.726 9.727a1.75 1.75 0 1 1 -2.475 2.474l-8.49-8.49-7.785 7.785a1.75 1.75 0 0 1 -2.476-2.472l7.785-7.785-6.941-6.941-7.785 7.785a1.75 1.75 0 0 1 -2.475-2.475l7.785-7.785-5.213-5.213-24.079 24.077 37.423 37.42 24.075-24.075-3.361-3.362a1.75 1.75 0 0 1 2.475-2.475zm-29.983-83.647 15.686 15.687 9.86-9.86a4.962 4.962 0 0 0 0-7.019l-8.663-8.664a4.971 4.971 0 0 0 -7.021 0zm-9.5 9.5 15.685 15.687 7.027-7.026-15.684-15.686zm-71.9 71.9a18.239 18.239 0 0 1 10.238 3.2c3.835 2.873 5.271 7.889 5.446 12.487l69.421-69.42-15.679-15.689-21.4 21.4a1.75 1.75 0 0 1 -2.475-2.475l4.071-4.07-9.342-9.346-7.78 7.788a1.75 1.75 0 0 1 -2.475-2.475l7.785-7.785-6.941-6.941-7.785 7.785a1.75 1.75 0 0 1 -2.484-2.472l7.785-7.786-6.941-6.941-7.785 7.785a1.75 1.75 0 0 1 -2.475-2.474l7.79-7.784-6.774-6.775-24.075 24.075 37.42 37.421 2.965-2.966a1.75 1.75 0 0 1 2.475 2.475zm-6.912 14.242 4.179 4.178 4.178 4.179 10.671-3.772c.293-4.172-.112-8.94-3.142-12.114-3.174-3.026-7.942-3.435-12.115-3.142zm4.7 9.65-5.988-5.993-3.274 9.267z" fill="url(#a)"/></svg>