<svg id="Layer_1" enable-background="new 0 0 450 450" height="512" viewBox="0 0 450 450" width="512" xmlns="http://www.w3.org/2000/svg" xmlns:xlink="http://www.w3.org/1999/xlink"><linearGradient id="SVGID_1_" gradientTransform="matrix(1 0 0 -1 0 450)" gradientUnits="userSpaceOnUse" x1="45.148" x2="404.853" y1="449.438" y2="89.733"><stop offset="0" stop-color="#00dbde"/><stop offset="1" stop-color="#fc00ff"/></linearGradient><path d="m420.26 334.63h-390.52c-13.64 0-24.74-11.1-24.74-24.74v-258.95c0-13.64 11.1-24.74 24.74-24.74h390.52c13.64 0 24.74 11.1 24.74 24.74v258.95c0 13.64-11.1 24.74-24.74 24.74zm-390.52-298.43c-8.13 0-14.74 6.61-14.74 14.74v258.95c0 8.13 6.61 14.74 14.74 14.74h390.52c8.13 0 14.74-6.61 14.74-14.74v-258.95c0-8.13-6.61-14.74-14.74-14.74zm410.26 240.05h-430c-2.76 0-5-2.24-5-5s2.24-5 5-5h430c2.76 0 5 2.24 5 5s-2.24 5-5 5zm-246.69 102.9c-2.76 0-5-2.24-5-5v-44.53c0-2.76 2.24-5 5-5s5 2.24 5 5v44.53c0 2.76-2.24 5-5 5zm63.38 0c-2.76 0-5-2.24-5-5v-44.53c0-2.76 2.24-5 5-5s5 2.24 5 5v44.53c0 2.76-2.24 5-5 5zm79.64 44.65h-222.66c-2.76 0-5-2.24-5-5 0-27.37 22.27-49.64 49.64-49.64h133.37c27.37 0 49.64 22.27 49.64 49.64.01 2.76-2.23 5-4.99 5zm-217.34-10h212.03c-2.47-19.51-19.16-34.64-39.33-34.64h-133.38c-20.16-.01-36.86 15.13-39.32 34.64zm170.34-195.29h-21.41c-2.76 0-5-2.24-5-5s2.24-5 5-5h21.41c2.76 0 5 2.24 5 5s-2.24 5-5 5zm103.15-21.41h-42.82c-2.76 0-5-2.24-5-5s2.24-5 5-5h42.82c2.76 0 5 2.24 5 5s-2.24 5-5 5zm-289.14-5.53c-1.07 0-2.14-.34-3.05-1.04l-45.83-35.35c-1.23-.95-1.95-2.41-1.95-3.96s.72-3.01 1.95-3.96l45.83-35.35c2.19-1.69 5.33-1.28 7.01.9 1.69 2.19 1.28 5.33-.9 7.01l-40.69 31.39 40.69 31.39c2.19 1.69 2.59 4.83.9 7.01-.98 1.29-2.46 1.96-3.96 1.96zm88.98 0c-1.5 0-2.98-.67-3.96-1.95-1.69-2.19-1.28-5.33.9-7.01l40.69-31.39-40.69-31.39c-2.19-1.69-2.59-4.83-.9-7.01 1.69-2.19 4.83-2.59 7.01-.9l45.83 35.35c1.23.95 1.95 2.41 1.95 3.96s-.72 3.01-1.95 3.96l-45.83 35.35c-.91.7-1.98 1.03-3.05 1.03zm-61.17 26.94c-.43 0-.86-.06-1.3-.17-2.67-.71-4.25-3.46-3.54-6.12l33.38-124.56c.71-2.67 3.45-4.25 6.12-3.54s4.25 3.46 3.54 6.12l-33.38 124.56c-.59 2.24-2.62 3.71-4.82 3.71zm179.58-81.75h-42.82c-2.76 0-5-2.24-5-5v-42.82c0-2.76 2.24-5 5-5h42.82c2.76 0 5 2.24 5 5v42.82c0 2.76-2.23 5-5 5zm-37.81-10h32.82v-32.82h-32.82zm119.56 48.93h-124.56c-2.76 0-5-2.24-5-5s2.24-5 5-5h124.56c2.76 0 5 2.24 5 5s-2.24 5-5 5zm-67.92 21.41h-56.64c-2.76 0-5-2.24-5-5s2.24-5 5-5h56.64c2.76 0 5 2.24 5 5s-2.24 5-5 5zm67.92-60.34h-42.82c-2.76 0-5-2.24-5-5v-42.82c0-2.76 2.24-5 5-5h42.82c2.76 0 5 2.24 5 5v42.82c0 2.76-2.24 5-5 5zm-37.82-10h32.82v-32.82h-32.82zm37.82 91.75h-42.82c-2.76 0-5-2.24-5-5s2.24-5 5-5h42.82c2.76 0 5 2.24 5 5s-2.24 5-5 5zm-58.08 0h-28.32c-2.76 0-5-2.24-5-5s2.24-5 5-5h28.32c2.76 0 5 2.24 5 5s-2.24 5-5 5z" fill="url(#SVGID_1_)"/></svg>