<?xml version="1.0" encoding="UTF-8"?>
<svg xmlns="http://www.w3.org/2000/svg" xmlns:xlink="http://www.w3.org/1999/xlink" width="512" height="512" viewBox="0 0 128 128"><defs><linearGradient id="a" x1="110.336" y1="123.082" x2="17.664" y2="30.411" gradientUnits="userSpaceOnUse"><stop offset="0" stop-color="#d261e8"/><stop offset="1" stop-color="#19cffc"/></linearGradient></defs><path d="M10.282,65.88a1.75,1.75,0,0,1-.1-2.473,39.029,39.029,0,0,1,2.808-2.754,1.75,1.75,0,1,1,2.321,2.619c-.891.791-1.75,1.633-2.555,2.506a1.749,1.749,0,0,1-2.473.1ZM38.508,120a1.75,1.75,0,1,0,0-3.5,26.931,26.931,0,0,1-18.138-7.015,1.75,1.75,0,1,0-2.352,2.592A30.423,30.423,0,0,0,38.508,120ZM128,89.492a38.479,38.479,0,0,1-64,28.827A38.5,38.5,0,0,1,3.515,73.4a1.75,1.75,0,0,1,3.179,1.465A34.992,34.992,0,0,0,61.48,115.874,38.318,38.318,0,0,1,53.612,75.58,38.668,38.668,0,0,1,29.531,55.647a34.89,34.89,0,0,0-4.883,1.687,1.75,1.75,0,1,1-1.386-3.213,38.415,38.415,0,0,1,4.84-1.7,38.508,38.508,0,1,1,71.793.007A38.568,38.568,0,0,1,128,89.492ZM31.55,51.622A38.375,38.375,0,0,1,64,60.661a38.231,38.231,0,0,1,12.193-7.316A1.75,1.75,0,1,1,77.4,56.63a34.738,34.738,0,0,0-10.874,6.483,38.682,38.682,0,0,1,6.45,9.232A35.155,35.155,0,0,0,94.917,54.907a35.042,35.042,0,0,0-5.425-.423,1.75,1.75,0,0,1,0-3.5,38.522,38.522,0,0,1,6.956.642,35.008,35.008,0,1,0-64.9,0ZM58.611,73.1a35.056,35.056,0,0,0,10.814-.007A35.152,35.152,0,0,0,64,65.535,35.362,35.362,0,0,0,58.611,73.1Zm-3.571-.751a38.89,38.89,0,0,1,6.437-9.242,34.852,34.852,0,0,0-22.969-8.623,35.426,35.426,0,0,0-5.427.418A35.149,35.149,0,0,0,55.04,72.349Zm-.556,17.143A34.872,34.872,0,0,0,64,113.449a34.906,34.906,0,0,0,6.956-37.075,38,38,0,0,1-13.9,0A34.8,34.8,0,0,0,54.484,89.492Zm70.016,0A35.067,35.067,0,0,0,98.465,55.655,38.672,38.672,0,0,1,74.4,75.576a38.391,38.391,0,0,1-7.883,40.3A34.979,34.979,0,0,0,124.5,89.492ZM64,11.5a26.936,26.936,0,0,1,18.087,6.969,1.751,1.751,0,0,0,2.347-2.6A30.439,30.439,0,0,0,64,8a1.75,1.75,0,0,0,0,3.5Z" fill="url(#a)"/></svg>
