<svg id="Layer_5" enable-background="new 0 0 64 64" height="512" viewBox="0 0 64 64" width="512" xmlns="http://www.w3.org/2000/svg" xmlns:xlink="http://www.w3.org/1999/xlink"><linearGradient id="SVGID_1_" gradientUnits="userSpaceOnUse" x1="32" x2="32" y1="63" y2="1"><stop offset="0" stop-color="#9f2fff"/><stop offset="1" stop-color="#0bb1d3"/></linearGradient><path d="m58.542 11.95 1.231-2.461-5.263-5.263-2.46 1.232c-1.403-.819-2.899-1.44-4.46-1.852l-.869-2.606h-7.441l-.87 2.606c-1.561.411-3.057 1.032-4.46 1.852l-2.461-1.231-5.263 5.263 1.231 2.461c-.819 1.403-1.44 2.899-1.852 4.46l-2.605.868v7.438l2.143.727-5.364 5.364c-.511.511-.948 1.073-1.323 1.67-.592.375-1.15.804-1.647 1.301l-13.031 13.029c-1.792 1.792-2.778 4.173-2.778 6.707 0 5.23 4.255 9.485 9.485 9.485 2.533 0 4.916-.986 6.707-2.778l13.029-13.029c.511-.511.948-1.073 1.323-1.67.592-.375 1.15-.804 1.647-1.301l5.342-5.342.764 2.12h7.424l.869-2.606c1.561-.411 3.057-1.032 4.46-1.852l2.461 1.231 5.263-5.263-1.231-2.461c.819-1.403 1.44-2.899 1.852-4.46l2.605-.868v-7.441l-2.606-.869c-.412-1.561-1.033-3.057-1.852-4.461zm-35.833 34.27-9.76 9.76c-.658.658-1.533 1.02-2.464 1.02-1.922 0-3.485-1.563-3.485-3.485 0-.931.362-1.806 1.021-2.464l9.758-9.758c.943 2.189 2.689 3.963 4.93 4.927zm6.099-.442-13.03 13.03c-1.414 1.414-3.294 2.192-5.293 2.192-4.128 0-7.485-3.358-7.485-7.485 0-1.999.778-3.879 2.192-5.293l11.889-11.889c-.048.39-.081.783-.081 1.182 0 .543.047 1.075.133 1.595l-10.527 10.527c-1.036 1.036-1.606 2.413-1.606 3.878 0 3.024 2.461 5.485 5.485 5.485 1.465 0 2.842-.57 3.878-1.606l13.03-13.03c1.037-1.037 1.607-2.414 1.607-3.879 0-2.846-2.179-5.191-4.956-5.458l1.671-1.671c3.13.959 5.284 3.805 5.284 7.13.001 1.998-.777 3.878-2.191 5.292zm-5.761-8.743c.155-.021.311-.035.468-.035 1.922 0 3.485 1.563 3.485 3.485 0 .163-.025.321-.047.48-.155.021-.311.035-.468.035-1.922 0-3.485-1.563-3.485-3.485 0-.163.025-.322.047-.48zm4.244-5.255 9.76-9.76c.658-.658 1.533-1.02 2.464-1.02 1.922 0 3.485 1.563 3.485 3.485 0 .931-.362 1.806-1.021 2.464l-9.758 9.758c-.943-2.189-2.689-3.963-4.93-4.927zm5.628 9.887c.048-.39.081-.783.081-1.182 0-.543-.047-1.075-.133-1.595l10.527-10.527c1.036-1.036 1.606-2.413 1.606-3.878 0-3.024-2.461-5.485-5.485-5.485-1.465 0-2.842.57-3.878 1.606l-13.03 13.03c-1.037 1.037-1.607 2.414-1.607 3.879 0 2.846 2.179 5.191 4.956 5.458l-1.671 1.671c-3.13-.959-5.285-3.805-5.285-7.129 0-1.999.778-3.879 2.192-5.293l13.029-13.029c1.415-1.415 3.295-2.193 5.294-2.193 4.128 0 7.485 3.358 7.485 7.485 0 1.999-.778 3.879-2.192 5.293zm-1.812-22.188c.752-5.9 5.792-10.479 11.893-10.479 6.617 0 12 5.383 12 12 0 6.101-4.579 11.141-10.479 11.893l1.7-1.7c1.793-1.793 2.779-4.174 2.779-6.708 0-5.23-4.255-9.485-9.485-9.485-2.533 0-4.916.986-6.707 2.778zm29.893 3.8-2.294.765-.126.548c-.396 1.725-1.078 3.367-2.026 4.881l-.298.477 1.084 2.167-3.224 3.224-2.167-1.084-.477.298c-1.514.948-3.156 1.63-4.881 2.026l-.548.126-.764 2.293h-4.576l-.606-1.683 2.339-2.339c.188.007.374.022.564.022 7.72 0 14-6.28 14-14s-6.28-14-14-14-14 6.28-14 14c0 .19.014.376.021.565l-2.301 2.301-1.72-.583v-4.563l2.294-.765.126-.548c.396-1.725 1.078-3.367 2.026-4.881l.298-.477-1.084-2.165 3.224-3.224 2.167 1.084.477-.298c1.514-.948 3.156-1.63 4.881-2.026l.548-.126.764-2.294h4.559l.765 2.294.548.126c1.725.396 3.367 1.078 4.881 2.026l.477.298 2.167-1.084 3.224 3.224-1.084 2.167.298.477c.948 1.514 1.63 3.156 2.026 4.881l.126.548 2.292.764zm-9 17.721c-6.065 0-11 4.935-11 11s4.935 11 11 11 11-4.935 11-11-4.935-11-11-11zm0 20c-4.963 0-9-4.037-9-9s4.037-9 9-9 9 4.037 9 9-4.037 9-9 9zm5.293-12.707 1.414 1.414-8.707 8.707-3.707-3.707 1.414-1.414 2.293 2.293zm-45.293-33.293h1.586l-3.586-3.586-3.586 3.586h1.586v17h-2v-15h-4.414l8.414-8.414 8.414 8.414h-4.414v15h-2zm32.779-1.802c-.581-.132-1.179-.198-1.779-.198v-2c.748 0 1.495.083 2.221.247zm1.889.691.918-1.777c3.34 1.726 5.414 5.131 5.414 8.888h-2c0-3.006-1.66-5.73-4.332-7.111z" fill="url(#SVGID_1_)"/></svg>