<svg id="Layer_1" enable-background="new 0 0 450 450" height="512" viewBox="0 0 450 450" width="512" xmlns="http://www.w3.org/2000/svg" xmlns:xlink="http://www.w3.org/1999/xlink"><linearGradient id="SVGID_1_" gradientTransform="matrix(1 0 0 -1 0 450)" gradientUnits="userSpaceOnUse" x1="73.506" x2="397.319" y1="392.781" y2="68.969"><stop offset="0" stop-color="#00dbde"/><stop offset="1" stop-color="#fc00ff"/></linearGradient><path d="m399.7 365.6h-349.4c-17.3 0-31.4-14.1-31.4-31.4v-209.4c0-17.3 14.1-31.4 31.4-31.4h250.3c2.6 0 4.7 2.1 4.7 4.7s-2.1 4.7-4.7 4.7h-250.3c-12.2 0-22.1 9.9-22.1 22.1v209.4c0 12.2 9.9 22.1 22.1 22.1h349.5c12.2 0 22.1-9.9 22.1-22.1v-209.5c0-12.2-9.9-22.1-22.1-22.1h-31c-2.6 0-4.7-2.1-4.7-4.7s2.1-4.7 4.7-4.7h31c17.3 0 31.4 14.1 31.4 31.4v209.4c0 17.4-14.1 31.5-31.5 31.5zm-240.7 0h-108.7c-17.3 0-31.4-14.1-31.4-31.4v-116.2c0-1.9 1.1-3.5 2.8-4.3 4.6-2 9.4-3.7 14.2-5.1v-38.1c0-7 5.7-12.8 12.8-12.8h33.2c7 0 12.8 5.7 12.8 12.8v38.1c8.5 2.4 16.7 5.8 24.4 10.1l26.9-26.9c5-5 13.1-5 18.1 0l23.5 23.5c5 5 5 13.1 0 18.1l-26.9 26.9c4.4 7.7 7.8 15.9 10.1 24.4h38.1c7 0 12.8 5.7 12.8 12.8v33.2c0 7-5.7 12.8-12.8 12.8h-38.1c-1.9 6.7-4.4 13.3-7.5 19.5-.9 1.6-2.5 2.6-4.3 2.6zm-130.8-144.5v113.1c0 12.2 9.9 22.1 22.1 22.1h105.8c2.8-5.9 4.9-12.1 6.5-18.5.5-2.1 2.4-3.6 4.5-3.6h41.7c1.9 0 3.4-1.5 3.4-3.4v-33.2c0-1.9-1.5-3.4-3.4-3.4h-41.7c-2.2 0-4-1.5-4.6-3.6-2.4-10-6.4-19.6-11.8-28.5-1.1-1.8-.8-4.2.7-5.7l29.5-29.5c1.3-1.3 1.3-3.5 0-4.8l-23.5-23.5c-1.3-1.3-3.5-1.3-4.8 0l-29.5 29.5c-1.5 1.5-3.9 1.8-5.7.7-8.9-5.4-18.4-9.4-28.5-11.8-2.1-.5-3.6-2.4-3.6-4.5v-41.7c0-1.9-1.5-3.4-3.4-3.4h-33.3c-1.9 0-3.4 1.5-3.4 3.4v41.7c0 2.2-1.5 4-3.6 4.5-4.5.9-9.1 2.4-13.4 4.1zm69.8 144.5h-47.7c-17.3 0-31.4-14.1-31.4-31.4v-59c0-1.2.5-2.3 1.3-3.2 11.7-12.5 28.1-19.6 45.2-19.6 34.1 0 61.8 27.7 61.8 61.8 0 20.1-9.9 39.1-26.4 50.6-.9.5-1.9.8-2.8.8zm-69.8-88.5v57.1c0 12.2 9.9 22.1 22.1 22.1h46.2c13.3-9.9 21.2-25.5 21.2-42.1 0-28.9-23.5-52.4-52.4-52.4-13.9-.1-27.3 5.5-37.1 15.3zm239.8 141.8h-86c-1.7 0-3.2-.9-4-2.3s-.9-3.2-.1-4.6c6.4-11.5 8.1-30.9-2.6-48.6-.9-1.4-.9-3.2-.1-4.7s2.4-2.4 4.1-2.4h91.3c1.7 0 3.2.9 4.1 2.4.8 1.5.8 3.3-.1 4.7-10.7 17.6-9 37.1-2.6 48.6.8 1.5.8 3.2 0 4.6s-2.3 2.3-4 2.3zm-78.8-9.4h71.6c-4.3-12.1-4.8-28.3 2.2-43.9h-76c7 15.6 6.5 31.8 2.2 43.9zm84.7 30.5h-97.7c-8.4 0-15.2-6.8-15.2-15.2s6.8-15.2 15.2-15.2h97.7c8.4 0 15.2 6.8 15.2 15.2s-6.8 15.2-15.2 15.2zm-97.8-21.1c-3.2 0-5.9 2.6-5.9 5.9s2.6 5.9 5.9 5.9h97.7c3.2 0 5.9-2.6 5.9-5.9 0-3.2-2.6-5.9-5.9-5.9zm217.3-152.6h-185.6c-2.6 0-4.7-2.1-4.7-4.7s2.1-4.7 4.7-4.7h180.9v-143c0-2.6 2.1-4.7 4.7-4.7s4.7 2.1 4.7 4.7v147.7c0 2.6-2.1 4.7-4.7 4.7zm-24.6 0h-34.1c-2.6 0-4.7-2.1-4.7-4.7v-247c0-2.6 2.1-4.7 4.7-4.7h34.1c2.6 0 4.7 2.1 4.7 4.7v247c0 2.6-2.1 4.7-4.7 4.7zm-29.4-9.3h24.8v-237.7h-24.8zm-4.7 9.3h-34.1c-2.6 0-4.7-2.1-4.7-4.7v-208.3c0-2.6 2.1-4.7 4.7-4.7h34.1c2.6 0 4.7 2.1 4.7 4.7v208.4c0 2.5-2.1 4.6-4.7 4.6zm-29.4-9.3h24.7v-199h-24.7zm-4.7 9.3h-34.1c-2.6 0-4.7-2.1-4.7-4.7v-120.6c0-2.6 2.1-4.7 4.7-4.7h34.1c2.6 0 4.7 2.1 4.7 4.7v120.7c0 2.5-2.1 4.6-4.7 4.6zm-29.4-9.3h24.7v-111.4h-24.7zm-4.7 9.3h-34.1c-2.6 0-4.7-2.1-4.7-4.7v-99.7c0-2.6 2.1-4.7 4.7-4.7h34.1c2.6 0 4.7 2.1 4.7 4.7v99.7c0 2.6-2.1 4.7-4.7 4.7zm-29.4-9.3h24.8v-90.4h-24.8zm-10.8 20.5c-2.6 0-4.7-2.1-4.7-4.7v-11.2c0-2.6 2.1-4.7 4.7-4.7s4.7 2.1 4.7 4.7v11.2c-.1 2.6-2.2 4.7-4.7 4.7zm18.5 0c-2.6 0-4.7-2.1-4.7-4.7v-11.2c0-2.6 2.1-4.7 4.7-4.7s4.7 2.1 4.7 4.7v11.2c0 2.6-2.1 4.7-4.7 4.7zm18.6 0c-2.6 0-4.7-2.1-4.7-4.7v-11.2c0-2.6 2.1-4.7 4.7-4.7s4.7 2.1 4.7 4.7v11.2c0 2.6-2.1 4.7-4.7 4.7zm18.6 0c-2.6 0-4.7-2.1-4.7-4.7v-11.2c0-2.6 2.1-4.7 4.7-4.7s4.7 2.1 4.7 4.7v11.2c0 2.6-2.1 4.7-4.7 4.7zm18.6 0c-2.6 0-4.7-2.1-4.7-4.7v-11.2c0-2.6 2.1-4.7 4.7-4.7s4.7 2.1 4.7 4.7v11.2c0 2.6-2.1 4.7-4.7 4.7zm18.6 0c-2.6 0-4.7-2.1-4.7-4.7v-11.2c0-2.6 2.1-4.7 4.7-4.7s4.7 2.1 4.7 4.7v11.2c0 2.6-2.1 4.7-4.7 4.7zm18.6 0c-2.6 0-4.7-2.1-4.7-4.7v-11.2c0-2.6 2.1-4.7 4.7-4.7s4.7 2.1 4.7 4.7v11.2c-.1 2.6-2.1 4.7-4.7 4.7zm18.6 0c-2.6 0-4.7-2.1-4.7-4.7v-11.2c0-2.6 2.1-4.7 4.7-4.7s4.7 2.1 4.7 4.7v11.2c-.1 2.6-2.2 4.7-4.7 4.7zm18.5 0c-2.6 0-4.7-2.1-4.7-4.7v-11.2c0-2.6 2.1-4.7 4.7-4.7s4.7 2.1 4.7 4.7v11.2c0 2.6-2.1 4.7-4.7 4.7zm18.5 31.5h-153.3c-2.6 0-4.7-2.1-4.7-4.7s2.1-4.7 4.7-4.7h153.3c2.6 0 4.7 2.1 4.7 4.7s-2.1 4.7-4.7 4.7zm-35 25.2h-83.4c-2.6 0-4.7-2.1-4.7-4.7s2.1-4.7 4.7-4.7h83.4c2.6 0 4.7 2.1 4.7 4.7s-2.1 4.7-4.7 4.7zm-222.8-184h-30.6c-2.6 0-4.7-2.1-4.7-4.7v-30.5c0-2.6 2.1-4.7 4.7-4.7h30.6c2.6 0 4.7 2.1 4.7 4.7v30.6c0 2.5-2.1 4.6-4.7 4.6zm-25.9-9.3h21.3v-21.3h-21.3zm104.3-18.8h-60.4c-2.6 0-4.7-2.1-4.7-4.7s2.1-4.7 4.7-4.7h60.4c2.6 0 4.7 2.1 4.7 4.7 0 2.7-2.1 4.7-4.7 4.7zm0 25.6h-60.4c-2.6 0-4.7-2.1-4.7-4.7s2.1-4.7 4.7-4.7h60.4c2.6 0 4.7 2.1 4.7 4.7s-2.1 4.7-4.7 4.7z" fill="url(#SVGID_1_)"/></svg>