<svg height="512" viewBox="0 0 64 64" width="512" xmlns="http://www.w3.org/2000/svg" xmlns:xlink="http://www.w3.org/1999/xlink"><linearGradient id="New_Gradient_Swatch_3" gradientUnits="userSpaceOnUse" x1="38.733" x2="37.888" y1="63.707" y2="-.489"><stop offset="0" stop-color="#006df0"/><stop offset="1" stop-color="#00e7f0"/></linearGradient><linearGradient id="New_Gradient_Swatch_3-2" x1="8.738" x2="7.893" xlink:href="#New_Gradient_Swatch_3" y1="64.101" y2="-.094"/><linearGradient id="New_Gradient_Swatch_3-3" x1="14.737" x2="13.892" xlink:href="#New_Gradient_Swatch_3" y1="64.022" y2="-.173"/><linearGradient id="New_Gradient_Swatch_3-4" x1="20.736" x2="19.891" xlink:href="#New_Gradient_Swatch_3" y1="63.944" y2="-.252"/><linearGradient id="New_Gradient_Swatch_3-5" x1="32.058" x2="31.213" xlink:href="#New_Gradient_Swatch_3" y1="63.795" y2="-.401"/><linearGradient id="New_Gradient_Swatch_3-6" x1="11.54" x2="10.696" xlink:href="#New_Gradient_Swatch_3" y1="64.065" y2="-.131"/><linearGradient id="New_Gradient_Swatch_3-7" x1="18.546" x2="17.701" xlink:href="#New_Gradient_Swatch_3" y1="63.972" y2="-.223"/><linearGradient id="New_Gradient_Swatch_3-8" x1="25.538" x2="24.693" xlink:href="#New_Gradient_Swatch_3" y1="63.88" y2="-.315"/><linearGradient id="New_Gradient_Swatch_3-9" x1="41.588" x2="40.743" xlink:href="#New_Gradient_Swatch_3" y1="63.669" y2="-.526"/><linearGradient id="New_Gradient_Swatch_3-10" x1="41.535" x2="40.69" xlink:href="#New_Gradient_Swatch_3" y1="63.67" y2="-.526"/><linearGradient id="New_Gradient_Swatch_3-11" x1="26.406" x2="25.561" xlink:href="#New_Gradient_Swatch_3" y1="63.869" y2="-.327"/><linearGradient id="New_Gradient_Swatch_3-12" x1="25.354" x2="24.509" xlink:href="#New_Gradient_Swatch_3" y1="63.883" y2="-.313"/><linearGradient id="New_Gradient_Swatch_3-13" x1="24.301" x2="23.457" xlink:href="#New_Gradient_Swatch_3" y1="63.897" y2="-.299"/><linearGradient id="New_Gradient_Swatch_3-14" x1="23.249" x2="22.404" xlink:href="#New_Gradient_Swatch_3" y1="63.91" y2="-.285"/><linearGradient id="New_Gradient_Swatch_3-15" x1="21.696" x2="20.852" xlink:href="#New_Gradient_Swatch_3" y1="63.931" y2="-.265"/><linearGradient id="New_Gradient_Swatch_3-16" x1="40.483" x2="39.638" xlink:href="#New_Gradient_Swatch_3" y1="63.684" y2="-.512"/><g id="SEO_coppywrite" data-name="SEO coppywrite"><path d="m49 5h-22a3 3 0 0 0 0 6h22a3 3 0 0 0 0-6zm0 4h-22a1 1 0 0 1 0-2h22a1 1 0 0 1 0 2z" fill="url(#New_Gradient_Swatch_3)"/><circle cx="8" cy="8" fill="url(#New_Gradient_Swatch_3-2)" r="2"/><circle cx="14" cy="8" fill="url(#New_Gradient_Swatch_3-3)" r="2"/><circle cx="20" cy="8" fill="url(#New_Gradient_Swatch_3-4)" r="2"/><path d="m61.33 26.663a4.969 4.969 0 0 0 -5.33-3.663v-18a3 3 0 0 0 -3-3h-48a3 3 0 0 0 -3 3v48a3 3 0 0 0 3 3h32.018l-.026 5.746 8.708-5.078.383-.668h6.917a3 3 0 0 0 3-3v-14.177l4.83-8.366a4.969 4.969 0 0 0 .5-3.794zm-57.33-21.663a1 1 0 0 1 1-1h48a1 1 0 0 1 1 1v7h-50zm1 49a1 1 0 0 1 -1-1v-39h50v9.649a4.95 4.95 0 0 0 -1.83 1.808l-15.133 26.211-.01 2.332zm40.523-1.031-.482-3.164 8.825-15.285 1.732 1zm-4.523 1.831a5.98 5.98 0 0 0 -1.973-.705l.006-1.477 4.167-1.624.673 4.423-1.276.744a5.985 5.985 0 0 0 -1.597-1.361zm9.4-22.28 1.732 1-8.823 15.28-2.981 1.165zm-11.383 23.613a3.954 3.954 0 0 1 1.823 1.053l-1.832 1.068zm14.983-3.133a1 1 0 0 1 -1 1h-5.762l6.762-11.713zm3.6-20.945-1 1.732-5.2-3 1-1.732zm-4.2-4.732.5-.866a3 3 0 1 1 5.2 3l-.5.866z" fill="url(#New_Gradient_Swatch_3-5)"/><path d="m9 26a1 1 0 0 0 0 2h3a2 2 0 0 0 2-2v-2a2 2 0 0 0 -2-2h-2v-2h3a1 1 0 0 0 0-2h-3a2 2 0 0 0 -2 2v2a2 2 0 0 0 2 2h2v2z" fill="url(#New_Gradient_Swatch_3-6)"/><path d="m17 28h3a1 1 0 0 0 0-2h-3v-2h2a1 1 0 0 0 0-2h-2v-2h3a1 1 0 0 0 0-2h-3a2 2 0 0 0 -2 2v6a2 2 0 0 0 2 2z" fill="url(#New_Gradient_Swatch_3-7)"/><path d="m24 28h2a2 2 0 0 0 2-2v-6a2 2 0 0 0 -2-2h-2a2 2 0 0 0 -2 2v6a2 2 0 0 0 2 2zm0-8h2v6h-2z" fill="url(#New_Gradient_Swatch_3-8)"/><path d="m33 20h16a1 1 0 0 0 0-2h-16a1 1 0 0 0 0 2z" fill="url(#New_Gradient_Swatch_3-9)"/><path d="m33 24h16a1 1 0 0 0 0-2h-16a1 1 0 0 0 0 2z" fill="url(#New_Gradient_Swatch_3-10)"/><path d="m8 34h36a1 1 0 0 0 0-2h-36a1 1 0 0 0 0 2z" fill="url(#New_Gradient_Swatch_3-11)"/><path d="m8 38h34a1 1 0 0 0 0-2h-34a1 1 0 0 0 0 2z" fill="url(#New_Gradient_Swatch_3-12)"/><path d="m8 42h32a1 1 0 0 0 0-2h-32a1 1 0 0 0 0 2z" fill="url(#New_Gradient_Swatch_3-13)"/><path d="m8 46h30a1 1 0 0 0 0-2h-30a1 1 0 0 0 0 2z" fill="url(#New_Gradient_Swatch_3-14)"/><path d="m35 48h-27a1 1 0 0 0 0 2h27a1 1 0 0 0 0-2z" fill="url(#New_Gradient_Swatch_3-15)"/><path d="m33 28h14a1 1 0 0 0 0-2h-14a1 1 0 0 0 0 2z" fill="url(#New_Gradient_Swatch_3-16)"/></g></svg>