<svg id="Layer_5" enable-background="new 0 0 64 64" height="512" viewBox="0 0 64 64" width="512" xmlns="http://www.w3.org/2000/svg" xmlns:xlink="http://www.w3.org/1999/xlink"><linearGradient id="SVGID_1_" gradientUnits="userSpaceOnUse" x1="32" x2="32" y1="63" y2="1"><stop offset="0" stop-color="#9f2fff"/><stop offset="1" stop-color="#0bb1d3"/></linearGradient><path d="m15 53h10v2h-10zm-9-46c.552 0 1-.448 1-1s-.448-1-1-1-1 .448-1 1 .448 1 1 1zm19-2h-12v2h12zm8 22c0 3.309-2.691 6-6 6h-16c-3.309 0-6-2.691-6-6 0-2.753 1.834-5.088 4.446-5.778 1.195-3.694 4.625-6.222 8.554-6.222 3.875 0 7.242 2.435 8.49 6.026.174-.017.343-.026.51-.026 3.309 0 6 2.691 6 6zm-2 0c0-2.206-1.794-4-4-4-.295 0-.604.043-.975.137l-.985.248-.232-.989c-.746-3.177-3.546-5.396-6.808-5.396-3.222 0-6.013 2.187-6.787 5.316l-.16.647-.659.101c-1.967.301-3.394 1.957-3.394 3.936 0 2.206 1.794 4 4 4h16c2.206 0 4-1.794 4-4zm-12.071 16c1.654 0 3 1.346 3 3s-1.346 3-3 3-3-1.346-3-3 1.345-3 3-3zm0 2c-.552 0-1 .448-1 1s.448 1 1 1 1-.448 1-1-.449-1-1-1zm4.95-3.949c-1.322-1.322-3.08-2.051-4.95-2.051s-3.628.729-4.949 2.051l1.414 1.414c.944-.944 2.2-1.465 3.535-1.465 1.336 0 2.592.521 3.536 1.465zm-12.729-2.829 1.414 1.414c3.51-3.51 9.219-3.51 12.729 0l1.414-1.414c-4.289-4.289-11.268-4.289-15.557 0zm25.85-4.222v2h20.184c.414-1.161 1.514-2 2.816-2 1.654 0 3 1.346 3 3s-1.346 3-3 3c-1.302 0-2.402-.839-2.816-2h-20.184v2h9.414l6 6h4.77c.414-1.161 1.514-2 2.816-2 1.654 0 3 1.346 3 3s-1.346 3-3 3c-1.302 0-2.402-.839-2.816-2h-5.598l-6-6h-8.586v16c0 2.757-2.243 5-5 5h-26c-2.757 0-5-2.243-5-5v-52c0-2.757 2.243-5 5-5h26c1.818 0 3.454 1.009 4.327 2.53 2.154-1.583 4.802-2.53 7.673-2.53 7.168 0 13 5.832 13 13s-5.832 13-13 13c-2.578 0-4.977-.764-7-2.063v7.063h8.586l6-6h5.598c.414-1.161 1.514-2 2.816-2 1.654 0 3 1.346 3 3s-1.346 3-3 3c-1.302 0-2.402-.839-2.816-2h-4.77l-6 6zm22-7c0 .552.448 1 1 1s1-.448 1-1-.448-1-1-1-1 .448-1 1zm0 20c0 .552.448 1 1 1s1-.448 1-1-.448-1-1-1-1 .448-1 1zm0-10c0 .552.448 1 1 1s1-.448 1-1-.448-1-1-1-1 .448-1 1zm-23.479-30h3.373c.368-1.295.837-2.422 1.391-3.341-1.873.676-3.517 1.834-4.764 3.341zm8.479-4c-1.075 0-2.22 1.527-3.009 4h6.019c-.79-2.473-1.935-4-3.01-4zm9.786 6h-4.216c.225 1.237.363 2.581.409 4h4.971c-.13-1.43-.538-2.779-1.164-4zm-6.777 12h-6.019c.789 2.473 1.935 4 3.009 4s2.221-1.527 3.01-4zm.51-2c.244-1.209.408-2.553.46-4h-7.958c.052 1.447.217 2.791.46 4zm2.05 0h4.216c.626-1.221 1.034-2.57 1.164-4h-4.971c-.045 1.419-.184 2.763-.409 4zm-2.05-10h-7.038c-.244 1.209-.408 2.553-.46 4h7.958c-.052-1.447-.216-2.791-.46-4zm-14.468 4h4.971c.046-1.419.184-2.763.409-4h-4.216c-.627 1.221-1.035 2.57-1.164 4zm0 2c.13 1.43.537 2.779 1.164 4h4.216c-.225-1.237-.363-2.581-.409-4zm2.47 6c1.246 1.507 2.891 2.665 4.764 3.341-.553-.919-1.023-2.046-1.391-3.341zm16.958 0h-3.373c-.368 1.295-.837 2.422-1.391 3.341 1.873-.676 3.517-1.834 4.764-3.341zm-4.765-17.341c.554.919 1.023 2.046 1.391 3.341h3.373c-1.246-1.507-2.89-2.665-4.764-3.341zm-44.714 2.341v3h29.003c.651-1.557 1.597-2.96 2.767-4.142-.456-1.101-1.548-1.858-2.77-1.858h-26c-1.654 0-3 1.346-3 3zm32 52v-.026c-.838.635-1.87 1.026-3 1.026h-26c-1.13 0-2.162-.391-3-1.026v.026c0 1.654 1.346 3 3 3h26c1.654 0 3-1.346 3-3zm0-4v-30.641c-2.46-2.367-4-5.684-4-9.359 0-1.034.134-2.035.363-3h-28.363v43c0 1.654 1.346 3 3 3h26c1.654 0 3-1.346 3-3z" fill="url(#SVGID_1_)"/></svg>