<svg height="496pt" viewBox="0 0 496 496" width="496pt" xmlns="http://www.w3.org/2000/svg" xmlns:xlink="http://www.w3.org/1999/xlink"><linearGradient id="linear0" gradientUnits="userSpaceOnUse" x1="248" x2="248" y1="496" y2="0"><stop offset="0" stop-color="#9f2fff"/><stop offset="1" stop-color="#0bb1d3"/></linearGradient><path d="m200 144c-83.816406 0-152 68.183594-152 152s68.183594 152 152 152 152-68.183594 152-152-68.183594-152-152-152zm0 288c-74.992188 0-136-61.007812-136-136s61.007812-136 136-136 136 61.007812 136 136-61.007812 136-136 136zm-64.335938-54.28125c3.9375 3.113281 8.089844 5.921875 12.335938 8.378906l-8 13.855469c-4.921875-2.832031-9.710938-6.089844-14.257812-9.671875zm144.007813-14.871094 12.25 10.296875c-2.226563 2.640625-4.585937 5.214844-7.074219 7.710938-22.984375 22.984375-53.800781 35.128906-85.007812 35.128906-17.390625 0-34.902344-3.777344-51.273438-11.527344l6.859375-14.457031c39.605469 18.777344 87.078125 10.558594 118.109375-20.464844 2.160156-2.152344 4.207032-4.382812 6.136719-6.6875zm-151.671875-10.847656c-17.648438 0-32-14.351562-32-32h16c0 8.824219 7.175781 16 16 16s16-7.175781 16-16-7.175781-16-16-16c-17.648438 0-32-14.351562-32-32s14.351562-32 32-32 32 14.351562 32 32h-16c0-8.824219-7.175781-16-16-16s-16 7.175781-16 16 7.175781 16 16 16c17.648438 0 32 14.351562 32 32s-14.351562 32-32 32zm96 0h-48v-112h48v16h-32v32h32v16h-32v32h32zm48-112c-17.648438 0-32 14.351562-32 32v48c0 17.648438 14.351562 32 32 32s32-14.351562 32-32v-48c0-17.648438-14.351562-32-32-32zm16 80c0 8.824219-7.175781 16-16 16s-16-7.175781-16-16v-48c0-8.824219 7.175781-16 16-16s16 7.175781 16 16zm158.464844-215.566406c-7.296875-37.175782-39.914063-64.433594-78.464844-64.433594-10.855469 0-21.550781 2.273438-31.449219 6.503906-12.703125-27.40625-40.40625-46.503906-72.550781-46.503906-44.113281 0-80 35.886719-80 80 0 5.414062.609375 10.761719 1.671875 16h-15.296875l-7.085938 19.71875c-23.257812 4.695312-45.007812 13.714844-64.800781 26.839844l-18.960937-8.925782-41.894532 41.886719 8.933594 18.96875c-13.132812 19.800781-22.152344 41.542969-26.847656 64.792969l-19.71875 7.09375v59.25l19.71875 7.09375c4.695312 23.242188 13.714844 44.992188 26.847656 64.792969l-8.933594 18.96875 41.894532 41.886719 18.960937-8.925782c19.792969 13.132813 41.542969 22.152344 64.800781 26.839844l7.085938 19.71875h59.25l7.085938-19.71875c23.257812-4.695312 45.007812-13.714844 64.800781-26.839844l18.960937 8.925782 41.894532-41.886719-8.933594-18.96875c13.132812-19.800781 22.152344-41.542969 26.847656-64.792969l19.71875-7.09375v-59.25l-19.71875-7.09375c-3.058594-15.128906-8.128906-29.546875-14.792969-43.28125h74.511719c30.878906 0 56-25.128906 56-56 0-28.566406-21.503906-52.207031-49.535156-55.566406zm-62.464844 173.191406v36.75l-17.808594 6.402344-.808594 4.566406c-4.253906 24.191406-13.574218 46.679688-27.695312 66.847656l-2.664062 3.800782 8.066406 17.128906-25.992188 25.984375-17.097656-8.066407-3.800781 2.65625c-20.160157 14.121094-42.65625 23.441407-66.847657 27.703126l-4.566406.808593-6.410156 17.792969h-36.75l-6.402344-17.800781-4.566406-.808594c-24.199219-4.261719-46.6875-13.582031-66.847656-27.703125l-3.808594-2.648438-17.121094 8.066407-25.984375-25.984375 8.066407-17.128906-2.664063-3.800782c-14.121094-20.167968-23.441406-42.65625-27.695313-66.847656l-.808593-4.566406-17.792969-6.402344v-36.75l17.808594-6.402344.808594-4.566406c4.253906-24.191406 13.574218-46.679688 27.695312-66.847656l2.664062-3.800782-8.082031-17.128906 25.992188-25.984375 17.121093 8.066407 3.800782-2.65625c20.160156-14.121094 42.65625-23.441407 66.847656-27.703126l4.566406-.808593 6.402344-17.800781h36.75l6.402344 17.800781 4.566406.808593c24.199219 4.261719 46.6875 13.582032 66.847656 27.703126l3.808594 2.65625 17.121094-8.066407 25.992187 25.984375-8.066406 17.128906 2.664063 3.800782c14.121093 20.167968 23.441406 42.65625 27.695312 66.847656l.808594 4.566406zm56-77.625h-83.28125c-1.117188-1.824219-2.09375-3.710938-3.285156-5.503906l8.933594-18.96875-41.894532-41.886719-18.960937 8.925781c-19.792969-13.132812-41.542969-22.152344-64.800781-26.839844l-7.085938-19.726562h-27.609375c-1.335937-5.199219-2.015625-10.558594-2.015625-16 0-35.289062 28.710938-64 64-64s64 28.710938 64 64h16c0-6.304688-.808594-12.40625-2.191406-18.296875 8.191406-3.679687 17.113281-5.703125 26.191406-5.703125 32.664062 0 60 24.464844 63.585938 56.894531l1.246093 7.105469h7.167969c22.054688 0 40 17.945312 40 40s-17.945312 40-40 40zm-176-168v16c-17.648438 0-32 14.351562-32 32h-16c0-26.472656 21.527344-48 48-48zm152 88h-16c0-17.648438-14.351562-32-32-32v-16c26.472656 0 48 21.527344 48 48zm0 0" fill="url(#linear0)"/></svg>