<svg id="Layer_1" data-name="Layer 1" xmlns="http://www.w3.org/2000/svg" viewBox="0 0 2500 2500"><title>Design 3</title><polygon points="906.27 997.9 906.27 1131.01 759.9 999.7 759.9 1400.95 660.83 1400.95 660.83 910.82 651.41 902.37 583.82 866.19 759.43 866.19 759.9 866.6 906.27 997.9"/><polygon points="759.9 1665.62 809.81 1761.81 610.93 1761.81 660.83 1665.62 660.83 1535.46 759.9 1535.46 759.9 1665.62"/><polygon points="1676.86 1665.62 1626.96 1761.81 1825.83 1761.81 1775.94 1665.62 1775.94 1535.46 1676.86 1535.46 1676.86 1665.62"/><polygon points="1530.49 997.9 1530.49 1131.01 1676.86 999.7 1676.86 1400.95 1775.94 1400.95 1775.94 910.82 1785.35 902.37 1852.95 866.19 1677.33 866.19 1676.86 866.6 1530.49 997.9"/><path d="M1376.33,1269.3l-80.11,71.86c-9.63,8.64-3.51,24.6,9.43,24.6h0v18.81H1131.12v-18.81h0c12.94,0,19.05-16,9.42-24.6l-80.1-71.86V1136.2l157.94,141.69,157.95-141.69Z"/><text transform="translate(557.43 1513.61)" style="font-size:127.68842315673828px;font-family:BebasNeue-Regular, Bebas Neue;letter-spacing:0.4499975114088312em">MODERNA MEDIA</text><line x1="1676.86" y1="866.19" x2="1676.86" y2="866.6"/><line x1="1677.33" y1="866.19" x2="1676.86" y2="866.19"/><polygon points="1390.49 1749.51 1326.86 1838.09 1579.95 1838.09 1516.33 1749.51 1516.33 1535.46 1390.49 1535.46 1390.49 1749.51"/><polygon points="1046.28 1749.51 1109.9 1838.09 856.81 1838.09 920.44 1749.51 920.44 1535.46 1046.28 1535.46 1046.28 1749.51"/><polygon points="1516.33 680.49 1516.33 1400.95 1390.49 1400.95 1390.49 933.51 1218.38 1063.75 1046.28 933.51 1046.28 1400.95 920.44 1400.95 920.44 680.49 1046.28 775.72 1218.38 905.97 1390.49 775.72 1516.33 680.49"/><polygon points="1468.59 661.91 1437.5 687.93 999.26 687.93 968.17 661.91 1468.59 661.91"/></svg>