<svg xmlns="http://www.w3.org/2000/svg" width="772.91" height="462.763" viewBox="0 0 772.91 462.763">
  <g id="Group_4537" data-name="Group 4537" transform="translate(-153.545 -67.757)">
    <path id="Path_11350" data-name="Path 11350" d="M780.2,948.662v83.35L691.055,949.79v251.249H630.72v-306.9l-5.737-5.291L583.82,866.19H690.768l.287.257Z" transform="translate(-430.275 -670.519)" fill="#fff"/>
    <path id="Path_11353" data-name="Path 11353" d="M1530.491,948.662v83.35l89.14-82.222v251.249h60.341v-306.9l5.731-5.291,41.168-22.655H1619.916l-.286.257Z" transform="translate(-800.416 -670.519)" fill="#fff"/>
    <path id="Path_11354" data-name="Path 11354" d="M1252.821,1219.545l-48.788,45c-5.864,5.41-2.138,15.4,5.743,15.4h0v11.779h-106.29v-11.779h0c7.88,0,11.6-10.018,5.737-15.4l-48.781-45V1136.2l96.187,88.721,96.193-88.721Z" transform="translate(-616.629 -771.458)" fill="#fff"/>
    <line id="Line_1" data-name="Line 1" y2="0.257" transform="translate(819.216 195.671)"/>
    <line id="Line_2" data-name="Line 2" x1="0.286" transform="translate(819.216 195.671)"/>
    <path id="Path_11357" data-name="Path 11357" d="M1283.342,680.49v451.129H1206.7v-292.7l-104.817,81.552L997.078,838.923v292.7H920.44V680.49l76.637,59.631,104.811,81.558L1206.7,740.121Z" transform="translate(-561.891 -601.099)" fill="#fff"/>
    <path id="Path_11358" data-name="Path 11358" d="M1272.931,661.91,1254,678.2H987.1L968.171,661.91Z" transform="translate(-580.553 -594.153)" fill="#fff"/>
  </g>
</svg>
