<svg xmlns="http://www.w3.org/2000/svg" width="772.91" height="462.763" xmlns:v="https://vecta.io/nano"><path d="M196.38 210.386v83.35l-89.145-82.222v251.249H46.9v-306.9l-5.737-5.291L0 127.914h106.948l.287.257zm380.15 0v83.35l89.14-82.222v251.249h60.341v-306.9l5.731-5.291 41.168-22.655H665.955l-.286.257zM482.647 380.33l-48.788 45c-5.864 5.41-2.138 15.4 5.743 15.4h0v11.779h-106.29V440.73h0c7.88 0 11.6-10.018 5.737-15.4l-48.781-45v-83.345l96.187 88.721 96.193-88.721z" fill="#fff"/><path d="M665.671 127.914v.257"/><path d="M665.957 127.914h-.286"/><path d="M567.906 11.634v451.129h-76.642v-292.7l-104.817 81.552-104.805-81.548v292.7h-76.638V11.634l76.637 59.631 104.811 81.558 104.812-81.558zM538.833 0l-18.931 16.29h-266.9L234.073 0z" fill="#fff"/></svg>