<svg id="Design_3-02" data-name="Design 3-02" xmlns="http://www.w3.org/2000/svg" width="772.91" height="736.485" viewBox="0 0 772.91 736.485">
  <path id="Path_11350" data-name="Path 11350" d="M780.2,948.662v83.35L691.055,949.79v251.249H630.72v-306.9l-5.737-5.291L583.82,866.19H690.768l.287.257Z" transform="translate(-583.82 -738.277)" fill="#eee"/>
  <path id="Path_11351" data-name="Path 11351" d="M701.654,1616.962l30.4,60.231H610.93l30.39-60.231v-81.5h60.334Z" transform="translate(-594.42 -988.472)" fill="#eee"/>
  <path id="Path_11352" data-name="Path 11352" d="M1657.35,1616.962l-30.39,60.231h121.114l-30.384-60.231v-81.5h-60.34Z" transform="translate(-991.679 -988.472)" fill="#eee"/>
  <path id="Path_11353" data-name="Path 11353" d="M1530.491,948.662v83.35l89.14-82.222v251.249h60.341v-306.9l5.731-5.291,41.168-22.655H1619.916l-.286.257Z" transform="translate(-953.96 -738.277)" fill="#eee"/>
  <path id="Path_11354" data-name="Path 11354" d="M1252.821,1219.545l-48.788,45c-5.864,5.41-2.138,15.4,5.743,15.4h0v11.779h-106.29v-11.779h0c7.88,0,11.6-10.018,5.737-15.4l-48.781-45V1136.2l96.187,88.721,96.193-88.721Z" transform="translate(-770.174 -839.216)" fill="#eee"/>
  <text id="MODERNA_MEDIA" data-name="MODERNA MEDIA" transform="translate(47.455 526.243)" fill="#eee" font-size="66" font-family="BebasNeue-Regular, Bebas Neue" letter-spacing="0.44em"><tspan x="0" y="0">MODERNA MEDIA</tspan></text>
  <line id="Line_1" data-name="Line 1" y2="0.257" transform="translate(665.671 127.913)"/>
  <line id="Line_2" data-name="Line 2" x1="0.286" transform="translate(665.671 127.913)"/>
  <path id="Path_11355" data-name="Path 11355" d="M1365.612,1669.491l-38.753,55.466h154.134l-38.744-55.466V1535.46h-76.638Z" transform="translate(-874.342 -988.472)" fill="#eee"/>
  <path id="Path_11356" data-name="Path 11356" d="M972.2,1669.491l38.745,55.466H856.81l38.751-55.466V1535.46H972.2Z" transform="translate(-690.557 -988.472)" fill="#eee"/>
  <path id="Path_11357" data-name="Path 11357" d="M1283.342,680.49v451.129H1206.7v-292.7l-104.817,81.552L997.078,838.923v292.7H920.44V680.49l76.637,59.631,104.811,81.558L1206.7,740.121Z" transform="translate(-715.436 -668.856)" fill="#eee"/>
  <path id="Path_11358" data-name="Path 11358" d="M1272.931,661.91,1254,678.2H987.1L968.171,661.91Z" transform="translate(-734.098 -661.91)" fill="#eee"/>
</svg>
