<svg height="512" viewBox="0 0 64 64" width="512" xmlns="http://www.w3.org/2000/svg" xmlns:xlink="http://www.w3.org/1999/xlink"><linearGradient id="linear-gradient" gradientUnits="userSpaceOnUse" x1="26" x2="38" y1="25" y2="25"><stop offset="0" stop-color="#0c408d"/><stop offset="1" stop-color="#015bbb"/></linearGradient><linearGradient id="linear-gradient-2" gradientUnits="userSpaceOnUse" x1="26" x2="38" y1="9" y2="9"><stop offset="0" stop-color="#015bbb"/><stop offset="1" stop-color="#02aff8"/></linearGradient><linearGradient id="linear-gradient-3" x1="26" x2="38" xlink:href="#linear-gradient-2" y1="55" y2="55"/><linearGradient id="linear-gradient-4" x1="3" x2="15" xlink:href="#linear-gradient-2" y1="32" y2="32"/><linearGradient id="linear-gradient-5" x1="49" x2="61" xlink:href="#linear-gradient-2" y1="32" y2="32"/><linearGradient id="linear-gradient-6" x1="42" x2="54" xlink:href="#linear-gradient-2" y1="16" y2="16"/><linearGradient id="linear-gradient-7" x1="10" x2="22" xlink:href="#linear-gradient-2" y1="16" y2="16"/><linearGradient id="linear-gradient-8" x1="11" x2="23" xlink:href="#linear-gradient-2" y1="47" y2="47"/><linearGradient id="linear-gradient-9" x1="42" x2="54" xlink:href="#linear-gradient-2" y1="48" y2="48"/><linearGradient id="linear-gradient-10" gradientUnits="userSpaceOnUse" x1="23" x2="41" y1="35" y2="35"><stop offset="0" stop-color="#02aff8"/><stop offset="1" stop-color="#02dbf8"/></linearGradient><g id="GDPR"><path d="m37 30h-10a1 1 0 0 1 -1-1v-3a6 6 0 0 1 12 0v3a1 1 0 0 1 -1 1zm-9-2h8v-2a4 4 0 0 0 -8 0z" fill="url(#linear-gradient)"/><path d="m37.15 6.83-2.93-.45-1.31-2.8a1 1 0 0 0 -1.82 0l-1.31 2.8-2.93.45a1 1 0 0 0 -.8.67 1 1 0 0 0 .23 1l2.15 2.2-.51 3.12a1 1 0 0 0 1.47 1l2.61-1.39 2.61 1.45a1 1 0 0 0 .48.12 1 1 0 0 0 .58-.18 1 1 0 0 0 .41-1l-.51-3.12 2.15-2.2a1 1 0 0 0 .23-1 1 1 0 0 0 -.8-.67z" fill="url(#linear-gradient-2)"/><path d="m37.15 52.83-2.93-.45-1.31-2.8a1 1 0 0 0 -1.82 0l-1.31 2.8-2.93.45a1 1 0 0 0 -.8.67 1 1 0 0 0 .23 1l2.15 2.2-.51 3.12a1 1 0 0 0 1.47 1l2.61-1.39 2.61 1.45a1 1 0 0 0 .48.12 1 1 0 0 0 .58-.18 1 1 0 0 0 .41-1l-.51-3.12 2.15-2.2a1 1 0 0 0 .23-1 1 1 0 0 0 -.8-.67z" fill="url(#linear-gradient-3)"/><path d="m12.09 38a1 1 0 0 0 .58-.18 1 1 0 0 0 .41-1l-.51-3.12 2.15-2.2a1 1 0 0 0 .23-1 1 1 0 0 0 -.8-.67l-2.93-.45-1.31-2.8a1 1 0 0 0 -1.82 0l-1.31 2.8-2.93.45a1 1 0 0 0 -.8.67 1 1 0 0 0 .23 1l2.15 2.2-.51 3.12a1 1 0 0 0 1.47 1l2.61-1.39 2.61 1.45a1 1 0 0 0 .48.12z" fill="url(#linear-gradient-4)"/><path d="m61 30.5a1 1 0 0 0 -.8-.67l-2.93-.45-1.31-2.8a1 1 0 0 0 -1.82 0l-1.31 2.8-2.93.45a1 1 0 0 0 -.8.67 1 1 0 0 0 .23 1l2.15 2.2-.51 3.12a1 1 0 0 0 1.47 1l2.56-1.39 2.61 1.45a1 1 0 0 0 .48.12 1 1 0 0 0 .58-.18 1 1 0 0 0 .41-1l-.51-3.12 2.15-2.2a1 1 0 0 0 .28-1z" fill="url(#linear-gradient-5)"/><path d="m44.43 17.72-.51 3.12a1 1 0 0 0 1.47 1l2.61-1.41 2.61 1.45a1 1 0 0 0 .48.12 1 1 0 0 0 .58-.18 1 1 0 0 0 .41-1l-.51-3.12 2.15-2.2a1 1 0 0 0 .23-1 1 1 0 0 0 -.8-.67l-2.93-.45-1.31-2.8a1 1 0 0 0 -1.82 0l-1.31 2.8-2.93.45a1 1 0 0 0 -.8.67 1 1 0 0 0 .23 1z" fill="url(#linear-gradient-6)"/><path d="m12.43 17.72-.51 3.12a1 1 0 0 0 1.47 1l2.61-1.41 2.61 1.45a1 1 0 0 0 .48.12 1 1 0 0 0 .58-.18 1 1 0 0 0 .41-1l-.51-3.12 2.15-2.2a1 1 0 0 0 .23-1 1 1 0 0 0 -.8-.67l-2.93-.45-1.31-2.8a1 1 0 0 0 -1.82 0l-1.31 2.8-2.93.45a1 1 0 0 0 -.8.67 1 1 0 0 0 .23 1z" fill="url(#linear-gradient-7)"/><path d="m22.15 44.83-2.93-.45-1.31-2.8a1 1 0 0 0 -1.82 0l-1.31 2.8-2.93.45a1 1 0 0 0 -.8.67 1 1 0 0 0 .23 1l2.15 2.2-.51 3.12a1 1 0 0 0 1.47 1l2.61-1.39 2.61 1.45a1 1 0 0 0 .48.12 1 1 0 0 0 .58-.18 1 1 0 0 0 .41-1l-.51-3.12 2.15-2.2a1 1 0 0 0 .23-1 1 1 0 0 0 -.8-.67z" fill="url(#linear-gradient-8)"/><path d="m53.15 45.83-2.93-.45-1.31-2.8a1 1 0 0 0 -1.82 0l-1.31 2.8-2.93.45a1 1 0 0 0 -.8.67 1 1 0 0 0 .23 1l2.15 2.2-.51 3.12a1 1 0 0 0 1.47 1l2.61-1.39 2.61 1.45a1 1 0 0 0 .48.12 1 1 0 0 0 .58-.18 1 1 0 0 0 .41-1l-.51-3.12 2.15-2.2a1 1 0 0 0 .23-1 1 1 0 0 0 -.8-.67z" fill="url(#linear-gradient-9)"/><rect fill="url(#linear-gradient-10)" height="14" rx="3" width="18" x="23" y="28"/><path d="m31 38a1 1 0 0 1 -.71-.29l-2-2a1 1 0 0 1 1.42-1.42l1.29 1.3 3.29-3.3a1 1 0 0 1 1.42 1.42l-4 4a1 1 0 0 1 -.71.29z" fill="#fff"/></g></svg>