<svg height="512" viewBox="0 0 64 64" width="512" xmlns="http://www.w3.org/2000/svg" xmlns:xlink="http://www.w3.org/1999/xlink"><linearGradient id="New_Gradient_Swatch_3" gradientUnits="userSpaceOnUse" x1="32" x2="32" y1="61.783" y2="4.039"><stop offset="0" stop-color="#006df0"/><stop offset="1" stop-color="#00e7f0"/></linearGradient><linearGradient id="New_Gradient_Swatch_3-2" x1="23" x2="23" xlink:href="#New_Gradient_Swatch_3" y1="61.783" y2="4.039"/><linearGradient id="New_Gradient_Swatch_3-3" x1="15.5" x2="15.5" xlink:href="#New_Gradient_Swatch_3" y1="61.783" y2="4.039"/><linearGradient id="New_Gradient_Swatch_3-4" x1="18" x2="18" xlink:href="#New_Gradient_Swatch_3" y1="61.783" y2="4.039"/><g id="Layer_50" data-name="Layer 50"><path d="m63 21v-4a1.006 1.006 0 0 0 -.08-.39l-5.48-12.79a2.991 2.991 0 0 0 -2.76-1.82h-45.36a2.991 2.991 0 0 0 -2.76 1.82l-5.48 12.79a1.006 1.006 0 0 0 -.08.39v4a7.01 7.01 0 0 0 3 5.74v27.26h-1a1 1 0 0 0 -1 1v6a1 1 0 0 0 1 1h58a1 1 0 0 0 1-1v-6a1 1 0 0 0 -1-1h-1v-27.26a7.01 7.01 0 0 0 3-5.74zm-8.32-17a1 1 0 0 1 .92.61l4.88 11.39h-9.73l-3.42-12zm.32 26h-14a1 1 0 0 0 -1 1v23h-34v-26.29a7.268 7.268 0 0 0 2 .29 6.986 6.986 0 0 0 6-3.41 6.984 6.984 0 0 0 12 0 6.984 6.984 0 0 0 12 0 6.984 6.984 0 0 0 12 0 6.986 6.986 0 0 0 6 3.41 7.268 7.268 0 0 0 2-.29v26.29h-2v-23a1 1 0 0 0 -1-1zm-1 2v22h-12v-22zm-39-11v-3h10v3a5 5 0 0 1 -10 0zm24 0v-3h10v3a5 5 0 0 1 -10 0zm6.25-17 2.33 8.16 1.09 3.84h-9.8l-1.72-12zm-16.38 0h6.26l1.72 12h-9.7zm-1.87 14h10v3a5 5 0 0 1 -10 0zm-.15-14-1.72 12h-9.8l1.09-3.84 2.33-8.16zm-18.45.61a1 1 0 0 1 .92-.61h7.35l-3.42 12h-9.73zm-5.4 16.39v-3h10v3a5 5 0 0 1 -10 0zm57 39h-56v-4h56zm-4-34a5 5 0 0 1 -5-5v-3h10v3a5 5 0 0 1 -5 5z" fill="url(#New_Gradient_Swatch_3)"/><path d="m37 30h-28a1 1 0 0 0 -1 1v20a1 1 0 0 0 1 1h28a1 1 0 0 0 1-1v-20a1 1 0 0 0 -1-1zm-1 20h-26v-18h26z" fill="url(#New_Gradient_Swatch_3-2)"/><path d="m13 41a1 1 0 0 0 .707-.293l5-5a1 1 0 0 0 -1.414-1.414l-5 5a1 1 0 0 0 .707 1.707z" fill="url(#New_Gradient_Swatch_3-3)"/><path d="m13 46a1 1 0 0 0 .707-.293l10-10a1 1 0 0 0 -1.414-1.414l-10 10a1 1 0 0 0 .707 1.707z" fill="url(#New_Gradient_Swatch_3-4)"/></g></svg>