<svg height="511pt" viewBox="0 0 511 511.99991" width="511pt" xmlns="http://www.w3.org/2000/svg" xmlns:xlink="http://www.w3.org/1999/xlink"><linearGradient id="a"><stop offset="0" stop-color="#662d91"/><stop offset=".437" stop-color="#3873b3"/><stop offset="1" stop-color="#00c9dd"/></linearGradient><linearGradient id="b" gradientTransform="matrix(1.099711 0 0 -1.099711 .496656 504.196344)" gradientUnits="userSpaceOnUse" x1="36.8607" x2="464.4178" xlink:href="#a" y1="456.5351" y2="28.978"/><linearGradient id="c" gradientTransform="matrix(1.099711 0 0 -1.099711 .496656 504.196344)" gradientUnits="userSpaceOnUse" x1="21.3417" x2="448.8987" xlink:href="#a" y1="441.016" y2="13.459"/><linearGradient id="d" gradientTransform="matrix(1.099711 0 0 -1.099711 .496656 504.196344)" gradientUnits="userSpaceOnUse" x1="-1.9369" x2="425.6202" xlink:href="#a" y1="417.7375" y2="-9.8196"/><linearGradient id="e" gradientTransform="matrix(1.099711 0 0 -1.099711 .496656 504.196344)" gradientUnits="userSpaceOnUse" x1="-17.4559" x2="410.1012" xlink:href="#a" y1="402.2184" y2="-25.3386"/><linearGradient id="f" gradientTransform="matrix(1.099711 0 0 -1.099711 .496656 504.196344)" gradientUnits="userSpaceOnUse" x1="-93.1112" x2="334.4459" xlink:href="#a" y1="326.5632" y2="-100.9938"/><linearGradient id="g" gradientTransform="matrix(1.099711 0 0 -1.099711 .496656 504.196344)" gradientUnits="userSpaceOnUse" x1="43.6509" x2="471.208" xlink:href="#a" y1="463.3253" y2="35.7683"/><linearGradient id="h" gradientTransform="matrix(1.099711 0 0 -1.099711 .496656 504.196344)" gradientUnits="userSpaceOnUse" x1="-149.3677" x2="278.1894" xlink:href="#a" y1="270.3067" y2="-157.2503"/><linearGradient id="i" gradientTransform="matrix(1.099711 0 0 -1.099711 .496656 504.196344)" gradientUnits="userSpaceOnUse" x1="-100.8707" x2="326.6864" xlink:href="#a" y1="318.8036" y2="-108.7534"/><linearGradient id="j" gradientTransform="matrix(1.099711 0 0 -1.099711 .496656 504.196344)" gradientUnits="userSpaceOnUse" x1="-48.494" x2="379.0631" xlink:href="#a" y1="371.1804" y2="-56.3766"/><linearGradient id="k" gradientTransform="matrix(1.099711 0 0 -1.099711 .496656 504.196344)" gradientUnits="userSpaceOnUse" x1="7.7625" x2="435.3196" xlink:href="#a" y1="427.4369" y2="-.1202"/><linearGradient id="l" gradientTransform="matrix(1.099711 0 0 -1.099711 .496656 504.196344)" gradientUnits="userSpaceOnUse" x1="77.5982" x2="505.1552" xlink:href="#a" y1="497.2725" y2="69.7155"/><path d="m43.167969 51.207031h110.929687v17.066407h-110.929687zm0 0" fill="url(#b)"/><path d="m43.167969 85.339844h110.929687v17.066406h-110.929687zm0 0" fill="url(#c)"/><path d="m43.167969 119.472656h76.796875v17.066406h-76.796875zm0 0" fill="url(#d)"/><path d="m43.167969 153.605469h76.796875v17.066406h-76.796875zm0 0" fill="url(#e)"/><path d="m.5 494.933594h511.992188v17.066406h-511.992188zm0 0" fill="url(#f)"/><path d="m440.378906 69.757812 13.773438-39.355468 25.101562 50.21875c2.109375 4.214844 7.234375 5.929687 11.453125 3.820312 4.21875-2.105468 5.929688-7.234375 3.824219-11.449218l-34.132812-68.265626c-2.105469-4.21875-7.230469-5.929687-11.445313-3.828124-.003906.003906-.003906.003906-.007813.003906l-68.265624 34.132812c-4.214844 2.109375-5.929688 7.234375-3.820313 11.453125 2.105469 4.214844 7.234375 5.929688 11.449219 3.820313l49.441406-24.703125-13.488281 38.519531c-59.300781 168.878906-212.035157 287.359375-390.355469 302.808594l1.453125 17.066406c185.039063-16.027344 343.519531-138.988281 405.019531-314.242188zm0 0" fill="url(#g)"/><path d="m43.167969 409.601562c-4.714844 0-8.535157 3.820313-8.535157 8.535157v51.199219c0 4.710937 3.820313 8.53125 8.535157 8.53125h59.730469c4.714843 0 8.535156-3.820313 8.535156-8.53125v-51.199219c0-4.714844-3.820313-8.535157-8.535156-8.535157zm51.199219 51.199219h-42.667969v-34.132812h42.667969zm0 0" fill="url(#h)"/><path d="m137.03125 384c-4.710938 0-8.535156 3.820312-8.535156 8.535156v76.800782c0 4.710937 3.820312 8.53125 8.535156 8.53125h59.734375c4.710937 0 8.53125-3.820313 8.53125-8.53125v-76.800782c0-4.710937-3.820313-8.535156-8.53125-8.535156zm51.199219 76.800781h-42.667969v-59.734375h42.667969zm0 0" fill="url(#i)"/><path d="m230.898438 341.335938c-4.714844 0-8.535157 3.820312-8.535157 8.535156v119.464844c0 4.710937 3.820313 8.53125 8.535157 8.53125h59.730468c4.714844 0 8.535156-3.820313 8.535156-8.53125v-119.46875c0-4.710938-3.820312-8.53125-8.535156-8.53125zm51.199218 119.464843h-42.667968v-102.398437h42.667968zm0 0" fill="url(#j)"/><path d="m324.761719 281.601562c-4.710938 0-8.53125 3.820313-8.53125 8.535157v179.195312c0 4.714844 3.820312 8.535157 8.53125 8.535157h59.734375c4.710937 0 8.535156-3.820313 8.535156-8.535157v-179.195312c0-4.710938-3.820312-8.53125-8.535156-8.53125h-59.734375zm51.199219 179.199219h-42.664063v-162.132812h42.664063zm0 0" fill="url(#k)"/><path d="m418.628906 162.136719c-4.714844 0-8.535156 3.820312-8.535156 8.535156v298.664063c0 4.710937 3.820312 8.53125 8.535156 8.53125h59.730469c4.714844 0 8.535156-3.820313 8.535156-8.53125v-298.664063c0-4.714844-3.820312-8.535156-8.535156-8.535156zm51.199219 298.664062h-42.667969v-281.597656h42.667969zm0 0" fill="url(#l)"/></svg>