<svg height="512" viewBox="0 0 64 64" width="512" xmlns="http://www.w3.org/2000/svg" xmlns:xlink="http://www.w3.org/1999/xlink"><linearGradient id="linear-gradient" gradientTransform="matrix(.894 .447 -.447 .894 7.49 -23.727)" gradientUnits="userSpaceOnUse" x1="54" x2="54" y1="-.173" y2="71.888"><stop offset="0" stop-color="#38d6a4"/><stop offset=".197" stop-color="#36ccb0"/><stop offset=".552" stop-color="#30b3cf"/><stop offset=".999" stop-color="#288cff"/></linearGradient><linearGradient id="linear-gradient-2" gradientTransform="matrix(.447 .894 -.894 .447 45.95 -38.349)" x2="54" xlink:href="#linear-gradient" y1="-.173" y2="71.888"/><linearGradient id="linear-gradient-3" x1="52" x2="52" xlink:href="#linear-gradient" y1="-.173" y2="71.888"/><linearGradient id="linear-gradient-4" gradientTransform="matrix(.894 .447 -.447 .894 9.106 -2.572)" x1="10" x2="10" xlink:href="#linear-gradient" y1="-.173" y2="71.888"/><linearGradient id="linear-gradient-5" gradientTransform="matrix(.447 .894 -.894 .447 9.106 -6.733)" x1="10" x2="10" xlink:href="#linear-gradient" y1="-.173" y2="71.888"/><linearGradient id="linear-gradient-6" x1="12" x2="12" xlink:href="#linear-gradient" y1="-.173" y2="71.888"/><linearGradient id="linear-gradient-7" x1="32" x2="32" xlink:href="#linear-gradient" y1="-.173" y2="71.888"/><g id="_26-lighthouse" data-name="26-lighthouse"><path d="m47.292 3h13.416v2h-13.416z" fill="url(#linear-gradient)" transform="matrix(.894 -.447 .447 .894 3.912 24.572)"/><path d="m53 11.292h2v13.416h-2z" fill="url(#linear-gradient-2)" transform="matrix(.447 -.894 .894 .447 13.751 58.249)"/><path d="m48 10h8v2h-8z" fill="url(#linear-gradient-3)"/><path d="m3.292 17h13.416v2h-13.416z" fill="url(#linear-gradient-4)" transform="matrix(.894 -.447 .447 .894 -6.994 6.372)"/><path d="m9-2.708h2v13.416h-2z" fill="url(#linear-gradient-5)" transform="matrix(.447 -.894 .894 .447 1.95 11.155)"/><path d="m8 10h8v2h-8z" fill="url(#linear-gradient-6)"/><g fill="url(#linear-gradient-7)"><path d="m64 56v-2h-19.04l-3.837-33h.877a3 3 0 0 0 0-6v-5a1 1 0 0 0 -1-1h-.279l-1.191-3.573a7.937 7.937 0 0 0 -15.06 0l-1.191 3.573h-.279a1 1 0 0 0 -1 1v5a3 3 0 0 0 0 6h.877l-3.837 33h-19.04v2h3v6h-3v2h64v-2h-3v-6zm-11 0v6h-4v-6zm-6 0v6h-1.11l-.7-6zm-15-6a6.006 6.006 0 0 0 -6 6h-5.179l.93-8h20.5l.93 8h-5.181a6.006 6.006 0 0 0 -6-6zm-7.923-22h15.846l.931 8h-17.708zm17.009 10 .93 8h-20.032l.93-8zm-13.086-27v4h-1v-4zm2 0h1v4h-1zm3 0h1v4h-1zm3 0h1v4h-1zm3 0h1v4h-1zm-12.632-4.94a5.936 5.936 0 0 1 11.264 0l.981 2.94h-13.226zm-2.368 4.94h1v4h-1zm-3 7a1 1 0 0 1 1-1h20a1 1 0 0 1 0 2h-20a1 1 0 0 1 -1-1zm18.109 3 .582 5h-15.382l.582-5zm-22.109 35h1.807l-.7 6h-1.107zm-2 6h-4v-6h4zm-10-6h4v6h-4zm15.588 2h5.412v4h-5.877zm7.412 4v-6a4 4 0 0 1 8 0v6zm10 0v-4h5.412l.465 4zm21 0h-4v-6h4z"/><path d="m31 23h2v2h-2z"/><path d="m31 33h2v2h-2z"/><path d="m31 43h2v2h-2z"/></g></g></svg>