<svg id="Layer_1" enable-background="new 0 0 450 450" height="512" viewBox="0 0 450 450" width="512" xmlns="http://www.w3.org/2000/svg" xmlns:xlink="http://www.w3.org/1999/xlink"><linearGradient id="SVGID_1_" gradientTransform="matrix(1 0 0 -1 0 452)" gradientUnits="userSpaceOnUse" x1="18.766" x2="430.716" y1="432.766" y2="20.816"><stop offset="0" stop-color="#00dbde"/><stop offset="1" stop-color="#fc00ff"/></linearGradient><path d="m439.8 30.4h-430.1c-2.8 0-5 2.2-5 5v379.6c0 2.8 2.2 5 5 5h430.1c2.8 0 5-2.2 5-5v-379.6c0-2.7-2.2-5-5-5zm-5 10v63.4h-420.1v-63.4zm-420.1 369.6v-296.1h420.1v296.1zm352.2-319.9h23.4c6.7 0 12.2-5.5 12.2-12.2v-11.4c0-6.7-5.5-12.2-12.2-12.2h-23.4c-6.7 0-12.2 5.5-12.2 12.2v11.4c0 6.7 5.5 12.2 12.2 12.2zm-2.2-23.6c0-1.2 1-2.2 2.2-2.2h23.4c1.2 0 2.2 1 2.2 2.2v11.4c0 1.2-1 2.2-2.2 2.2h-23.4c-1.2 0-2.2-1-2.2-2.2zm-65 23.6h23.4c6.7 0 12.2-5.5 12.2-12.2v-11.4c0-6.7-5.5-12.2-12.2-12.2h-23.4c-6.7 0-12.2 5.5-12.2 12.2v11.4c0 6.7 5.5 12.2 12.2 12.2zm-2.2-23.6c0-1.2 1-2.2 2.2-2.2h23.4c1.2 0 2.2 1 2.2 2.2v11.4c0 1.2-1 2.2-2.2 2.2h-23.4c-1.2 0-2.2-1-2.2-2.2zm-65 23.6h23.4c6.7 0 12.2-5.5 12.2-12.2v-11.4c0-6.7-5.5-12.2-12.2-12.2h-23.4c-6.7 0-12.2 5.5-12.2 12.2v11.4c0 6.7 5.5 12.2 12.2 12.2zm-2.2-23.6c0-1.2 1-2.2 2.2-2.2h23.4c1.2 0 2.2 1 2.2 2.2v11.4c0 1.2-1 2.2-2.2 2.2h-23.4c-1.2 0-2.2-1-2.2-2.2zm-5.5 156.8c-61 0-110.6 49.6-110.6 110.6 0 20.2 5.5 39.9 15.9 57.1.9 1.5 2.5 2.4 4.3 2.4h180.9c1.8 0 3.4-.9 4.3-2.4 10.4-17.2 15.9-36.9 15.9-57.1-.2-61-49.8-110.6-110.7-110.6zm-65.6 154.3 13.4-7.8c2.4-1.4 3.2-4.4 1.8-6.8s-4.4-3.2-6.8-1.8l-13.4 7.8c-4.6-9.3-7.4-19.5-8-30h15.5c2.8 0 5-2.2 5-5s-2.2-5-5-5h-15.5c.7-10.7 3.5-20.8 8-30l13.4 7.8c.8.5 1.6.7 2.5.7 1.7 0 3.4-.9 4.3-2.5 1.4-2.4.6-5.4-1.8-6.8l-13.4-7.8c5.8-8.7 13.3-16.1 21.9-21.9l7.8 13.4c.9 1.6 2.6 2.5 4.3 2.5.8 0 1.7-.2 2.5-.7 2.4-1.4 3.2-4.4 1.8-6.8l-7.8-13.4c9.1-4.5 19.3-7.4 30-8v15.5c0 2.8 2.2 5 5 5s5-2.2 5-5v-15.5c10.7.7 20.8 3.5 30 8l-7.8 13.4c-1.4 2.4-.6 5.4 1.8 6.8.8.5 1.6.7 2.5.7 1.7 0 3.4-.9 4.3-2.5l7.8-13.4c8.7 5.8 16.1 13.3 21.9 21.9l-13.4 7.8c-2.4 1.4-3.2 4.4-1.8 6.8.9 1.6 2.6 2.5 4.3 2.5.8 0 1.7-.2 2.5-.7l13.4-7.8c4.5 9.1 7.4 19.3 8 30h-15.5c-2.8 0-5 2.2-5 5s2.2 5 5 5h15.5c-.7 10.5-3.4 20.7-8 30l-13.4-7.8c-2.4-1.4-5.5-.6-6.8 1.8-1.4 2.4-.6 5.4 1.8 6.8l13.4 7.8c-1.3 2-2.8 4-4.3 5.9h-29.3c-.8-6.9-3.9-13.3-8.8-18.4-4-4.2-9-7.1-14.4-8.6l-25.4-48.8c-1.1-2.1-3.5-3.1-5.7-2.5-2.3.6-3.8 2.7-3.7 5l2.4 55.3c-4.7 5-7.5 11.2-8.4 17.9h-29.3c-1.3-1.9-2.8-3.8-4.1-5.8zm50.5-45.4 12 23.1c-3.8.4-7.5 1.4-10.9 3zm-.9 39.8c4.2-4.4 9.9-6.8 16-6.8s11.8 2.4 16 6.8c3.1 3.2 5.1 7.2 5.9 11.5h-43.8c.7-4.4 2.8-8.3 5.9-11.5zm103.5 11.4h-13.9c1.1-1.6 2.2-3.3 3.1-5l.1-.1s0-.1.1-.1c7.7-13.4 11.8-28.6 11.8-44.3 0-16.1-4.3-31.2-11.8-44.2 0-.1 0-.1-.1-.2 0-.1-.1-.1-.1-.2-7.8-13.3-18.9-24.4-32.2-32.2-.1 0-.1-.1-.2-.1s-.1 0-.2-.1c-13-7.5-28.1-11.8-44.2-11.8-16.1 0-31.2 4.3-44.2 11.8-.1 0-.1 0-.2.1-.1 0-.1.1-.2.1-13.3 7.8-24.4 18.9-32.2 32.2 0 .1-.1.1-.1.2s0 .1-.1.2c-7.5 13-11.8 28.1-11.8 44.2 0 15.6 4.1 30.9 11.8 44.3 0 0 0 .1.1.1l.1.1c1 1.7 2 3.4 3.1 5h-13.9c-8.5-15-13-32.1-13-49.5 0-55.5 45.1-100.6 100.6-100.6s100.6 45.1 100.6 100.6c0 17.4-4.4 34.5-13 49.5zm88.7-205.9h-7.9c-.1-.2-.1-.3-.2-.5l5.6-5.6c2.4-2.4 3.8-5.7 3.8-9.1s-1.3-6.7-3.8-9.1l-7.3-7.3c-2.4-2.4-5.7-3.8-9.1-3.8-3.5 0-6.7 1.3-9.1 3.8l-5.6 5.6c-.2-.1-.3-.1-.5-.2v-7.9c0-7.1-5.8-12.9-12.9-12.9h-10.3c-7.1 0-12.9 5.8-12.9 12.9v7.9c-.2.1-.3.1-.5.2l-5.6-5.6c-2.4-2.4-5.7-3.8-9.1-3.8-3.5 0-6.7 1.3-9.1 3.8l-7.3 7.3c-2.4 2.4-3.8 5.7-3.8 9.1s1.3 6.7 3.8 9.1l5.6 5.6c-.1.2-.1.3-.2.5h-7.9c-7.1 0-12.9 5.8-12.9 12.9v10.3c0 7.1 5.8 12.9 12.9 12.9h7.9c.1.2.1.3.2.5l-5.6 5.6c-2.4 2.4-3.8 5.7-3.8 9.1s1.3 6.7 3.8 9.1l7.3 7.3c5 5 13.2 5 18.3 0l5.6-5.6c.2.1.3.1.5.2v7.9c0 7.1 5.8 12.9 12.9 12.9h10.2c7.1 0 12.9-5.8 12.9-12.9v-7.9c.2-.1.3-.1.5-.2l5.6 5.6c5 5 13.2 5 18.3 0l7.3-7.3c2.4-2.4 3.8-5.7 3.8-9.1 0-3.5-1.3-6.7-3.8-9.1l-5.6-5.6c.1-.2.1-.3.2-.5h7.9c7.1 0 12.9-5.8 12.9-12.9v-10.3c-.1-7.1-5.9-12.9-13-12.9zm2.9 23.2c0 1.6-1.3 2.9-2.9 2.9h-11.4c-2.2 0-4.1 1.4-4.8 3.5-.6 2-1.4 3.9-2.4 5.8s-.6 4.3.9 5.8l8.1 8.1c.5.5.8 1.3.8 2.1s-.3 1.5-.8 2.1l-7.3 7.3c-1.1 1.1-3 1.1-4.1 0l-8-8.3c-1.5-1.5-3.9-1.9-5.8-.9-1.8 1-3.8 1.8-5.8 2.4-2.1.7-3.5 2.6-3.5 4.8v11.4c0 1.6-1.3 2.9-2.9 2.9h-10.3c-1.6 0-2.9-1.3-2.9-2.9v-11.4c0-2.2-1.4-4.1-3.5-4.8-2-.6-3.9-1.4-5.8-2.4-.7-.4-1.5-.6-2.3-.6-1.3 0-2.6.5-3.5 1.5l-8.1 8.1c-1.1 1.1-3 1.1-4.1 0l-7.3-7.3c-.5-.5-.8-1.3-.8-2.1s.3-1.5.8-2.1l8.1-8.1c1.5-1.5 1.9-3.9.9-5.8-1-1.8-1.8-3.8-2.4-5.8-.7-2.1-2.6-3.5-4.8-3.5h-11.4c-1.6 0-2.9-1.3-2.9-2.9v-10.3c0-1.6 1.3-2.9 2.9-2.9h11.4c2.2 0 4.1-1.4 4.8-3.5.6-2 1.4-3.9 2.4-5.8s.6-4.3-.9-5.8l-8.1-8.1c-.5-.5-.8-1.3-.8-2.1s.3-1.5.8-2.1l7.3-7.3c1.1-1.1 3-1.1 4.1 0l8.1 8.1c1.5 1.5 3.9 1.9 5.8.9 1.8-1 3.8-1.8 5.8-2.4 2.1-.7 3.5-2.6 3.5-4.8v-11.4c0-1.6 1.3-2.9 2.9-2.9h10.3c1.6 0 2.9 1.3 2.9 2.9v11.4c0 2.2 1.4 4.1 3.5 4.8 2 .6 3.9 1.4 5.8 2.4s4.3.6 5.8-.9l8.1-8.1c1.1-1.1 3-1.1 4.1 0l7.3 7.3c.5.5.8 1.3.8 2.1s-.3 1.5-.8 2.1l-8.1 8.1c-1.5 1.5-1.9 3.9-.9 5.8 1 1.8 1.8 3.8 2.4 5.8.7 2.1 2.6 3.5 4.8 3.5h11.3c1.6 0 2.9 1.3 2.9 2.9zm-55-29.3c-13.3 0-24.2 10.8-24.2 24.2 0 13.3 10.8 24.1 24.2 24.1 13.3 0 24.2-10.8 24.1-24.1 0-13.4-10.8-24.2-24.1-24.2zm0 38.3c-7.8 0-14.2-6.3-14.2-14.2 0-7.8 6.3-14.2 14.2-14.2 7.8 0 14.1 6.3 14.1 14.2 0 7.8-6.3 14.2-14.1 14.2zm-224.4-14c10.1 0 18.3-8.2 18.3-18.3v-28.5c0-10.1-8.2-18.3-18.3-18.3h-70.6c-10.1 0-18.3 8.2-18.3 18.3v28.5c0 10.1 8.2 18.3 18.3 18.3zm-78.9-18.3v-28.5c0-4.6 3.7-8.3 8.3-8.3h70.5c4.6 0 8.3 3.7 8.3 8.3v28.5c0 4.6-3.7 8.3-8.3 8.3h-70.5c-4.6 0-8.3-3.7-8.3-8.3zm112.4-26.3c0-2.8 2.2-5 5-5h69.6c2.8 0 5 2.2 5 5s-2.2 5-5 5h-69.6c-2.8 0-5-2.2-5-5zm0 24c0-2.8 2.2-5 5-5h69.6c2.8 0 5 2.2 5 5s-2.2 5-5 5h-69.6c-2.8 0-5-2.2-5-5zm-26.2 38.3c2.8 0 5 2.2 5 5s-2.2 5-5 5h-85.2c-2.8 0-5-2.2-5-5s2.2-5 5-5zm0 34h-85.2c-2.8 0-5-2.2-5-5s2.2-5 5-5h85.2c2.8 0 5 2.2 5 5s-2.2 5-5 5z" fill="url(#SVGID_1_)"/></svg>