<svg height="512" viewBox="0 0 505.318 505.318" width="512" xmlns="http://www.w3.org/2000/svg" xmlns:xlink="http://www.w3.org/1999/xlink"><linearGradient id="New_Gradient_Swatch_4" gradientUnits="userSpaceOnUse" x1="255.997" x2="255.997" y1="508.656" y2="3.338"><stop offset="0" stop-color="#020088"/><stop offset=".261" stop-color="#1f49ae"/><stop offset=".521" stop-color="#3a8bd1"/><stop offset=".74" stop-color="#4ebbea"/><stop offset=".906" stop-color="#5ad9f9"/><stop offset="1" stop-color="#5ee4ff"/></linearGradient><g id="object"><path d="m503.53 478.782-136.451-136.452a.019.019 0 0 1 0-.027 204.341 204.341 0 0 0 48.265-122.717c5.872-122.229-91.393-220.617-213.68-216.098a206.121 206.121 0 0 0 -198.176 198.176c-4.518 122.288 93.871 219.553 216.1 213.677a204.347 204.347 0 0 0 122.712-48.264.021.021 0 0 1 .028 0l136.454 136.453a17.5 17.5 0 0 0 24.748-24.748zm-460.744-229.618c-13.433-59.964 4.114-119.144 45.675-160.704s100.739-59.108 160.705-45.674c56.734 12.714 114.258 70.233 126.973 126.961 13.441 59.971-4.108 119.157-45.671 160.721s-100.753 59.112-160.724 45.669c-56.728-12.716-114.244-70.244-126.958-126.973z" fill="url(#New_Gradient_Swatch_4)" transform="translate(-3.338 -3.338)"/></g></svg>