<svg clip-rule="evenodd" fill-rule="evenodd" height="512" image-rendering="optimizeQuality" shape-rendering="geometricPrecision" text-rendering="geometricPrecision" viewBox="0 0 1707 1707" width="512" xmlns="http://www.w3.org/2000/svg" xmlns:xlink="http://www.w3.org/1999/xlink"><linearGradient id="id0" gradientUnits="userSpaceOnUse" x1="853.331" x2="853.331" y1="17.539" y2="1689.12"><stop offset="0" stop-color="#66c"/><stop offset=".509804" stop-color="#f0f"/><stop offset="1" stop-color="#f60"/></linearGradient><g id="Layer_x0020_1"><path d="m1622 64h-28c-21 0-38 17-38 38v318c0 21 17 38 38 38h28c21 0 38-17 38-38v-318c0-21-17-38-38-38zm-804 1412c-13 0-23 10-23 23s10 23 23 23h425c12 0 23-10 23-23s-11-23-23-23zm0-107c-13 0-23 10-23 23s10 23 23 23h425c12 0 23-10 23-23s-11-23-23-23zm-198-1c43 0 78 35 78 77 0 43-35 78-78 78-21 0-40-9-54-23s-23-33-23-55c0-42 35-77 77-77zm22 56c-6-6-13-9-22-9-16 0-30 14-30 30 0 9 3 17 9 22 5 6 13 9 21 9 17 0 31-14 31-31 0-8-4-16-9-21zm-224-56c43 0 77 35 77 77 0 43-34 78-77 78-21 0-41-9-54-23-14-14-23-33-23-55 0-42 35-77 77-77zm22 56c-6-6-14-9-22-9-17 0-30 14-30 30 0 9 3 17 9 22 5 6 13 9 21 9 17 0 31-14 31-31 0-8-4-16-9-21zm-224-56c42 0 77 35 77 77 0 43-35 78-77 78-43 0-77-35-77-78 0-42 34-77 77-77zm0 47c-17 0-31 14-31 30 0 17 14 31 31 31s30-14 30-31c0-16-13-30-30-30zm-131-213h1235c46 0 84 38 84 85v317c0 47-38 85-84 85h-1235c-47 0-85-38-85-85v-317c0-47 38-85 85-85zm1235 47h-1235c-21 0-38 17-38 38v317c0 21 17 38 38 38h1235c21 0 38-17 38-38v-317c0-21-17-38-38-38zm-502-366c-13 0-23 11-23 24s10 23 23 23h425c12 0 23-10 23-23s-11-24-23-24zm0-106c-13 0-23 10-23 23s10 23 23 23h425c12 0 23-10 23-23s-11-23-23-23zm-198-1c43 0 78 35 78 77 0 43-35 77-78 77-21 0-40-8-54-22s-23-33-23-55c0-42 35-77 77-77zm0 47c-16 0-30 13-30 30 0 9 3 16 9 22 5 5 13 9 21 9 17 0 31-14 31-31s-14-30-31-30zm-202-47c43 0 77 35 77 77 0 43-34 77-77 77-21 0-41-8-54-22-14-14-23-33-23-55 0-42 35-77 77-77zm22 56c-6-6-14-9-22-9-17 0-30 13-30 30 0 9 3 16 9 22 5 5 13 9 21 9 17 0 31-14 31-31 0-8-4-16-9-21zm-224-56c42 0 77 35 77 77 0 43-35 77-77 77-43 0-77-34-77-77 0-42 34-77 77-77zm0 47c-17 0-31 13-31 30 0 9 4 16 9 22 6 5 13 9 22 9 8 0 16-4 21-9 6-6 9-13 9-22 0-17-13-30-30-30zm-131-213h1235c46 0 84 38 84 84v318c0 47-38 85-84 85h-1235c-47 0-85-38-85-85v-318c0-46 38-84 85-84zm1235 46h-1235c-21 0-38 18-38 38v318c0 21 17 38 38 38h1235c21 0 38-17 38-38v-318c0-20-17-38-38-38zm302 593h-28c-21 0-38 17-38 38v317c0 21 17 38 38 38h28c21 0 38-17 38-38v-317c0-21-17-38-38-38zm-28-47h28c47 0 85 38 85 85v317c0 47-38 85-85 85h-28c-47 0-85-38-85-85v-317c0-47 38-85 85-85zm28-546h-28c-21 0-38 18-38 39v317c0 21 17 38 38 38h28c21 0 38-17 38-38v-317c0-21-17-39-38-39zm-28-46h28c47 0 85 38 85 85v317c0 47-38 85-85 85h-28c-47 0-85-38-85-85v-317c0-47 38-85 85-85zm-776-319c-13 0-23 11-23 24s10 23 23 23h425c12 0 23-10 23-23s-11-24-23-24zm0-107c-13 0-23 11-23 24s10 23 23 23h425c12 0 23-10 23-23s-11-24-23-24zm-198 0c43 0 78 35 78 77 0 43-35 77-78 77-42 0-77-34-77-77 0-42 35-77 77-77zm0 47c-16 0-30 13-30 30s14 31 30 31c17 0 31-14 31-31s-14-30-31-30zm-202-47c43 0 77 35 77 77 0 43-34 77-77 77s-77-34-77-77c0-42 35-77 77-77zm0 47c-17 0-30 13-30 30s13 31 30 31 31-14 31-31-14-30-31-30zm-202-47c42 0 77 35 77 77 0 43-35 77-77 77-43 0-77-34-77-77 0-42 34-77 77-77zm0 47c-17 0-31 13-31 30s14 31 31 31 30-14 30-31-13-30-30-30zm-131-213h1235c46 0 84 38 84 84v318c0 47-38 85-84 85h-1235c-47 0-85-38-85-85v-318c0-46 38-84 85-84zm1235 46h-1235c-21 0-38 17-38 38v318c0 21 17 38 38 38h1235c21 0 38-17 38-38v-318c0-21-17-38-38-38zm274-46h28c47 0 85 38 85 84v318c0 47-39 85-85 85h-28c-47 0-85-38-85-85v-318c0-46 38-84 85-84z" fill="url(#id0)"/></g></svg>