<svg id="Layer_1" enable-background="new 0 0 450 450" height="512" viewBox="0 0 450 450" width="512" xmlns="http://www.w3.org/2000/svg" xmlns:xlink="http://www.w3.org/1999/xlink"><linearGradient id="SVGID_1_" gradientTransform="matrix(1 0 0 -1 0 450)" gradientUnits="userSpaceOnUse" x1="80.141" x2="369.855" y1="405.959" y2="116.244"><stop offset="0" stop-color="#00dbde"/><stop offset="1" stop-color="#fc00ff"/></linearGradient><path d="m426.85 102.03c-51-12.91-126.89-40.05-198.78-95.98-1.81-1.4-4.33-1.41-6.14 0-71.89 55.93-147.77 83.07-198.78 95.98-2.25.57-3.81 2.61-3.77 4.92 1.02 68.22 18.19 137 48.35 193.69 35.42 66.57 92.07 119.06 155.44 144.01.59.23 1.21.35 1.83.35s1.24-.12 1.83-.35c63.37-24.95 120.02-77.44 155.44-144.01 30.16-56.68 47.33-125.47 48.35-193.69.03-2.31-1.53-4.35-3.77-4.92zm-53.41 193.92c-33.97 63.86-88 114.29-148.44 138.67-60.45-24.38-114.47-74.82-148.44-138.67-28.85-54.22-45.52-119.84-47.1-185.21 51.11-13.33 125-40.4 195.54-94.42 70.55 54.02 144.43 81.09 195.54 94.42-1.58 65.36-18.25 130.98-47.1 185.21zm-177.93 23.73c0 10-6.84 21.68-26.13 21.68-6.91 0-14.66-1.95-18.85-4.75l-.68-.46 2.99-9.91 1.23.76c4.58 2.82 10.55 4.5 15.96 4.5 8.54 0 13.84-4.25 13.84-11.08 0-6.1-3.34-9.55-12.75-13.17-13.35-4.73-19.59-11.5-19.59-21.29 0-12.08 9.96-20.52 24.23-20.52 8.63 0 13.95 2.28 16.35 3.64l.8.45-3.26 9.65-1.16-.63c-2.73-1.49-7.2-3.26-13.04-3.26-8.53 0-12.35 4.82-12.35 9.6 0 5.7 3.28 8.79 13.5 12.75 13.25 5.13 18.91 11.72 18.91 22.04zm52.27 0c0 10-6.84 21.68-26.13 21.68-6.91 0-14.66-1.95-18.85-4.75l-.69-.46 2.99-9.91 1.23.76c4.58 2.82 10.55 4.5 15.96 4.5 8.54 0 13.84-4.25 13.84-11.08 0-6.1-3.34-9.55-12.75-13.17-13.35-4.73-19.58-11.5-19.58-21.29 0-12.08 9.96-20.52 24.23-20.52 8.63 0 13.94 2.28 16.35 3.64l.8.45-3.26 9.65-1.16-.63c-2.73-1.49-7.2-3.26-13.04-3.26-8.53 0-12.35 4.82-12.35 9.6 0 5.7 3.28 8.79 13.5 12.75 13.25 5.13 18.91 11.72 18.91 22.04zm21.85 10.66h30.54v9.96h-41.98v-73.69h11.45v63.73zm-44.67-171c-10.14.07-18.47 8.38-18.57 18.53-.05 5.05 1.98 9.91 5.51 13.44v7.04c0 7.28 5.92 13.19 13.2 13.19 7.27 0 13.19-5.92 13.19-13.19v-7.01c3.53-3.48 5.51-8.2 5.51-13.28 0-10.33-8.43-18.72-18.84-18.72zm5.35 25.69c-1.27.94-2.02 2.43-2.02 4.01v9.3c0 1.76-1.43 3.19-3.19 3.19s-3.2-1.43-3.2-3.19v-9.3c0-1.57-.74-3.06-2-4-2.22-1.67-3.54-4.31-3.51-7.08.04-4.72 3.92-8.59 8.61-8.62 4.86 0 8.81 3.91 8.81 8.71-.01 2.78-1.28 5.32-3.5 6.98zm-37.95-87.83c-4.24 4.24-7.58 9.19-9.91 14.71-2.42 5.72-3.65 11.78-3.65 18.02v8.88h-5.76c-8.04 0-14.59 6.54-14.59 14.59v64.07c0 8.05 6.54 14.59 14.59 14.59h104.1c8.04 0 14.59-6.55 14.59-14.59v-64.07c0-8.04-6.55-14.59-14.59-14.59h-5.76v-8.88c0-6.24-1.23-12.31-3.64-18.02-2.33-5.51-5.67-10.46-9.91-14.71s-9.19-7.58-14.71-9.91c-5.72-2.42-11.78-3.65-18.02-3.65s-12.31 1.23-18.02 3.65c-5.52 2.33-10.47 5.66-14.72 9.91zm89.37 56.2v64.07c0 2.53-2.06 4.59-4.59 4.59h-104.1c-2.53 0-4.59-2.06-4.59-4.59v-64.07c0-2.53 2.06-4.59 4.59-4.59h27.61.1 48.66.1 27.61c2.55 0 4.61 2.06 4.61 4.59zm-75.96-14.59v-8.88c0-2.61.51-5.15 1.51-7.52.98-2.3 2.37-4.37 4.15-6.15 1.77-1.78 3.84-3.17 6.14-4.15 4.75-2.01 10.29-2.01 15.04 0 2.3.97 4.37 2.37 6.15 4.15s3.17 3.85 4.15 6.15c1.01 2.38 1.51 4.91 1.51 7.52v8.88zm19.33-45.17c4.9 0 9.65.96 14.13 2.86 4.32 1.83 8.2 4.44 11.53 7.77s5.95 7.21 7.77 11.53c1.89 4.48 2.85 9.23 2.85 14.13v8.88h-6.96v-8.88c0-3.96-.78-7.8-2.31-11.42-1.48-3.49-3.59-6.63-6.28-9.32-2.7-2.69-5.83-4.81-9.32-6.28-3.61-1.53-7.46-2.31-11.42-2.31s-7.8.78-11.42 2.3c-3.5 1.48-6.63 3.6-9.32 6.28-2.69 2.69-4.81 5.83-6.29 9.33-1.53 3.62-2.31 7.46-2.31 11.42v8.88h-6.96v-8.88c0-4.9.96-9.65 2.85-14.13 1.83-4.32 4.45-8.21 7.78-11.53 3.33-3.33 7.21-5.95 11.53-7.77 4.5-1.9 9.25-2.86 14.15-2.86z" fill="url(#SVGID_1_)"/></svg>