<svg id="Layer_5" enable-background="new 0 0 64 64" height="512" viewBox="0 0 64 64" width="512" xmlns="http://www.w3.org/2000/svg" xmlns:xlink="http://www.w3.org/1999/xlink"><linearGradient id="SVGID_1_" gradientUnits="userSpaceOnUse" x1="32" x2="32" y1="63" y2="1.023"><stop offset="0" stop-color="#9f2fff"/><stop offset="1" stop-color="#0bb1d3"/></linearGradient><path d="m59 20c0-2.757-2.243-5-5-5h-5v-10.977c0-1.654-1.346-3-3-3h-28c-1.654 0-3 1.346-3 3v10.977h-5c-2.757 0-5 2.243-5 5v6.082c-2.387 1.386-4 3.965-4 6.918s1.613 5.532 4 6.918v8.082c0 2.757 2.243 5 5 5h12v4h-1c-2.757 0-5 2.243-5 5v1h32v-1c0-2.757-2.243-5-5-5h-1v-4h12c2.757 0 5-2.243 5-5v-7h4v-18h-4zm-42-15.977c0-.551.448-1 1-1h28c.552 0 1 .449 1 1v12c0 .551-.448 1-1 1h-10.302l-5.865 3.888c-.333.224-.833-.046-.833-.448v-3.44h-11c-.552 0-1-.449-1-1zm-10 15.977c0-1.654 1.346-3 3-3h5.177c.408 1.173 1.512 2.023 2.823 2.023h9v1.44c0 1.399 1.138 2.537 2.537 2.537.5 0 .984-.146 1.401-.422l5.363-3.555h9.699c1.31 0 2.415-.85 2.823-2.023h5.177c1.654 0 3 1.346 3 3v3h-8v9h-6v-5h-6v12h-2v-14h-6v14h-2v-10h-6v3h-4.069c-.495-3.94-3.859-7-7.931-7-.692 0-1.359.097-2 .263zm32 19v-10h2v10zm-6 0h-2v-12h2zm-8 0h-2v-8h2zm-22-6c0-3.309 2.691-6 6-6s6 2.691 6 6-2.691 6-6 6-6-2.691-6-6zm42.829 28h-27.658c.413-1.164 1.525-2 2.829-2h22c1.304 0 2.416.836 2.829 2zm-5.829-4h-16v-4h16zm14-6h-44c-1.654 0-3-1.346-3-3v-3h50v3c0 1.654-1.346 3-3 3zm3-8h-50v-2.263c.641.166 1.308.263 2 .263 4.072 0 7.436-3.06 7.931-7h4.069v5h-2v2h26v-2h-2v-5h6v7h8zm4-4h-10v-14h10zm-36-26.977c0-.551-.448-1-1-1h-2c-1.654 0-3-1.346-3-3s1.346-3 3-3h2c1.654 0 3 1.346 3 3h-2c0-.551-.448-1-1-1h-2c-.552 0-1 .449-1 1s.448 1 1 1h2c1.654 0 3 1.346 3 3s-1.346 3-3 3h-2c-1.654 0-3-1.346-3-3h2c0 .551.448 1 1 1h2c.552 0 1-.449 1-1zm4 0v-4c0-1.654 1.346-3 3-3h3v2h-3c-.552 0-1 .449-1 1v1h4v2h-4v1c0 .551.448 1 1 1h3v2h-3c-1.654 0-3-1.346-3-3zm11 3h2c1.654 0 3-1.346 3-3v-4c0-1.654-1.346-3-3-3h-2c-1.654 0-3 1.346-3 3v4c0 1.654 1.346 3 3 3zm-1-7c0-.551.448-1 1-1h2c.552 0 1 .449 1 1v4c0 .551-.448 1-1 1h-2c-.552 0-1-.449-1-1zm-10 39.977c0 .552-.448 1-1 1s-1-.448-1-1 .448-1 1-1 1 .448 1 1zm4 0c0 .552-.448 1-1 1s-1-.448-1-1 .448-1 1-1 1 .448 1 1zm4 0c0 .552-.448 1-1 1s-1-.448-1-1 .448-1 1-1 1 .448 1 1zm-24-15c0-2.206-1.794-4-4-4s-4 1.794-4 4 1.794 4 4 4 4-1.794 4-4zm-6 0c0-1.103.897-2 2-2s2 .897 2 2-.897 2-2 2-2-.897-2-2zm52-4h-6v-2h6zm0 4h-6v-2h6zm0 4h-6v-2h6z" fill="url(#SVGID_1_)"/></svg>