<svg clip-rule="evenodd" fill-rule="evenodd" height="512" stroke-linejoin="round" stroke-miterlimit="2" viewBox="0 0 32 32" width="512" xmlns="http://www.w3.org/2000/svg" xmlns:xlink="http://www.w3.org/1999/xlink"><linearGradient id="_Linear1" gradientTransform="matrix(27.869 -27.682 27.682 27.869 145.975 125.851)" gradientUnits="userSpaceOnUse" x1="0" x2="1" y1="0" y2="0"><stop offset="0" stop-color="#cb01ff"/><stop offset="1" stop-color="#34cbff"/></linearGradient><g transform="translate(-144 -96)"><g id="Layer2"><path d="m170.529 114.34c-1.047 4.888-5.395 8.557-10.593 8.557-5.979 0-10.833-4.854-10.833-10.833s4.854-10.833 10.833-10.833c4.181 0 7.811 2.374 9.617 5.845.126.243.244.492.352.745.119.279.442.409.722.29.279-.119.409-.443.29-.722s-.249-.552-.388-.82c-1.989-3.824-5.988-6.438-10.593-6.438-6.586 0-11.933 5.347-11.933 11.933s5.347 11.933 11.933 11.933c5.964 0 10.912-4.385 11.793-10.105.001-.006.003-.019.003-.019.026-.148-.011-.3-.102-.419s-.228-.195-.377-.208c-.04-.004-.644-.006-.644-.006s1.705-2.51 1.705-2.51 1.87 2.46 1.87 2.46-.483.053-.483.053c-.253.028-.455.226-.486.48-.813 6.607-6.453 11.727-13.279 11.727-7.388 0-13.386-5.998-13.386-13.386s5.998-13.386 13.386-13.386c5.89 0 10.897 3.813 12.685 9.103.097.288.409.442.697.345.287-.097.442-.409.345-.697-1.935-5.725-7.353-9.851-13.727-9.851-7.995 0-14.486 6.491-14.486 14.486s6.491 14.486 14.486 14.486c7.238 0 13.243-5.32 14.311-12.26 0 0 1.023-.112 1.023-.112.197-.022.368-.148.446-.33s.052-.392-.068-.55l-2.922-3.842c-.107-.141-.275-.222-.452-.217s-.341.094-.441.241l-2.717 4.001c-.114.168-.126.386-.031.566s.282.293.486.293zm-8.393-9.682c-.011-.225-.171-.416-.391-.465-1.149-.257-2.341-.257-3.49 0-.22.049-.38.24-.391.465l-.067 1.495c-.638.241-1.232.584-1.759 1.016 0 0-1.329-.689-1.329-.689-.2-.104-.445-.061-.598.105-.797.867-1.393 1.899-1.745 3.023-.067.215.018.449.208.57l1.261.807c-.111.672-.111 1.358 0 2.031 0-.001-1.261.806-1.261.806-.19.121-.275.355-.208.57.352 1.124.948 2.156 1.745 3.023.153.166.398.209.598.105l1.329-.689c.527.432 1.121.775 1.759 1.016 0 0 .067 1.495.067 1.495.011.225.171.416.391.465 1.149.257 2.341.257 3.49 0 .22-.049.38-.24.391-.465l.067-1.495c.638-.241 1.232-.584 1.759-1.016 0 0 1.329.689 1.329.689.2.104.445.061.598-.105.797-.867 1.393-1.899 1.745-3.023.067-.215-.018-.449-.208-.57l-1.261-.807c.111-.672.111-1.358 0-2.031 0 .001 1.261-.806 1.261-.806.19-.121.275-.355.208-.57-.352-1.124-.948-2.156-1.745-3.023-.153-.166-.398-.209-.598-.105l-1.329.689c-.527-.432-1.121-.775-1.759-1.016 0 0-.067-1.495-.067-1.495zm-.982.438.065 1.442c.01.21.15.391.35.454.737.231 1.415.622 1.983 1.145.155.142.382.173.569.076l1.281-.665c.493.598.883 1.274 1.154 1.999 0 .001-1.216.778-1.216.778-.177.113-.264.325-.218.53.168.754.168 1.536 0 2.29-.046.205.041.417.218.53l1.216.777c-.271.726-.661 1.402-1.154 2 0 0-1.281-.665-1.281-.665-.187-.097-.414-.066-.569.076-.568.523-1.246.914-1.983 1.145-.2.063-.34.244-.35.454l-.065 1.442c-.764.128-1.544.128-2.308 0 0 0-.065-1.442-.065-1.442-.01-.21-.15-.391-.35-.454-.737-.231-1.415-.622-1.983-1.145-.155-.142-.382-.173-.569-.076l-1.281.665c-.493-.598-.883-1.274-1.154-1.999 0-.001 1.216-.778 1.216-.778.177-.113.264-.325.218-.53-.168-.754-.168-1.536 0-2.29.046-.205-.041-.417-.218-.53l-1.216-.777c.271-.726.661-1.402 1.154-2 0 0 1.281.665 1.281.665.187.097.414.066.569-.076.568-.523 1.246-.914 1.983-1.145.2-.063.34-.244.35-.454l.065-1.442c.764-.128 1.544-.128 2.308 0zm-1.154 4.055c-1.572 0-2.849 1.277-2.849 2.849s1.277 2.849 2.849 2.849 2.849-1.277 2.849-2.849-1.277-2.849-2.849-2.849zm0 1c1.02 0 1.849.829 1.849 1.849s-.829 1.849-1.849 1.849-1.849-.829-1.849-1.849.829-1.849 1.849-1.849z" fill="url(#_Linear1)"/></g></g></svg>