<?xml version="1.0" standalone="no"?>
<!DOCTYPE svg PUBLIC "-//W3C//DTD SVG 20010904//EN"
 "http://www.w3.org/TR/2001/REC-SVG-20010904/DTD/svg10.dtd">
<svg version="1.0" xmlns="http://www.w3.org/2000/svg"
 width="2336.000000pt" height="2336.000000pt" viewBox="0 0 2336.000000 2336.000000"
 preserveAspectRatio="xMidYMid meet">
<metadata>
Created by potrace 1.14, written by Peter Selinger 2001-2017
</metadata>
<g transform="translate(0.000000,2336.000000) scale(0.100000,-0.100000)"
fill="#000000" stroke="none">
<path d="M6532 15965 c-149 -20 -202 -32 -347 -80 -213 -70 -423 -185 -585
-321 -134 -113 -5162 -5152 -5224 -5236 -362 -491 -459 -1116 -265 -1693 289
-855 1163 -1378 2052 -1225 364 62 675 216 950 468 46 42 884 879 1862 1860
979 980 1784 1782 1790 1782 5 0 737 -726 1625 -1614 888 -887 1653 -1644
1700 -1681 373 -296 807 -481 1273 -542 161 -20 454 -20 624 1 453 56 885 237
1258 529 56 43 712 692 1717 1696 l1628 1626 1857 -1856 c1022 -1021 1885
-1876 1918 -1901 374 -281 771 -411 1205 -395 401 15 744 136 1065 377 205
154 409 400 526 632 124 246 185 486 196 773 17 441 -122 862 -405 1220 -85
109 -5112 5130 -5212 5208 -353 270 -757 400 -1195 384 -423 -16 -794 -149
-1113 -399 -42 -33 -779 -761 -1637 -1618 -858 -856 -1580 -1571 -1605 -1587
-127 -85 -294 -143 -450 -157 -193 -18 -441 54 -600 173 -30 22 -750 736
-1600 1585 -962 960 -1577 1568 -1630 1609 -258 198 -536 320 -850 372 -134
22 -400 27 -528 10z"/>
</g>
</svg>
