<?xml version="1.0" standalone="no"?>
<!DOCTYPE svg PUBLIC "-//W3C//DTD SVG 20010904//EN"
 "http://www.w3.org/TR/2001/REC-SVG-20010904/DTD/svg10.dtd">
<svg version="1.0" xmlns="http://www.w3.org/2000/svg"
 width="2500.000000pt" height="2500.000000pt" viewBox="0 0 2500.000000 2500.000000"
 preserveAspectRatio="xMidYMid meet">
<metadata>
Created by potrace 1.11, written by Peter Selinger 2001-2013
</metadata>
<g transform="translate(0.000000,2500.000000) scale(0.100000,-0.100000)"
fill="#000000" stroke="none">
<path d="M6611 13856 l-1 -4058 47 -47 c26 -25 50 -45 53 -44 3 1 15 -12 25
-28 11 -16 23 -29 27 -29 3 0 31 -25 62 -55 31 -30 56 -52 56 -50 0 2 29 -24
64 -58 36 -34 106 -100 156 -147 50 -47 118 -111 151 -142 33 -32 65 -58 70
-58 5 0 9 -7 9 -15 0 -8 4 -15 9 -15 5 0 42 -31 81 -69 39 -38 74 -71 78 -73
4 -2 6 -6 4 -10 -1 -5 3 -8 8 -8 6 0 30 -19 53 -42 22 -24 45 -42 49 -41 4 2
10 -6 13 -17 4 -11 10 -20 15 -20 5 0 40 -30 77 -67 38 -38 73 -70 79 -71 9
-4 92 -81 420 -388 71 -67 145 -136 164 -154 83 -77 174 -162 305 -284 77 -72
176 -165 220 -206 84 -78 147 -137 280 -262 178 -166 222 -208 270 -252 l50
-45 3 2064 c1 1136 5 2065 8 2065 3 0 11 -6 18 -12 12 -12 154 -145 366 -343
47 -43 112 -105 145 -137 33 -31 70 -65 82 -75 12 -11 81 -75 153 -143 72 -68
140 -132 151 -141 11 -9 82 -75 157 -146 120 -112 191 -179 292 -273 15 -14
80 -75 146 -136 65 -61 137 -129 160 -150 23 -22 88 -82 145 -136 57 -53 122
-114 145 -135 35 -33 212 -198 308 -287 17 -16 65 -61 107 -100 41 -39 135
-127 209 -196 74 -69 148 -138 165 -155 18 -16 74 -68 126 -115 52 -47 96 -88
99 -92 3 -4 33 18 65 48 33 31 87 81 120 112 34 32 117 109 185 172 68 63 137
129 154 145 17 17 96 90 176 164 80 74 181 168 225 210 45 42 117 110 161 151
44 41 136 127 204 190 68 63 135 126 150 140 25 24 223 209 299 279 20 18 65
61 101 95 36 33 121 113 189 176 68 63 141 131 161 150 20 19 88 82 150 140
118 110 251 234 305 285 18 17 85 80 150 140 64 61 137 129 161 153 l44 43 2
-2075 3 -2074 50 45 c51 47 146 135 270 252 39 37 133 125 210 196 77 72 147
137 155 145 18 17 235 219 290 270 31 29 179 168 385 361 38 37 82 77 96 90
38 35 520 484 738 689 21 19 91 85 155 145 150 139 168 156 312 291 66 61 145
135 177 164 l57 53 -1 4031 c-1 3018 -4 4035 -13 4045 -8 12 -8 13 2 7 13 -8
17 6 5 18 -5 4 -1074 -1060 -2378 -2366 l-2370 -2373 -210 -137 c-115 -75
-356 -232 -535 -350 -179 -117 -341 -223 -360 -235 l-36 -22 -129 85 c-128 84
-285 187 -780 513 l-250 164 -2362 2366 -2361 2366 -1 -4059z m10962 2179 c-3
-9 -8 -14 -10 -11 -3 3 -2 9 2 15 9 16 15 13 8 -4z"/>
</g>
</svg>
