<?xml version="1.0" standalone="no"?>
<!DOCTYPE svg PUBLIC "-//W3C//DTD SVG 20010904//EN"
 "http://www.w3.org/TR/2001/REC-SVG-20010904/DTD/svg10.dtd">
<svg version="1.0" xmlns="http://www.w3.org/2000/svg"
 width="2500.000000pt" height="2500.000000pt" viewBox="0 0 2500.000000 2500.000000"
 preserveAspectRatio="xMidYMid meet">
<metadata>
Created by potrace 1.14, written by Peter Selinger 2001-2017
</metadata>
<g transform="translate(0.000000,2500.000000) scale(0.100000,-0.100000)"
fill="#000000" stroke="none">
<path d="M9686 18378 c2 -3 71 -63 153 -132 l150 -126 2194 0 2194 0 152 127
c83 69 151 129 151 132 0 3 -1125 6 -2499 6 -1375 0 -2497 -3 -2495 -7z"/>
<path d="M9203 14590 l0 -3600 631 0 631 0 0 2330 c0 1282 3 2330 7 2330 6 0
318 -233 473 -352 6 -4 24 -18 40 -31 17 -13 152 -115 300 -227 426 -321 717
-542 750 -567 38 -30 41 -31 99 -76 l49 -37 33 25 c19 14 51 37 72 52 20 16
39 30 42 33 5 5 165 126 415 314 72 54 139 106 150 115 11 9 36 27 55 41 19
13 40 28 45 33 43 37 901 683 904 681 2 -2 4 -1052 4 -2334 l0 -2330 631 0
631 0 0 3600 c0 1980 -2 3600 -5 3600 -6 0 -52 -30 -60 -39 -4 -5 -118 -92
-175 -133 -5 -4 -23 -18 -40 -31 -16 -13 -235 -178 -485 -367 -250 -189 -459
-348 -465 -352 -5 -5 -41 -32 -80 -61 -110 -83 -742 -561 -1040 -787 -664
-504 -617 -469 -632 -470 -6 0 -33 17 -60 38 -26 21 -214 164 -418 317 -203
154 -377 285 -385 292 -8 7 -94 71 -190 144 -196 148 -672 508 -885 669 -77
58 -232 176 -345 260 -113 85 -207 157 -210 160 -3 3 -30 24 -60 45 -30 22
-62 45 -70 52 -8 7 -33 26 -55 42 -22 17 -44 34 -50 39 -40 32 -243 182 -247
182 -3 0 -5 -1620 -5 -3600z"/>
<path d="M5841 16336 c5 -5 529 -286 634 -340 17 -9 53 -36 81 -61 l52 -45 0
-2448 0 -2447 496 -3 496 -2 0 2000 c0 1100 3 2000 6 2000 5 0 161 -137 194
-170 3 -3 68 -61 145 -130 77 -68 142 -127 145 -130 3 -3 43 -39 90 -80 46
-41 94 -84 106 -95 11 -11 39 -36 60 -55 55 -50 233 -209 273 -245 19 -16 39
-34 45 -40 14 -13 191 -171 290 -260 43 -38 84 -76 92 -82 7 -7 14 -13 16 -13
2 0 3 299 3 665 l0 665 -55 51 c-30 28 -71 65 -90 82 -19 16 -73 64 -119 106
-47 42 -105 94 -130 116 -26 22 -48 42 -51 45 -3 3 -45 41 -95 85 -49 44 -94
85 -100 91 -5 5 -50 46 -100 90 -49 43 -97 86 -105 94 -8 8 -51 47 -95 85 -71
63 -102 90 -179 160 -50 45 -196 177 -271 244 l-80 71 -879 0 c-484 0 -877 -2
-875 -4z"/>
<path d="M16758 16332 c-1 -5 -46 -46 -98 -93 -52 -46 -97 -86 -100 -89 -3 -3
-90 -82 -195 -175 -164 -147 -221 -198 -305 -275 -9 -8 -52 -46 -96 -85 -43
-38 -84 -74 -90 -80 -6 -5 -45 -41 -87 -79 -43 -38 -88 -78 -100 -90 -13 -12
-61 -55 -107 -96 -75 -66 -164 -146 -196 -175 -6 -5 -26 -24 -46 -41 l-35 -31
0 -667 c-1 -615 1 -666 16 -654 21 16 181 158 201 178 8 8 53 49 100 90 47 41
92 82 100 90 8 8 74 68 147 132 72 65 137 123 145 130 7 7 49 45 93 83 44 39
92 81 106 95 14 14 54 50 89 80 35 30 68 60 74 65 6 6 56 51 111 100 55 49
123 111 150 136 70 65 122 109 128 109 3 0 4 -900 4 -2000 l-2 -2000 498 0
497 0 0 2450 0 2450 41 38 c49 44 69 56 344 202 200 106 274 146 330 177 l60
33 -887 0 c-487 0 -888 -4 -890 -8z"/>
<path d="M10603 12974 l0 -666 51 -46 c27 -26 62 -58 77 -72 14 -14 55 -50 90
-80 35 -30 73 -64 85 -75 11 -11 53 -49 93 -85 40 -36 83 -74 95 -85 53 -47
186 -167 251 -224 39 -35 78 -77 88 -94 43 -79 -4 -179 -95 -201 l-28 -6 0
-94 0 -94 870 0 870 -1 5 22 c8 39 0 172 -10 172 -62 3 -115 54 -122 119 -8
65 8 94 90 168 175 157 298 268 367 328 40 36 88 79 106 95 17 17 67 61 110
100 44 38 99 89 124 112 l45 42 0 660 c0 364 -4 661 -8 661 -5 0 -29 -19 -54
-42 -58 -55 -45 -43 -208 -188 -77 -69 -160 -143 -185 -166 -25 -23 -92 -83
-150 -135 -58 -52 -121 -108 -140 -125 -19 -18 -132 -118 -250 -224 -219 -197
-366 -329 -406 -365 -12 -11 -52 -47 -90 -80 -37 -33 -73 -65 -80 -72 -9 -9
-21 -3 -55 30 -24 23 -84 78 -134 122 -49 44 -92 82 -95 85 -3 3 -45 41 -95
85 -49 43 -97 86 -106 95 -14 13 -86 78 -207 185 -19 17 -46 41 -61 55 -61 55
-189 170 -246 220 -33 30 -62 56 -65 60 -4 5 -185 166 -309 275 -18 17 -46 41
-60 55 -14 14 -56 51 -92 83 l-66 57 0 -666z"/>
<path d="M6989 10749 c-52 -26 -86 -71 -98 -131 -18 -81 -14 -588 5 -641 32
-90 108 -133 222 -125 86 6 133 35 167 101 24 48 24 52 25 343 0 183 -4 310
-10 335 -13 48 -66 110 -108 125 -49 19 -162 15 -203 -7z m159 -134 c18 -23
19 -42 19 -302 0 -163 -4 -287 -10 -300 -22 -50 -119 -35 -129 19 -2 13 -4
146 -3 297 l1 273 23 19 c33 27 75 24 99 -6z"/>
<path d="M5623 10310 l0 -450 64 0 64 0 -1 263 c-1 144 0 285 1 312 2 50 2 50
14 -25 8 -41 16 -97 20 -125 3 -27 10 -75 15 -105 16 -94 19 -114 25 -165 6
-50 14 -97 20 -125 2 -8 4 -18 4 -22 1 -5 28 -8 61 -8 68 0 57 -23 86 175 8
61 17 121 19 134 3 13 7 45 11 70 4 25 8 53 9 61 1 8 8 56 15 105 7 50 16 93
19 97 3 4 5 -139 5 -318 l-2 -324 68 0 68 0 0 450 0 450 -104 0 c-104 0 -104
0 -105 -25 -1 -14 -2 -28 -3 -32 -1 -5 -6 -37 -10 -73 -4 -36 -10 -74 -12 -85
-2 -11 -6 -40 -9 -65 -3 -25 -7 -54 -9 -66 -2 -12 -7 -45 -11 -74 -4 -29 -8
-61 -10 -70 -2 -9 -6 -43 -9 -75 -7 -63 -15 -84 -18 -44 0 13 -2 29 -3 34 -1
6 -5 35 -9 65 -4 30 -10 69 -13 85 -2 17 -6 44 -8 60 -1 17 -8 66 -14 110 -18
124 -20 136 -27 198 l-7 57 -102 0 -102 0 0 -450z"/>
<path d="M7977 10753 c-3 -5 -6 -208 -6 -452 l0 -443 152 4 c175 4 204 14 247
90 l25 43 0 315 0 315 -25 43 c-43 75 -72 86 -241 90 -81 2 -149 0 -152 -5z
m254 -142 l24 -19 0 -282 0 -282 -24 -20 c-18 -14 -37 -18 -70 -16 l-46 3 -1
310 c0 171 1 313 3 318 8 15 91 7 114 -12z"/>
<path d="M9067 10753 c-3 -5 -4 -207 -4 -450 l0 -443 193 0 192 0 1 65 0 64
-122 3 -122 3 0 130 0 130 96 3 96 3 1 64 0 64 -96 3 -96 3 -1 105 c-1 58 1
111 3 118 3 9 37 12 123 12 l119 0 0 65 0 65 -189 0 c-105 0 -192 -3 -194 -7z"/>
<path d="M10103 10311 l0 -452 71 3 71 3 0 185 0 185 48 1 c76 2 83 -14 86
-188 3 -202 -6 -182 85 -186 62 -2 76 0 70 10 -5 7 -9 84 -11 170 -2 171 -17
234 -63 258 -21 11 -21 12 14 50 41 46 51 94 43 216 -5 94 -25 137 -79 169
-28 17 -55 20 -184 23 l-152 4 1 -451z m253 298 c14 -16 19 -37 20 -90 1 -39
-1 -81 -4 -95 -6 -31 -52 -56 -95 -52 l-32 3 0 120 c-1 66 1 123 3 128 2 4 22
7 46 7 31 0 48 -6 62 -21z"/>
<path d="M11197 10753 c-2 -4 -5 -207 -6 -450 l-1 -443 65 0 65 0 1 318 c0
288 2 313 14 272 8 -25 16 -56 19 -70 2 -14 16 -69 30 -123 15 -53 29 -105 31
-115 3 -9 9 -35 15 -57 6 -22 13 -51 16 -65 3 -14 13 -54 23 -90 l18 -65 74
-3 74 -3 0 448 0 448 -62 3 c-46 2 -63 -1 -64 -10 0 -7 0 -125 0 -262 1 -137
-1 -248 -3 -245 -4 4 -122 457 -130 499 -2 12 -22 16 -89 18 -47 1 -87 -1 -90
-5z"/>
<path d="M12419 10753 c0 -4 -2 -15 -4 -23 -3 -18 -14 -80 -21 -130 -7 -47
-13 -80 -18 -110 -3 -14 -8 -43 -11 -65 -3 -22 -7 -47 -10 -55 -2 -8 -6 -35
-9 -60 -4 -25 -21 -136 -39 -247 l-33 -203 67 0 67 0 8 58 c4 31 8 60 10 65 1
4 2 18 3 32 1 24 3 25 80 25 l79 0 6 -37 c9 -52 18 -115 19 -130 0 -9 22 -13
74 -13 l73 0 -4 28 c-20 117 -48 283 -52 312 -3 19 -10 62 -15 95 -11 64 -26
158 -35 215 -3 19 -13 82 -22 140 l-18 105 -97 3 c-53 1 -97 -1 -98 -5z m114
-303 c3 -25 11 -77 16 -116 6 -40 13 -95 17 -123 l6 -51 -61 0 c-34 0 -61 3
-61 8 0 4 4 34 9 67 13 81 18 115 31 215 6 47 13 96 17 110 7 26 12 6 26 -110z"/>
<path d="M14183 10310 l0 -450 63 0 63 0 -2 320 c-2 302 3 374 17 250 4 -30
11 -80 16 -110 5 -30 12 -75 15 -100 6 -46 12 -85 20 -130 2 -14 7 -45 10 -70
22 -169 18 -160 85 -160 66 0 61 -7 76 110 4 30 8 57 9 60 1 3 5 32 9 65 4 32
10 68 12 80 5 24 33 211 41 273 13 101 18 21 16 -273 l-2 -315 68 0 69 0 0
450 0 450 -102 0 -102 0 -28 -202 c-16 -112 -30 -213 -32 -225 -1 -13 -5 -40
-8 -60 -3 -21 -9 -60 -12 -88 -7 -57 -13 -71 -15 -32 -1 15 -2 30 -3 35 -1 4
-6 32 -10 62 -4 30 -10 69 -13 85 -2 17 -6 44 -8 60 -4 39 -24 190 -31 235 -3
19 -9 55 -12 80 l-7 45 -101 3 -101 3 0 -451z"/>
<path d="M15443 10310 l0 -450 194 0 193 0 -1 65 -2 65 -118 0 c-88 0 -119 3
-120 13 -1 6 -2 67 -3 134 l-1 123 96 0 97 0 1 65 1 64 -97 3 -98 3 -1 105 c0
58 2 111 4 118 3 9 37 12 124 12 l119 0 -3 63 -3 62 -191 3 -191 2 0 -450z"/>
<path d="M16483 10309 l0 -451 151 4 c174 4 203 14 246 90 l25 43 0 315 c0
288 -2 318 -19 350 -24 46 -61 78 -105 90 -20 5 -95 10 -167 10 l-131 0 0
-451z m258 302 l23 -19 1 -282 0 -282 -24 -19 c-18 -15 -36 -19 -70 -17 l-46
3 -1 310 c0 171 1 313 3 318 8 15 91 7 114 -12z"/>
<path d="M17572 10310 l0 -450 71 0 72 0 0 450 0 450 -71 0 -72 0 0 -450z"/>
<path d="M18500 10757 c0 -2 -5 -29 -10 -58 -6 -30 -13 -73 -16 -95 -2 -23 -7
-53 -9 -65 -5 -25 -12 -65 -20 -114 -2 -16 -7 -41 -9 -55 -3 -14 -8 -43 -11
-65 -3 -22 -17 -110 -31 -195 -14 -85 -27 -171 -30 -190 -3 -19 -7 -41 -9 -47
-3 -10 14 -13 65 -13 l69 0 7 58 c5 31 9 60 10 65 1 4 2 18 3 32 1 24 3 25 80
25 l79 0 6 -32 c8 -44 19 -120 19 -135 0 -9 22 -13 74 -13 l75 0 -6 28 c-3 15
-15 83 -26 151 -20 125 -23 140 -35 221 -4 25 -9 54 -11 65 -2 11 -7 43 -10
70 -4 28 -8 53 -10 57 -3 4 -7 29 -10 55 -3 26 -13 93 -22 148 l-17 100 -97 3
c-54 1 -98 1 -98 -1z m97 -189 c0 -13 5 -43 23 -168 13 -91 19 -132 26 -190
l6 -50 -61 0 c-34 0 -61 3 -61 8 0 4 4 34 10 67 10 70 20 137 26 180 2 17 6
50 9 75 5 38 11 79 14 88 3 7 8 0 8 -10z"/>
<path d="M6609 9626 c0 -11 0 -304 -1 -651 l0 -630 -53 -100 c-29 -55 -87
-167 -130 -250 -43 -82 -110 -213 -150 -290 -40 -77 -94 -180 -119 -229 -25
-49 -46 -90 -46 -92 0 -2 448 -4 996 -4 l995 0 -92 178 c-154 296 -202 389
-308 593 l-101 196 0 650 0 650 -495 0 -495 0 -1 -21z"/>
<path d="M9202 8586 c0 -584 -1 -1066 -1 -1072 -1 -9 -119 -180 -207 -299
-133 -180 -422 -590 -419 -593 6 -6 2514 -6 2519 -1 3 2 -46 74 -108 159 -62
86 -130 181 -152 211 -21 31 -113 159 -204 285 l-165 229 0 1070 0 1070 -631
1 -631 1 -1 -1061z"/>
<path d="M13903 8577 l0 -1073 -64 -88 c-35 -49 -114 -159 -175 -245 -62 -86
-128 -178 -149 -206 -103 -140 -245 -340 -245 -345 0 -6 2519 -5 2524 1 4 3
-308 441 -557 783 l-72 99 0 1071 0 1071 -631 3 -631 2 0 -1073z"/>
<path d="M16769 9606 c0 -22 0 -315 0 -650 l-1 -609 -70 -136 c-39 -75 -94
-181 -123 -236 -29 -55 -92 -176 -140 -270 -48 -93 -105 -203 -126 -243 -22
-40 -39 -75 -39 -77 0 -3 448 -5 996 -5 l995 0 -97 188 c-53 103 -120 232
-149 287 -29 55 -98 189 -154 297 l-101 197 0 649 0 649 -495 0 -495 1 -1 -42z"/>
</g>
</svg>
