<svg height="512pt" viewBox="0 0 512 512" width="512pt" xmlns="http://www.w3.org/2000/svg" xmlns:xlink="http://www.w3.org/1999/xlink"><linearGradient id="a" gradientUnits="userSpaceOnUse" x1="256" x2="256" y1="0" y2="512"><stop offset="0" stop-color="#8df49b"/><stop offset="1" stop-color="#589cf9"/></linearGradient><path d="m368.140625 172.140625-83.839844 83.839844 83.839844 83.839843-28.28125 28.285157-83.839844-83.839844-83.839843 83.839844-28.285157-28.285157 83.839844-83.839843-83.839844-83.839844 28.285157-28.28125 83.839843 83.839844 83.839844-83.839844zm143.859375 83.859375c0 68.378906-26.628906 132.667969-74.980469 181.019531-48.351562 48.351563-112.640625 74.980469-181.019531 74.980469s-132.667969-26.628906-181.019531-74.980469c-48.351563-48.351562-74.980469-112.640625-74.980469-181.019531s26.628906-132.667969 74.980469-181.019531c48.351562-48.351563 112.640625-74.980469 181.019531-74.980469s132.667969 26.628906 181.019531 74.980469c48.351563 48.351562 74.980469 112.640625 74.980469 181.019531zm-40 0c0-119.101562-96.898438-216-216-216s-216 96.898438-216 216 96.898438 216 216 216 216-96.898438 216-216zm0 0" fill="url(#a)"/></svg>