<svg height="512pt" viewBox="0 0 512 512" width="512pt" xmlns="http://www.w3.org/2000/svg" xmlns:xlink="http://www.w3.org/1999/xlink"><linearGradient id="a" gradientUnits="userSpaceOnUse" x1="0" x2="512" y1="256" y2="256"><stop offset="0" stop-color="#00f2fe"/><stop offset=".0208" stop-color="#03effe"/><stop offset=".2931" stop-color="#24d2fe"/><stop offset=".5538" stop-color="#3cbdfe"/><stop offset=".7956" stop-color="#4ab0fe"/><stop offset="1" stop-color="#4facfe"/></linearGradient><path d="m492 352c11.046875 0 20-8.953125 20-20v-139.296875c0-27.40625-13.777344-52.589844-36.859375-67.371094l-48.140625-30.824219v-74.507812c0-11.046875-8.953125-20-20-20h-302c-11.046875 0-20 8.953125-20 20v74.421875l-48.109375 30.773437c-23.101563 14.777344-36.890625 39.972657-36.890625 67.394532v239.410156c0 44.113281 35.886719 80 80 80h352c44.113281 0 80-35.886719 80-80 0-11.046875-8.953125-20-20-20s-20 8.953125-20 20c0 22.054688-17.945312 40-40 40h-352c-22.054688 0-40-17.945312-40-40v-213.363281l173.753906 108.042969c13.03125 8.101562 27.636719 12.152343 42.246094 12.152343 14.605469 0 29.21875-4.050781 42.246094-12.152343l173.753906-108.042969v113.363281c0 11.046875 8.953125 20 20 20zm-38.429688-192.980469c6.039063 3.867188 10.785157 9.164063 13.957032 15.292969l-40.527344 25.203125v-57.511719zm-395.125-.125 26.554688-16.988281v57.609375l-40.574219-25.230469c3.175781-6.171875 7.945313-11.507812 14.019531-15.390625zm218.675782 133.816407c-13.027344 8.101562-29.214844 8.101562-42.242188 0l-109.878906-68.324219v-184.386719h262v184.386719zm-1.121094-139.710938c0 11.046875-8.953125 20-20 20s-20-8.953125-20-20 8.953125-20 20-20 20 8.953125 20 20zm72 0c0 11.046875-8.953125 20-20 20s-20-8.953125-20-20 8.953125-20 20-20 20 8.953125 20 20zm-145 0c0 11.046875-8.953125 20-20 20s-20-8.953125-20-20 8.953125-20 20-20 20 8.953125 20 20zm0 0" fill="url(#a)"/></svg>