<?xml version="1.0"?>
<svg xmlns="http://www.w3.org/2000/svg" xmlns:xlink="http://www.w3.org/1999/xlink" id="Gradient" viewBox="0 0 512 512" width="512" height="512"><defs><linearGradient id="linear-gradient" x1="256" y1="496" x2="256" y2="16" gradientUnits="userSpaceOnUse"><stop offset="0" stop-color="#12c2e9"/><stop offset="0.5" stop-color="#c471ed"/><stop offset="1" stop-color="#f64f59"/></linearGradient></defs><path d="M304,240a32,32,0,0,1-22.628-54.627L386.745,80H336a32,32,0,0,1,0-64H464a32.036,32.036,0,0,1,32,32V176a32,32,0,0,1-64,0V125.255L326.628,230.628A31.79,31.79,0,0,1,304,240ZM336,32a16,16,0,0,0,0,32h70.059a8,8,0,0,1,5.657,13.657L292.687,196.687a16,16,0,1,0,22.626,22.626l119.03-119.029A8,8,0,0,1,448,105.941V176a16,16,0,0,0,32,0V48a16.019,16.019,0,0,0-16-16ZM464,496H48a32.036,32.036,0,0,1-32-32V48A32.036,32.036,0,0,1,48,16H224a32,32,0,0,1,0,64H80V432H432V288a32,32,0,0,1,64,0V464A32.036,32.036,0,0,1,464,496ZM48,32A16.019,16.019,0,0,0,32,48V464a16.019,16.019,0,0,0,16,16H464a16.019,16.019,0,0,0,16-16V288a16,16,0,0,0-32,0V440a8,8,0,0,1-8,8H72a8,8,0,0,1-8-8V72a8,8,0,0,1,8-8H224a16,16,0,0,0,0-32Z" style="fill:url(#linear-gradient)"/></svg>
