<svg id="Capa_1" enable-background="new 0 0 512 512" height="512" viewBox="0 0 512 512" width="512" xmlns="http://www.w3.org/2000/svg" xmlns:xlink="http://www.w3.org/1999/xlink"><linearGradient id="SVGID_1_" gradientUnits="userSpaceOnUse" x1="0" x2="512" y1="256" y2="256"><stop offset="0" stop-color="#00f2fe"/><stop offset=".0208" stop-color="#03effe"/><stop offset=".2931" stop-color="#24d2fe"/><stop offset=".5538" stop-color="#3cbdfe"/><stop offset=".7956" stop-color="#4ab0fe"/><stop offset="1" stop-color="#4facfe"/></linearGradient><path d="m81.019 352.272 93.319-96.272-93.319-96.272c-7.688-7.931-7.49-20.593.441-28.28 7.932-7.688 20.593-7.49 28.281.44l146.259 150.888 146.26-150.889c7.688-7.933 20.35-8.128 28.281-.44s8.128 20.35.441 28.28l-93.32 96.273 93.319 96.272c7.688 7.931 7.491 20.593-.441 28.28-3.884 3.766-8.904 5.64-13.918 5.64-5.224 0-10.44-2.033-14.363-6.08l-92.451-95.377-39.448 40.696c-3.767 3.887-8.948 6.08-14.361 6.08s-10.594-2.193-14.361-6.08l-39.448-40.696-92.451 95.377c-3.922 4.047-9.14 6.08-14.363 6.08-5.014 0-10.033-1.874-13.918-5.64-7.93-7.687-8.127-20.349-.439-28.28zm410.981-32.42c11.046 0 20-8.954 20-20v-187.682c0-44.199-35.958-80.157-80.158-80.157h-351.842c-44.112 0-80 35.888-80 80v287.975c0 44.112 35.888 80 80 80h352c44.112 0 80-35.888 80-80v-.136c0-11.046-8.954-20-20-20s-20 8.954-20 20v.136c0 22.056-17.944 40-40 40h-352c-22.056 0-40-17.944-40-40v-287.975c0-22.056 17.944-40 40-40h351.842c22.143 0 40.158 18.015 40.158 40.157v187.682c0 11.045 8.954 20 20 20z" fill="url(#SVGID_1_)"/></svg>