<svg height="512pt" viewBox="-87 0 512 512" width="512pt" xmlns="http://www.w3.org/2000/svg" xmlns:xlink="http://www.w3.org/1999/xlink"><linearGradient id="a" gradientUnits="userSpaceOnUse" x1="0" x2="338" y1="256" y2="256"><stop offset="0" stop-color="#87f1fc"/><stop offset=".2557" stop-color="#7fd4fb"/><stop offset=".5295" stop-color="#78bcfb"/><stop offset=".7844" stop-color="#74aefa"/><stop offset="1" stop-color="#73a9fa"/></linearGradient><path d="m169 453c-11.046875 0-20-8.953125-20-20s8.953125-20 20-20 20 8.953125 20 20-8.953125 20-20 20zm149-161c11.046875 0 20-8.953125 20-20v-192c0-44.113281-35.886719-80-80-80h-178c-44.113281 0-80 35.886719-80 80v352c0 44.113281 35.886719 80 80 80h178c44.113281 0 80-35.886719 80-80v-60c0-11.046875-8.953125-20-20-20h-218c-11.046875 0-20 8.953125-20 20s8.953125 20 20 20h198v40c0 22.054688-17.945312 40-40 40h-178c-22.054688 0-40-17.945312-40-40v-352c0-22.054688 17.945312-40 40-40h178c22.054688 0 40 17.945312 40 40v192c0 11.046875 8.953125 20 20 20zm0 0" fill="url(#a)"/></svg>