<svg xmlns="http://www.w3.org/2000/svg" xmlns:xlink="http://www.w3.org/1999/xlink" version="1.1" width="256" height="256" viewBox="0 0 256 256" xml:space="preserve">
<desc>Created with Fabric.js 1.7.22</desc>
<defs>
</defs>
<g transform="translate(128 128) scale(0.72 0.72)" style="">
	<g style="stroke: none; stroke-width: 0; stroke-dasharray: none; stroke-linecap: butt; stroke-linejoin: miter; stroke-miterlimit: 10; fill: none; fill-rule: nonzero; opacity: 1;" transform="translate(-175.05 -175.05000000000004) scale(3.89 3.89)" >
	<path d="M 11.296 38.95 c -2.018 0 -3.66 -1.642 -3.66 -3.66 c 0 -2.019 1.642 -3.661 3.66 -3.661 s 3.66 1.642 3.66 3.661 C 14.957 37.307 13.314 38.95 11.296 38.95 z M 11.296 33.628 c -0.916 0 -1.66 0.745 -1.66 1.661 c 0 0.916 0.745 1.66 1.66 1.66 c 0.916 0 1.66 -0.745 1.66 -1.66 C 12.956 34.374 12.212 33.628 11.296 33.628 z" style="stroke: none; stroke-width: 1; stroke-dasharray: none; stroke-linecap: butt; stroke-linejoin: miter; stroke-miterlimit: 10; fill: rgb(0,0,0); fill-rule: nonzero; opacity: 1;" transform=" matrix(1 0 0 1 0 0) " stroke-linecap="round" />
	<path d="M 75.521 64.061 c -2.019 0 -3.66 -1.642 -3.66 -3.66 s 1.642 -3.661 3.66 -3.661 c 2.019 0 3.66 1.643 3.66 3.661 S 77.539 64.061 75.521 64.061 z M 75.521 58.739 c -0.915 0 -1.66 0.745 -1.66 1.661 c 0 0.915 0.745 1.66 1.66 1.66 c 0.915 0 1.66 -0.745 1.66 -1.66 C 77.181 59.484 76.436 58.739 75.521 58.739 z" style="stroke: none; stroke-width: 1; stroke-dasharray: none; stroke-linecap: butt; stroke-linejoin: miter; stroke-miterlimit: 10; fill: rgb(0,0,0); fill-rule: nonzero; opacity: 1;" transform=" matrix(1 0 0 1 0 0) " stroke-linecap="round" />
	<path d="M 56.311 42.611 c -0.715 0 -1.42 -0.022 -2.115 -0.067 c -0.402 -0.026 -0.749 -0.292 -0.881 -0.673 l -4.057 -11.816 c -0.131 -0.381 -0.02 -0.804 0.282 -1.072 c 3.674 -3.265 8.482 -5.975 13.904 -7.837 c 10.502 -3.605 21.025 -3.163 26.193 1.097 c 0.29 0.24 0.421 0.622 0.339 0.989 c -1.458 6.536 -9.493 13.35 -19.992 16.955 C 65.328 41.784 60.646 42.611 56.311 42.611 z M 54.988 40.583 c 4.481 0.194 9.417 -0.596 14.346 -2.289 c 9.374 -3.219 16.86 -9.268 18.533 -14.891 c -4.775 -3.41 -14.402 -3.586 -23.771 -0.367 c -4.93 1.693 -9.314 4.108 -12.726 7.006 L 54.988 40.583 z" style="stroke: none; stroke-width: 1; stroke-dasharray: none; stroke-linecap: butt; stroke-linejoin: miter; stroke-miterlimit: 10; fill: rgb(0,0,0); fill-rule: nonzero; opacity: 1;" transform=" matrix(1 0 0 1 0 0) " stroke-linecap="round" />
	<path d="M 52.483 51.716 c -0.237 0 -0.472 -0.085 -0.656 -0.245 c -0.27 -0.234 -0.394 -0.595 -0.325 -0.945 l 1.778 -9.171 c 0.096 -0.495 0.551 -0.842 1.047 -0.808 c 3.421 0.227 7.282 -0.164 11.155 -1.12 c 0.406 -0.101 0.834 0.064 1.067 0.41 c 0.234 0.347 0.229 0.803 -0.016 1.144 l -5.499 7.66 c -0.121 0.169 -0.292 0.296 -0.487 0.362 l -7.739 2.657 C 52.701 51.698 52.592 51.716 52.483 51.716 z M 55.078 42.588 l -1.284 6.62 l 5.802 -1.991 l 3.799 -5.293 C 60.523 42.456 57.696 42.683 55.078 42.588 z M 60.222 48.058 h 0.01 H 60.222 z" style="stroke: none; stroke-width: 1; stroke-dasharray: none; stroke-linecap: butt; stroke-linejoin: miter; stroke-miterlimit: 10; fill: rgb(0,0,0); fill-rule: nonzero; opacity: 1;" transform=" matrix(1 0 0 1 0 0) " stroke-linecap="round" />
	<path d="M 50.204 30.729 c -0.234 0 -0.47 -0.082 -0.658 -0.247 l -7.036 -6.144 c -0.269 -0.235 -0.392 -0.595 -0.324 -0.946 c 0.069 -0.351 0.319 -0.638 0.657 -0.753 l 7.739 -2.656 c 0.195 -0.067 0.407 -0.072 0.607 -0.013 l 9.046 2.666 c 0.401 0.118 0.687 0.475 0.715 0.893 c 0.027 0.418 -0.208 0.809 -0.591 0.98 c -3.643 1.625 -6.924 3.689 -9.491 5.969 C 50.679 30.644 50.441 30.729 50.204 30.729 z M 45.129 23.969 l 5.08 4.435 c 2.01 -1.684 4.378 -3.24 6.971 -4.585 l -6.25 -1.842 L 45.129 23.969 z" style="stroke: none; stroke-width: 1; stroke-dasharray: none; stroke-linecap: butt; stroke-linejoin: miter; stroke-miterlimit: 10; fill: rgb(0,0,0); fill-rule: nonzero; opacity: 1;" transform=" matrix(1 0 0 1 0 0) " stroke-linecap="round" />
	<path d="M 70.607 35.146 c -2.416 0 -4.678 -1.518 -5.505 -3.927 c -0.504 -1.469 -0.406 -3.047 0.275 -4.442 c 0.683 -1.396 1.867 -2.442 3.336 -2.947 c 0 0 0 0 0.001 0 c 1.467 -0.503 3.046 -0.406 4.442 0.275 c 1.396 0.682 2.442 1.867 2.947 3.336 c 1.04 3.032 -0.58 6.347 -3.612 7.389 C 71.868 35.044 71.232 35.146 70.607 35.146 z M 69.364 25.722 c -0.965 0.331 -1.742 1.018 -2.19 1.933 c -0.447 0.915 -0.512 1.95 -0.181 2.914 c 0.683 1.988 2.853 3.052 4.848 2.37 c 1.988 -0.683 3.052 -2.858 2.368 -4.848 c -0.33 -0.964 -1.017 -1.741 -1.933 -2.189 C 71.364 25.456 70.329 25.392 69.364 25.722 L 69.364 25.722 z" style="stroke: none; stroke-width: 1; stroke-dasharray: none; stroke-linecap: butt; stroke-linejoin: miter; stroke-miterlimit: 10; fill: rgb(0,0,0); fill-rule: nonzero; opacity: 1;" transform=" matrix(1 0 0 1 0 0) " stroke-linecap="round" />
	<path d="M 45.043 41.231 c -1.657 0 -3.091 -0.399 -4.042 -1.185 c -0.291 -0.24 -0.422 -0.622 -0.34 -0.989 c 0.48 -2.149 2.923 -4.27 6.225 -5.404 c 1.652 -0.567 3.319 -0.815 4.828 -0.716 c 0.402 0.026 0.749 0.292 0.881 0.673 l 1.169 3.405 c 0.131 0.381 0.02 0.804 -0.282 1.072 c -1.127 1.003 -2.596 1.833 -4.247 2.4 C 47.781 40.985 46.343 41.231 45.043 41.231 z M 42.87 38.852 c 1.194 0.504 3.315 0.567 5.714 -0.256 c 1.144 -0.393 2.208 -0.947 3.061 -1.589 l -0.717 -2.089 c -1.068 0.018 -2.248 0.234 -3.392 0.627 C 45.137 36.368 43.502 37.721 42.87 38.852 z" style="stroke: none; stroke-width: 1; stroke-dasharray: none; stroke-linecap: butt; stroke-linejoin: miter; stroke-miterlimit: 10; fill: rgb(0,0,0); fill-rule: nonzero; opacity: 1;" transform=" matrix(1 0 0 1 0 0) " stroke-linecap="round" />
	<path d="M 14.712 86.664 c -3.769 0 -7.539 -1.435 -10.408 -4.304 c -5.739 -5.74 -5.739 -15.077 0 -20.817 c 2.086 -2.086 4.713 -3.484 7.598 -4.041 c 2.423 -0.471 4.944 -0.322 7.293 0.426 c 2.217 0.707 4.266 1.957 5.926 3.616 c 5.739 5.74 5.739 15.077 0 20.817 C 22.252 85.229 18.482 86.664 14.712 86.664 z M 14.71 59.233 c -0.813 0 -1.626 0.077 -2.427 0.231 c -2.491 0.482 -4.761 1.69 -6.564 3.492 c -4.959 4.959 -4.959 13.029 0 17.989 c 4.959 4.959 13.029 4.96 17.988 0 c 4.959 -4.959 4.959 -13.029 0 -17.989 c -1.455 -1.454 -3.177 -2.505 -5.119 -3.123 C 17.334 59.434 16.023 59.233 14.71 59.233 z" style="stroke: none; stroke-width: 1; stroke-dasharray: none; stroke-linecap: butt; stroke-linejoin: miter; stroke-miterlimit: 10; fill: rgb(0,0,0); fill-rule: nonzero; opacity: 1;" transform=" matrix(1 0 0 1 0 0) " stroke-linecap="round" />
	<path d="M 21.015 53.409 c -0.211 0 -0.423 -0.066 -0.605 -0.204 c -0.439 -0.334 -0.525 -0.962 -0.19 -1.401 c 3.316 -4.36 7.963 -7.957 13.813 -10.69 c 0.501 -0.23 1.096 -0.017 1.33 0.483 c 0.233 0.501 0.018 1.096 -0.483 1.33 c -5.554 2.594 -9.95 5.988 -13.068 10.088 C 21.615 53.274 21.317 53.409 21.015 53.409 z" style="stroke: none; stroke-width: 1; stroke-dasharray: none; stroke-linecap: butt; stroke-linejoin: miter; stroke-miterlimit: 10; fill: rgb(0,0,0); fill-rule: nonzero; opacity: 1;" transform=" matrix(1 0 0 1 0 0) " stroke-linecap="round" />
	<path d="M 19.302 80.711 c -2.019 0 -3.661 -1.642 -3.661 -3.66 c 0 -2.019 1.642 -3.66 3.661 -3.66 c 2.018 0 3.66 1.642 3.66 3.66 c 0 0.553 -0.448 1 -1 1 c -0.552 0 -1 -0.447 -1 -1 c 0 -0.915 -0.745 -1.66 -1.66 -1.66 s -1.661 0.745 -1.661 1.66 c 0 0.915 0.745 1.66 1.661 1.66 c 0.552 0 1 0.447 1 1 C 20.302 80.264 19.855 80.711 19.302 80.711 z" style="stroke: none; stroke-width: 1; stroke-dasharray: none; stroke-linecap: butt; stroke-linejoin: miter; stroke-miterlimit: 10; fill: rgb(0,0,0); fill-rule: nonzero; opacity: 1;" transform=" matrix(1 0 0 1 0 0) " stroke-linecap="round" />
	<path d="M 11.657 74.022 c -3.146 0 -5.705 -2.559 -5.705 -5.705 c 0 -0.553 0.448 -1 1 -1 s 1 0.447 1 1 c 0 2.042 1.662 3.704 3.705 3.704 s 3.704 -1.662 3.704 -3.704 c 0 -2.043 -1.662 -3.705 -3.704 -3.705 c -0.552 0 -1 -0.447 -1 -1 s 0.448 -1 1 -1 c 3.145 0 5.705 2.56 5.705 5.706 C 17.362 71.464 14.802 74.022 11.657 74.022 z" style="stroke: none; stroke-width: 1; stroke-dasharray: none; stroke-linecap: butt; stroke-linejoin: miter; stroke-miterlimit: 10; fill: rgb(0,0,0); fill-rule: nonzero; opacity: 1;" transform=" matrix(1 0 0 1 0 0) " stroke-linecap="round" />
	<path d="M 77.219 81.316 c -0.27 0 -0.52 -0.1 -0.71 -0.29 c -0.19 -0.189 -0.29 -0.45 -0.29 -0.71 c 0 -0.13 0.021 -0.26 0.08 -0.38 c 0.05 -0.12 0.12 -0.24 0.21 -0.33 c 0.37 -0.37 1.04 -0.37 1.42 0 c 0.09 0.09 0.16 0.2 0.21 0.33 c 0.05 0.12 0.08 0.25 0.08 0.38 c 0 0.13 -0.03 0.26 -0.08 0.38 c -0.05 0.12 -0.12 0.23 -0.21 0.33 C 77.74 81.216 77.49 81.316 77.219 81.316 z" style="stroke: none; stroke-width: 1; stroke-dasharray: none; stroke-linecap: butt; stroke-linejoin: miter; stroke-miterlimit: 10; fill: rgb(0,0,0); fill-rule: nonzero; opacity: 1;" transform=" matrix(1 0 0 1 0 0) " stroke-linecap="round" />
	<path d="M 9.744 12.771 c -0.26 0 -0.52 -0.1 -0.71 -0.29 c -0.18 -0.19 -0.29 -0.45 -0.29 -0.71 c 0 -0.26 0.11 -0.52 0.29 -0.71 c 0.38 -0.37 1.05 -0.37 1.42 0 c 0.19 0.19 0.29 0.45 0.29 0.71 c 0 0.27 -0.1 0.52 -0.29 0.71 c -0.05 0.05 -0.1 0.09 -0.15 0.12 c -0.06 0.04 -0.11 0.07 -0.17 0.1 c -0.06 0.02 -0.13 0.04 -0.19 0.05 C 9.874 12.771 9.814 12.771 9.744 12.771 z" style="stroke: none; stroke-width: 1; stroke-dasharray: none; stroke-linecap: butt; stroke-linejoin: miter; stroke-miterlimit: 10; fill: rgb(0,0,0); fill-rule: nonzero; opacity: 1;" transform=" matrix(1 0 0 1 0 0) " stroke-linecap="round" />
	<path d="M 39.736 59.755 c -0.27 0 -0.52 -0.101 -0.71 -0.29 c -0.19 -0.19 -0.29 -0.44 -0.29 -0.71 c 0 -0.13 0.02 -0.26 0.07 -0.38 c 0.06 -0.12 0.13 -0.23 0.22 -0.33 c 0.09 -0.09 0.2 -0.16 0.33 -0.21 c 0.36 -0.16 0.8 -0.07 1.09 0.21 c 0.09 0.1 0.16 0.21 0.21 0.33 c 0.05 0.12 0.08 0.25 0.08 0.38 c 0 0.27 -0.11 0.52 -0.29 0.71 C 40.256 59.654 40.006 59.755 39.736 59.755 z" style="stroke: none; stroke-width: 1; stroke-dasharray: none; stroke-linecap: butt; stroke-linejoin: miter; stroke-miterlimit: 10; fill: rgb(0,0,0); fill-rule: nonzero; opacity: 1;" transform=" matrix(1 0 0 1 0 0) " stroke-linecap="round" />
	<path d="M 30.235 22.911 c -0.06 0 -0.13 -0.01 -0.19 -0.02 c -0.07 -0.02 -0.13 -0.04 -0.19 -0.06 c -0.06 -0.03 -0.12 -0.06 -0.17 -0.09 c -0.06 -0.04 -0.11 -0.08 -0.15 -0.13 c -0.1 -0.09 -0.17 -0.2 -0.22 -0.32 c -0.05 -0.12 -0.08 -0.25 -0.08 -0.38 c 0 -0.27 0.11 -0.52 0.3 -0.71 c 0.04 -0.05 0.09 -0.09 0.15 -0.13 c 0.05 -0.03 0.11 -0.06 0.17 -0.09 c 0.06 -0.02 0.12 -0.04 0.19 -0.05 c 0.19 -0.04 0.39 -0.02 0.58 0.05 c 0.12 0.05 0.23 0.13 0.32 0.22 c 0.19 0.19 0.29 0.44 0.29 0.71 c 0 0.13 -0.02 0.26 -0.07 0.38 c -0.06 0.12 -0.13 0.23 -0.22 0.32 c -0.09 0.1 -0.2 0.17 -0.32 0.22 C 30.496 22.882 30.365 22.911 30.235 22.911 z" style="stroke: none; stroke-width: 1; stroke-dasharray: none; stroke-linecap: butt; stroke-linejoin: miter; stroke-miterlimit: 10; fill: rgb(0,0,0); fill-rule: nonzero; opacity: 1;" transform=" matrix(1 0 0 1 0 0) " stroke-linecap="round" />
	<path d="M 46.667 73.842 h -1.164 c -0.552 0 -1 -0.447 -1 -1 s 0.448 -1 1 -1 h 1.164 c 0.553 0 1 0.447 1 1 S 47.22 73.842 46.667 73.842 z" style="stroke: none; stroke-width: 1; stroke-dasharray: none; stroke-linecap: butt; stroke-linejoin: miter; stroke-miterlimit: 10; fill: rgb(0,0,0); fill-rule: nonzero; opacity: 1;" transform=" matrix(1 0 0 1 0 0) " stroke-linecap="round" />
	<path d="M 52.503 73.842 h -1.165 c -0.553 0 -1 -0.447 -1 -1 s 0.447 -1 1 -1 h 1.165 c 0.553 0 1 0.447 1 1 S 53.056 73.842 52.503 73.842 z" style="stroke: none; stroke-width: 1; stroke-dasharray: none; stroke-linecap: butt; stroke-linejoin: miter; stroke-miterlimit: 10; fill: rgb(0,0,0); fill-rule: nonzero; opacity: 1;" transform=" matrix(1 0 0 1 0 0) " stroke-linecap="round" />
	<path d="M 49.003 71.506 c -0.553 0 -1 -0.447 -1 -1 v -1.164 c 0 -0.553 0.447 -1 1 -1 c 0.553 0 1 0.447 1 1 v 1.164 C 50.003 71.058 49.556 71.506 49.003 71.506 z" style="stroke: none; stroke-width: 1; stroke-dasharray: none; stroke-linecap: butt; stroke-linejoin: miter; stroke-miterlimit: 10; fill: rgb(0,0,0); fill-rule: nonzero; opacity: 1;" transform=" matrix(1 0 0 1 0 0) " stroke-linecap="round" />
	<path d="M 49.003 77.342 c -0.553 0 -1 -0.447 -1 -1 v -1.164 c 0 -0.553 0.447 -1 1 -1 c 0.553 0 1 0.447 1 1 v 1.164 C 50.003 76.895 49.556 77.342 49.003 77.342 z" style="stroke: none; stroke-width: 1; stroke-dasharray: none; stroke-linecap: butt; stroke-linejoin: miter; stroke-miterlimit: 10; fill: rgb(0,0,0); fill-rule: nonzero; opacity: 1;" transform=" matrix(1 0 0 1 0 0) " stroke-linecap="round" />
	<path d="M 56.668 8.836 h -1.164 c -0.553 0 -1 -0.448 -1 -1 s 0.447 -1 1 -1 h 1.164 c 0.553 0 1 0.448 1 1 S 57.22 8.836 56.668 8.836 z" style="stroke: none; stroke-width: 1; stroke-dasharray: none; stroke-linecap: butt; stroke-linejoin: miter; stroke-miterlimit: 10; fill: rgb(0,0,0); fill-rule: nonzero; opacity: 1;" transform=" matrix(1 0 0 1 0 0) " stroke-linecap="round" />
	<path d="M 62.504 8.836 h -1.165 c -0.553 0 -1 -0.448 -1 -1 s 0.447 -1 1 -1 h 1.165 c 0.553 0 1 0.448 1 1 S 63.057 8.836 62.504 8.836 z" style="stroke: none; stroke-width: 1; stroke-dasharray: none; stroke-linecap: butt; stroke-linejoin: miter; stroke-miterlimit: 10; fill: rgb(0,0,0); fill-rule: nonzero; opacity: 1;" transform=" matrix(1 0 0 1 0 0) " stroke-linecap="round" />
	<path d="M 59.004 6.501 c -0.553 0 -1 -0.448 -1 -1 V 4.336 c 0 -0.552 0.447 -1 1 -1 s 1 0.448 1 1 v 1.165 C 60.004 6.053 59.556 6.501 59.004 6.501 z" style="stroke: none; stroke-width: 1; stroke-dasharray: none; stroke-linecap: butt; stroke-linejoin: miter; stroke-miterlimit: 10; fill: rgb(0,0,0); fill-rule: nonzero; opacity: 1;" transform=" matrix(1 0 0 1 0 0) " stroke-linecap="round" />
	<path d="M 59.004 12.337 c -0.553 0 -1 -0.448 -1 -1 v -1.165 c 0 -0.552 0.447 -1 1 -1 s 1 0.448 1 1 v 1.165 C 60.004 11.889 59.556 12.337 59.004 12.337 z" style="stroke: none; stroke-width: 1; stroke-dasharray: none; stroke-linecap: butt; stroke-linejoin: miter; stroke-miterlimit: 10; fill: rgb(0,0,0); fill-rule: nonzero; opacity: 1;" transform=" matrix(1 0 0 1 0 0) " stroke-linecap="round" />
</g>
</g>
</svg>