<svg height="512pt" viewBox="0 0 512 512" width="512pt" xmlns="http://www.w3.org/2000/svg" xmlns:xlink="http://www.w3.org/1999/xlink"><linearGradient id="a" gradientUnits="userSpaceOnUse" x1="0" x2="512" y1="256" y2="256"><stop offset="0" stop-color="#00f2fe"/><stop offset=".0208" stop-color="#03effe"/><stop offset=".2931" stop-color="#24d2fe"/><stop offset=".5538" stop-color="#3cbdfe"/><stop offset=".7956" stop-color="#4ab0fe"/><stop offset="1" stop-color="#4facfe"/></linearGradient><path d="m492 352c11.046875 0 20-8.953125 20-20v-252c0-44.113281-35.886719-80-80-80h-352c-44.113281 0-80 35.886719-80 80v352c0 44.113281 35.886719 80 80 80h352c44.113281 0 80-35.886719 80-80 0-11.046875-8.953125-20-20-20s-20 8.953125-20 20c0 22.054688-17.945312 40-40 40h-98v-146h46.289062c10.121094 0 18.648438-7.5625 19.859376-17.609375l2.648437-22c1.429687-11.90625-7.863281-22.390625-19.859375-22.390625h-48.9375v-67c0-16.570312 13.429688-30 30-30h25c11.046875 0 20-8.953125 20-20v-20.230469c0-10.246093-7.738281-18.855469-17.933594-19.894531-10.140625-1.03125-20.871094-1.875-27.066406-1.875-23.324219 0-46.703125 9.839844-64.140625 26.992188-17.964844 17.671874-27.859375 40.820312-27.859375 65.183593v66.824219h-45c-11.046875 0-20 8.953125-20 20v22c0 11.046875 8.953125 20 20 20h45v146h-192c-22.054688 0-40-17.945312-40-40v-352c0-22.054688 17.945312-40 40-40h352c22.054688 0 40 17.945312 40 40v252c0 11.046875 8.953125 20 20 20zm0 0" fill="url(#a)"/></svg>