<?xml version="1.0" encoding="iso-8859-1"?>
<!-- Generator: Adobe Illustrator 19.0.0, SVG Export Plug-In . SVG Version: 6.00 Build 0)  -->
<svg version="1.1" id="Capa_1" xmlns="http://www.w3.org/2000/svg" xmlns:xlink="http://www.w3.org/1999/xlink" x="0px" y="0px"
	 viewBox="0 0 512 512" style="enable-background:new 0 0 512 512;" xml:space="preserve">
<linearGradient id="SVGID_1_" gradientUnits="userSpaceOnUse" x1="0" y1="258" x2="512" y2="258" gradientTransform="matrix(1 0 0 -1 0 514)">
	<stop  offset="0" style="stop-color:#00F2FE"/>
	<stop  offset="0.021" style="stop-color:#03EFFE"/>
	<stop  offset="0.293" style="stop-color:#24D2FE"/>
	<stop  offset="0.554" style="stop-color:#3CBDFE"/>
	<stop  offset="0.796" style="stop-color:#4AB0FE"/>
	<stop  offset="1" style="stop-color:#4FACFE"/>
</linearGradient>
<path style="fill:url(#SVGID_1_);" d="M363.272,512H148.728C66.719,512,0,445.281,0,363.272V148.728C0,66.719,66.719,0,148.728,0
	h214.545C445.281,0,512,66.719,512,148.728V343c0,11.046-8.954,20-20,20s-20-8.954-20-20V148.728C472,88.775,423.225,40,363.272,40
	H148.728C88.775,40,40,88.775,40,148.728v214.545C40,423.225,88.775,472,148.728,472h214.545c34.315,0,65.91-15.705,86.685-43.088
	c6.677-8.802,19.224-10.521,28.021-3.846c8.8,6.676,10.521,19.222,3.846,28.021c-13.576,17.896-31.313,32.718-51.293,42.864
	C409.563,506.601,386.934,512,363.272,512z M394,256c0-76.094-61.906-138-138-138s-138,61.906-138,138s61.906,138,138,138
	S394,332.094,394,256z M354,256c0,54.037-43.963,98-98,98s-98-43.963-98-98s43.963-98,98-98S354,201.963,354,256z M376,116
	c0,11.046,8.954,20,20,20s20-8.954,20-20s-8.954-20-20-20S376,104.954,376,116z"/>
<g>
</g>
<g>
</g>
<g>
</g>
<g>
</g>
<g>
</g>
<g>
</g>
<g>
</g>
<g>
</g>
<g>
</g>
<g>
</g>
<g>
</g>
<g>
</g>
<g>
</g>
<g>
</g>
<g>
</g>
</svg>
