<svg xmlns="http://www.w3.org/2000/svg" xmlns:xlink="http://www.w3.org/1999/xlink" width="146.029" height="53.796" viewBox="0 0 146.029 53.796"><defs><linearGradient id="a" x1="0.998" y1="0.998" x2="-0.528" y2="-0.527" gradientUnits="objectBoundingBox"><stop offset="0" stop-color="#0740a5"/><stop offset="0.489" stop-color="#00abe9"/><stop offset="0.999" stop-color="#ff2a95"/></linearGradient><linearGradient id="b" x1="0.275" y1="0.276" x2="0.927" y2="0.928" gradientUnits="objectBoundingBox"><stop offset="0" stop-color="#044cb0"/><stop offset="0.444" stop-color="#0477c8"/><stop offset="1" stop-color="#024ba8"/></linearGradient><linearGradient id="c" x1="1.856" y1="1.855" x2="0.33" y2="0.33" xlink:href="#a"/><linearGradient id="d" x1="3.029" y1="3.03" x2="0.087" y2="0.086" xlink:href="#a"/><linearGradient id="e" x1="1.21" y1="1.328" x2="0.085" y2="-0.249" xlink:href="#a"/><linearGradient id="f" x1="0.28" y1="0.024" x2="0.544" y2="0.394" gradientUnits="objectBoundingBox"><stop offset="0" stop-color="#a50770"/><stop offset="1" stop-color="#04a9e8"/></linearGradient></defs><g transform="translate(-49.33 -50.321)"><g transform="translate(49.33 50.321)"><path d="M466.383,70.058l30.669,30.675a11.551,11.551,0,0,0,16.338,0h0a11.553,11.553,0,0,0,0-16.337L482.717,53.725a11.3,11.3,0,0,0-8.081-3.4,11.57,11.57,0,0,0-8.253,19.737Z" transform="translate(-370.745 -50.321)" fill="url(#a)"/><path d="M466.383,70.058l30.669,30.675a11.551,11.551,0,0,0,16.338,0h0a11.553,11.553,0,0,0,0-16.337L482.717,53.725a11.3,11.3,0,0,0-8.081-3.4,11.57,11.57,0,0,0-8.253,19.737Z" transform="translate(-370.745 -50.321)" fill="url(#b)"/><path d="M166.8,70.058l-30.668,30.675a11.551,11.551,0,0,1-16.338,0h0a11.553,11.553,0,0,1,0-16.337l30.672-30.671a11.3,11.3,0,0,1,8.082-3.4A11.569,11.569,0,0,1,166.8,70.058Z" transform="translate(-116.408 -50.321)" fill="url(#c)"/><g transform="translate(30.704 0.008)"><path d="M251.494,53.738a11.55,11.55,0,0,0-16.334,16.335l8.144,8.146,16.333-16.336Z" transform="translate(-231.753 -50.354)" fill="url(#d)"/><path d="M336.511,50.355a11.548,11.548,0,0,0-8.169,3.384L309.852,72.23a5.677,5.677,0,0,1-8.026,0L291.478,61.882,275.144,78.217,294.7,97.77a15.756,15.756,0,0,0,22.283,0l27.7-27.7A11.55,11.55,0,0,0,336.511,50.355Z" transform="translate(-263.594 -50.354)" fill="url(#e)"/><path d="M336.088,50.359a11.758,11.758,0,0,0-7.875,3.506L309.851,72.227a5.677,5.677,0,0,1-8.026,0h0a14.634,14.634,0,0,0-20.7,0l-5.987,5.987L294.7,97.767a15.756,15.756,0,0,0,22.283,0l27.7-27.7A11.551,11.551,0,0,0,336.088,50.359Z" transform="translate(-263.593 -50.352)" fill="url(#f)"/></g></g></g></svg>