<svg xmlns="http://www.w3.org/2000/svg" xmlns:xlink="http://www.w3.org/1999/xlink" width="199.05" height="131.526" viewBox="0 0 199.05 131.526"><defs><linearGradient id="a" y1="0.129" x2="0.991" y2="1" gradientUnits="objectBoundingBox"><stop offset="0" stop-color="#30cfd0"/><stop offset="1" stop-color="#b631a7"/></linearGradient><linearGradient id="b" x1="0.998" y1="0.998" x2="-0.528" y2="-0.527" gradientUnits="objectBoundingBox"><stop offset="0" stop-color="#0740a5"/><stop offset="0.489" stop-color="#00abe9"/><stop offset="0.999" stop-color="#ff2a95"/></linearGradient><linearGradient id="c" x1="0.275" y1="0.276" x2="0.927" y2="0.928" gradientUnits="objectBoundingBox"><stop offset="0" stop-color="#044cb0"/><stop offset="0.444" stop-color="#0477c8"/><stop offset="1" stop-color="#024ba8"/></linearGradient><linearGradient id="d" x1="1.856" y1="1.855" x2="0.33" y2="0.33" xlink:href="#b"/><linearGradient id="e" x1="3.029" y1="3.03" x2="0.087" y2="0.086" xlink:href="#b"/><linearGradient id="f" x1="1.21" y1="1.328" x2="0.085" y2="-0.249" xlink:href="#b"/><linearGradient id="g" x1="0.28" y1="0.024" x2="0.544" y2="0.394" gradientUnits="objectBoundingBox"><stop offset="0" stop-color="#a50770"/><stop offset="1" stop-color="#04a9e8"/></linearGradient></defs><g transform="translate(-24.997 -50.321)"><g transform="translate(24.997 147.064)"><path d="M20.175-41.737l-.021-8.931-4.381,7.357H14.221L9.862-50.477v8.739H6.63V-56.622H9.478l5.572,9.25,5.486-9.25h2.829l.041,14.885Zm13.97.255a8.688,8.688,0,0,1-4.178-1,7.418,7.418,0,0,1-2.914-2.752A7.517,7.517,0,0,1,26-49.18a7.517,7.517,0,0,1,1.053-3.944,7.418,7.418,0,0,1,2.914-2.754,8.688,8.688,0,0,1,4.179-1,8.626,8.626,0,0,1,4.168,1,7.513,7.513,0,0,1,2.913,2.754,7.46,7.46,0,0,1,1.063,3.944,7.46,7.46,0,0,1-1.063,3.944,7.513,7.513,0,0,1-2.915,2.752,8.626,8.626,0,0,1-4.168,1Zm0-2.934a4.723,4.723,0,0,0,2.382-.606,4.349,4.349,0,0,0,1.669-1.69,4.969,4.969,0,0,0,.606-2.467,4.969,4.969,0,0,0-.606-2.467,4.349,4.349,0,0,0-1.669-1.69,4.723,4.723,0,0,0-2.382-.606,4.723,4.723,0,0,0-2.382.606,4.349,4.349,0,0,0-1.669,1.69,4.969,4.969,0,0,0-.606,2.466,4.969,4.969,0,0,0,.606,2.467,4.349,4.349,0,0,0,1.669,1.69,4.723,4.723,0,0,0,2.382.606ZM44.883-56.622h6.761a9.5,9.5,0,0,1,4.286.925,6.926,6.926,0,0,1,2.892,2.6,7.327,7.327,0,0,1,1.031,3.913,7.327,7.327,0,0,1-1.031,3.913,6.926,6.926,0,0,1-2.892,2.6,9.5,9.5,0,0,1-4.286.924H44.884Zm6.593,12.056a5,5,0,0,0,3.562-1.244,4.393,4.393,0,0,0,1.329-3.37,4.393,4.393,0,0,0-1.329-3.37,5,5,0,0,0-3.562-1.244H48.328v9.228Zm22.5.064v2.764H62.447V-56.622H73.7v2.764H65.87v3.232H72.78v2.679h-6.91V-44.5ZM86.2-41.737l-2.871-4.147H80.16v4.147H76.715V-56.622h6.442a8.269,8.269,0,0,1,3.434.659,5.1,5.1,0,0,1,2.243,1.871,5.155,5.155,0,0,1,.787,2.871,5.052,5.052,0,0,1-.8,2.86,5.054,5.054,0,0,1-2.265,1.839l3.34,4.784Zm-.064-9.483a2.358,2.358,0,0,0-.808-1.924,3.618,3.618,0,0,0-2.36-.67H80.16v5.188h2.807a3.579,3.579,0,0,0,2.36-.68,2.364,2.364,0,0,0,.807-1.914Zm19.86-5.4v14.885h-2.828l-7.421-9.037v9.037h-3.4V-56.622h2.848l7.4,9.037v-9.037Zm13.332,11.7h-6.911l-1.318,3.19h-3.53L114.2-56.622h3.4l6.655,14.885h-3.615Zm-1.084-2.615-2.36-5.7-2.36,5.7Zm27.133,5.8-.021-8.931-4.38,7.357h-1.552l-4.359-7.166v8.739h-3.232V-56.622h2.848l5.573,9.25,5.486-9.25h2.828l.042,14.885ZM163.663-44.5v2.764H152.138V-56.622h11.248v2.764H155.56v3.232h6.911v2.679h-6.909V-44.5Zm2.742-12.12h6.761a9.5,9.5,0,0,1,4.286.925,6.926,6.926,0,0,1,2.892,2.6,7.327,7.327,0,0,1,1.031,3.913,7.327,7.327,0,0,1-1.031,3.913,6.926,6.926,0,0,1-2.892,2.6,9.5,9.5,0,0,1-4.285.924h-6.761ZM173-44.565a5,5,0,0,0,3.562-1.244,4.393,4.393,0,0,0,1.329-3.37,4.394,4.394,0,0,0-1.329-3.37A5,5,0,0,0,173-53.794H169.85v9.228Zm10.972-12.057h3.445v14.885h-3.445Zm16.777,11.7h-6.91l-1.318,3.19h-3.53l6.633-14.885h3.4l6.657,14.885h-3.615Zm-1.084-2.615-2.36-5.7-2.36,5.7Z" transform="translate(-6.63 56.878)" fill="url(#a)"/><text transform="translate(17.773 31.783)" fill="#333" font-size="13" font-family="Montserrat-Light, Montserrat" font-weight="300"><tspan x="0" y="0">Moderniserer bedriften</tspan></text></g><g transform="translate(49.33 50.321)"><path d="M466.383,70.058l30.669,30.675a11.551,11.551,0,0,0,16.338,0h0a11.553,11.553,0,0,0,0-16.337L482.717,53.725a11.3,11.3,0,0,0-8.081-3.4,11.57,11.57,0,0,0-8.253,19.737Z" transform="translate(-370.745 -50.321)" fill="url(#b)"/><path d="M466.383,70.058l30.669,30.675a11.551,11.551,0,0,0,16.338,0h0a11.553,11.553,0,0,0,0-16.337L482.717,53.725a11.3,11.3,0,0,0-8.081-3.4,11.57,11.57,0,0,0-8.253,19.737Z" transform="translate(-370.745 -50.321)" fill="url(#c)"/><path d="M166.8,70.058l-30.668,30.675a11.551,11.551,0,0,1-16.338,0h0a11.553,11.553,0,0,1,0-16.337l30.672-30.671a11.3,11.3,0,0,1,8.082-3.4A11.569,11.569,0,0,1,166.8,70.058Z" transform="translate(-116.408 -50.321)" fill="url(#d)"/><g transform="translate(30.704 0.008)"><path d="M251.494,53.738a11.55,11.55,0,0,0-16.334,16.335l8.144,8.146,16.333-16.336Z" transform="translate(-231.753 -50.354)" fill="url(#e)"/><path d="M336.511,50.355a11.548,11.548,0,0,0-8.169,3.384L309.852,72.23a5.677,5.677,0,0,1-8.026,0L291.478,61.882,275.144,78.217,294.7,97.77a15.756,15.756,0,0,0,22.283,0l27.7-27.7A11.55,11.55,0,0,0,336.511,50.355Z" transform="translate(-263.594 -50.354)" fill="url(#f)"/><path d="M336.088,50.359a11.758,11.758,0,0,0-7.875,3.506L309.851,72.227a5.677,5.677,0,0,1-8.026,0h0a14.634,14.634,0,0,0-20.7,0l-5.987,5.987L294.7,97.767a15.756,15.756,0,0,0,22.283,0l27.7-27.7A11.551,11.551,0,0,0,336.088,50.359Z" transform="translate(-263.593 -50.352)" fill="url(#g)"/></g></g></g></svg>