<svg height="512" viewBox="0 0 32 32" width="512" xmlns="http://www.w3.org/2000/svg" xmlns:xlink="http://www.w3.org/1999/xlink"><linearGradient id="linear-gradient" gradientUnits="userSpaceOnUse" x1="2" x2="30" y1="16" y2="16"><stop offset="0" stop-color="#24b5f7"/><stop offset=".74" stop-color="#8e3cfa"/><stop offset="1" stop-color="#b510fb"/></linearGradient><g id="Layer_49" data-name="Layer 49"><path d="m30 16a14 14 0 1 1 -14-14 1 1 0 0 1 0 2 12 12 0 1 0 12 12 1 1 0 0 1 2 0zm-10.38-11.45a12 12 0 0 1 7.81 7.77 1 1 0 0 0 .95.7 1 1 0 0 0 .3 0 1 1 0 0 0 .65-1.26 14 14 0 0 0 -9.11-9.06 1 1 0 1 0 -.6 1.9zm-3.62 2.45a1 1 0 0 0 -1 1v8a1 1 0 0 0 .29.71l4.19 4.19a1 1 0 0 0 .71.29 1 1 0 0 0 .71-.29 1 1 0 0 0 0-1.42l-3.9-3.89v-7.59a1 1 0 0 0 -1-1z" fill="url(#linear-gradient)"/></g></svg>