<?xml version="1.0" encoding="UTF-8"?>
<svg xmlns="http://www.w3.org/2000/svg" xmlns:xlink="http://www.w3.org/1999/xlink" width="512" height="512" viewBox="0 0 128 128"><defs><linearGradient id="a" x1="105.634" y1="114.841" x2="22.366" y2="31.574" gradientUnits="userSpaceOnUse"><stop offset="0" stop-color="#fc68c0"/><stop offset="1" stop-color="#3edbff"/></linearGradient></defs><path d="M109,35.666H89.75V19A1.75,1.75,0,0,0,88,17.25H40A1.75,1.75,0,0,0,38.25,19V35.666H19a1.749,1.749,0,0,0-1.75,1.75V69.768a1.75,1.75,0,0,0,3.5,0v-30.6h17.5V107.25H20.75V91.442a1.75,1.75,0,0,0-3.5,0V109A1.75,1.75,0,0,0,19,110.75h90a1.75,1.75,0,0,0,1.75-1.75V37.416A1.749,1.749,0,0,0,109,35.666Zm-67.25,1.75V20.75h44.5v86.5H77.463V90.7a1.5,1.5,0,0,0-1.5-1.5H52.037a1.5,1.5,0,0,0-1.5,1.5V107.25H41.75ZM53.537,107.25V92.2H62.5V107.25Zm11.963,0V92.2h8.963V107.25Zm41.75,0H89.75V39.166h17.5ZM95.315,70.161h6.37a1.5,1.5,0,0,0,1.5-1.5v-6.37a1.5,1.5,0,0,0-1.5-1.5h-6.37a1.5,1.5,0,0,0-1.5,1.5v6.37A1.5,1.5,0,0,0,95.315,70.161Zm1.5-6.37h3.37v3.37h-3.37Zm-1.5,21.934h6.37a1.5,1.5,0,0,0,1.5-1.5v-6.37a1.5,1.5,0,0,0-1.5-1.5h-6.37a1.5,1.5,0,0,0-1.5,1.5v6.37A1.5,1.5,0,0,0,95.315,85.725Zm1.5-6.37h3.37v3.37h-3.37Zm-1.5,21.935h6.37a1.5,1.5,0,0,0,1.5-1.5V93.419a1.5,1.5,0,0,0-1.5-1.5h-6.37a1.5,1.5,0,0,0-1.5,1.5V99.79A1.5,1.5,0,0,0,95.315,101.29Zm1.5-6.371h3.37V98.29h-3.37ZM17.25,81.455V80.04a1.75,1.75,0,0,1,3.5,0v1.415a1.75,1.75,0,0,1-3.5,0Zm7.565-12.794a1.5,1.5,0,0,0,1.5,1.5h6.37a1.5,1.5,0,0,0,1.5-1.5v-6.37a1.5,1.5,0,0,0-1.5-1.5h-6.37a1.5,1.5,0,0,0-1.5,1.5Zm3-4.87h3.37v3.37h-3.37Zm67.5-9.194h6.37a1.5,1.5,0,0,0,1.5-1.5v-6.37a1.5,1.5,0,0,0-1.5-1.5h-6.37a1.5,1.5,0,0,0-1.5,1.5V53.1A1.5,1.5,0,0,0,95.315,54.6Zm1.5-6.37h3.37V51.6h-3.37Zm-70.5,6.37h6.37a1.5,1.5,0,0,0,1.5-1.5v-6.37a1.5,1.5,0,0,0-1.5-1.5h-6.37a1.5,1.5,0,0,0-1.5,1.5V53.1A1.5,1.5,0,0,0,26.315,54.6Zm1.5-6.37h3.37V51.6h-3.37ZM70,51.412h6.369a1.5,1.5,0,0,0,1.5-1.5v-6.37a1.5,1.5,0,0,0-1.5-1.5H70a1.5,1.5,0,0,0-1.5,1.5v6.37A1.5,1.5,0,0,0,70,51.412Zm1.5-6.37h3.369v3.37H71.5ZM70,66.6h6.369a1.5,1.5,0,0,0,1.5-1.5v-6.37a1.5,1.5,0,0,0-1.5-1.5H70a1.5,1.5,0,0,0-1.5,1.5V65.1A1.5,1.5,0,0,0,70,66.6Zm1.5-6.37h3.369V63.6H71.5ZM70,81.785h6.369a1.5,1.5,0,0,0,1.5-1.5V73.916a1.5,1.5,0,0,0-1.5-1.5H70a1.5,1.5,0,0,0-1.5,1.5v6.369A1.5,1.5,0,0,0,70,81.785Zm1.5-6.369h3.369v3.369H71.5Zm-19.875-24H58a1.5,1.5,0,0,0,1.5-1.5v-6.37a1.5,1.5,0,0,0-1.5-1.5H51.628a1.5,1.5,0,0,0-1.5,1.5v6.37A1.5,1.5,0,0,0,51.628,51.412Zm1.5-6.37H56.5v3.37H53.128ZM70,36.225h6.369a1.5,1.5,0,0,0,1.5-1.5v-6.37a1.5,1.5,0,0,0-1.5-1.5H70a1.5,1.5,0,0,0-1.5,1.5v6.37A1.5,1.5,0,0,0,70,36.225Zm1.5-6.37h3.369v3.37H71.5Zm-19.875,6.37H58a1.5,1.5,0,0,0,1.5-1.5v-6.37a1.5,1.5,0,0,0-1.5-1.5H51.628a1.5,1.5,0,0,0-1.5,1.5v6.37A1.5,1.5,0,0,0,51.628,36.225Zm1.5-6.37H56.5v3.37H53.128ZM51.628,66.6H58a1.5,1.5,0,0,0,1.5-1.5v-6.37a1.5,1.5,0,0,0-1.5-1.5H51.628a1.5,1.5,0,0,0-1.5,1.5V65.1A1.5,1.5,0,0,0,51.628,66.6Zm1.5-6.37H56.5V63.6H53.128Zm-1.5,21.556H58a1.5,1.5,0,0,0,1.5-1.5V73.916a1.5,1.5,0,0,0-1.5-1.5H51.628a1.5,1.5,0,0,0-1.5,1.5v6.369A1.5,1.5,0,0,0,51.628,81.785Zm1.5-6.369H56.5v3.369H53.128ZM24.815,84.225a1.5,1.5,0,0,0,1.5,1.5h6.37a1.5,1.5,0,0,0,1.5-1.5v-6.37a1.5,1.5,0,0,0-1.5-1.5h-6.37a1.5,1.5,0,0,0-1.5,1.5Zm3-4.87h3.37v3.37h-3.37Zm-3,20.435a1.5,1.5,0,0,0,1.5,1.5h6.37a1.5,1.5,0,0,0,1.5-1.5V93.419a1.5,1.5,0,0,0-1.5-1.5h-6.37a1.5,1.5,0,0,0-1.5,1.5Zm3-4.871h3.37V98.29h-3.37Z" fill="url(#a)"/></svg>
