<svg id="Layer_1" enable-background="new 0 0 450 450" height="512" viewBox="0 0 450 450" width="512" xmlns="http://www.w3.org/2000/svg" xmlns:xlink="http://www.w3.org/1999/xlink"><linearGradient id="SVGID_1_" gradientTransform="matrix(1 0 0 -1 0 450)" gradientUnits="userSpaceOnUse" x1="42.2" x2="380.7" y1="380.1" y2="41.6"><stop offset="0" stop-color="#00dbde"/><stop offset="1" stop-color="#fc00ff"/></linearGradient><path d="m421.1 300.6-51.5-51.5c-9-9-20.9-13.9-33.7-13.9s-24.7 4.9-33.7 13.9l-13.8 13.9c-19.2-14.6-37.7-30.8-55.1-48.2-16.6-16.5-32-34.1-46-52.2l14.2-14.2c18.6-18.6 18.6-48.8 0-67.4l-51.5-51.5c-9-9-20.9-13.9-33.7-13.9s-24.7 4.9-33.7 13.9l-53.6 53.6c-13.2 13.2-17.5 32.9-11 50.3 14.7 39.5 36.2 78.4 63.8 115.7 16.2 21.9 34.5 43 54.2 62.8 20.6 20.6 42.6 39.5 65.5 56.2 37.9 27.7 77.3 49 117.3 63.4 5.2 1.9 10.7 2.8 16.1 2.8 12.5 0 24.7-4.9 33.8-13.9l52.4-52.4c18.6-18.6 18.6-48.8 0-67.4zm-14.2 53.3-52.4 52.4c-7.5 7.5-18.9 10.1-28.9 6.5-38.2-13.8-75.9-34.2-112.2-60.8-22-16.1-43.3-34.3-63.1-54.2-19.1-19.1-36.7-39.5-52.3-60.6-26.5-35.8-47.1-73.1-61.2-110.8-3.8-10.1-1.3-21.6 6.4-29.2l53.6-53.6c5.2-5.2 12.1-8.1 19.6-8.1 7.4 0 14.4 2.9 19.6 8.1l51.5 51.5c10.8 10.8 10.8 28.3 0 39.1l-16.5 16.5c-5.7 5.7-6.4 14.9-1.4 21.4 15 19.8 31.8 38.9 49.8 56.8 18.9 18.9 39 36.4 59.8 52 6.4 4.8 15.6 4.2 21.3-1.5l16.1-16.1c5.2-5.2 12.1-8.1 19.6-8.1 7.4 0 14.4 2.9 19.6 8.1l51.5 51.5c10.4 10.8 10.4 28.3-.4 39.1z" fill="url(#SVGID_1_)"/></svg>