<svg id="Capa_1" enable-background="new 0 0 512.001 512.001" height="512" viewBox="0 0 512.001 512.001" width="512" xmlns="http://www.w3.org/2000/svg" xmlns:xlink="http://www.w3.org/1999/xlink"><linearGradient id="SVGID_1_" gradientUnits="userSpaceOnUse" x1="0" x2="512.001" y1="256" y2="256"><stop offset="0" stop-color="#80d8ff"/><stop offset="1" stop-color="#ea80fc"/></linearGradient><path d="m432 39.084h-352c-44.112 0-80 35.888-80 80v273.833c0 44.112 35.888 80 80 80h352c44.112 0 80-35.888 80-80v-255.011c.001-.112.001-.225 0-.337v-18.485c0-44.113-35.888-80-80-80zm40 353.833c0 22.056-17.944 40-40 40h-352c-22.056 0-40-17.944-40-40v-215.638l133.342 108.366c48.106 39.097 116.884 39.137 165.012.635l133.646-106.917zm0-264.779-158.634 126.908c-33.54 26.831-81.391 26.708-114.796-.442l-158.57-128.869v-6.652c0-22.056 17.944-40 40-40h352c22.056 0 40 17.944 40 40z" fill="url(#SVGID_1_)"/></svg>