<svg height="472pt" viewBox="-46 0 472 472.8" width="472pt" xmlns="http://www.w3.org/2000/svg" xmlns:xlink="http://www.w3.org/1999/xlink"><linearGradient id="a"><stop offset=".322" stop-color="#a163f5"/><stop offset=".466" stop-color="#b074ee"/><stop offset=".752" stop-color="#d8a1dd"/><stop offset=".898" stop-color="#efbad3"/></linearGradient><linearGradient id="b" gradientTransform="matrix(1 0 0 -1 -65.6 494.4)" gradientUnits="userSpaceOnUse" x1="267.523" x2="253.792" xlink:href="#a" y1="-38.416" y2="455.895"/><linearGradient id="c" gradientTransform="matrix(1 0 0 -1 -65.6 494.4)" gradientUnits="userSpaceOnUse" x1="257.993" x2="244.263" xlink:href="#a" y1="-38.681" y2="455.63"/><path d="m190.398438 236c65.171874 0 118-52.832031 118-118s-52.828126-118-118-118c-65.167969 0-118 52.832031-118 118 .050781 65.148438 52.851562 117.949219 118 118zm0-216c54.125 0 98 43.875 98 98s-43.875 98-98 98c-54.121094 0-98-43.875-98-98 .089843-54.085938 43.914062-97.914062 98-98zm0 0" fill="url(#b)"/><path d="m190.398438 265.5c-51.296876 0-99 19.898438-134.398438 56.101562-35.898438 36.699219-55.601562 86.796876-55.601562 141.199219.015624 5.515625 4.484374 9.984375 10 10h360c5.519531-.015625 9.984374-4.484375 10-10 0-54.300781-19.699219-104.5-55.597657-141.101562-35.402343-36.199219-83.101562-56.199219-134.402343-56.199219zm-169.796876 187.300781c2.199219-45.199219 19.699219-86.5 49.597657-117.101562 31.601562-32.300781 74.300781-50.097657 120.101562-50.097657s88.5 17.796876 120.097657 50.097657c30 30.601562 47.402343 71.902343 49.601562 117.101562zm0 0" fill="url(#c)"/></svg>