<svg height="480pt" viewBox="-112 0 480 480.03583" width="480pt" xmlns="http://www.w3.org/2000/svg" xmlns:xlink="http://www.w3.org/1999/xlink"><linearGradient id="a" gradientUnits="userSpaceOnUse" x1="128.017915" x2="128.017915" y1="577.939832" y2="-141.124168"><stop offset="0" stop-color="#12c2e9"/><stop offset=".5" stop-color="#c471ed"/><stop offset="1" stop-color="#f64f59"/></linearGradient><path d="m40.019531 480.035156h176c22.078125-.027344 39.972657-17.917968 40-40v-320c-.027343-22.078125-17.921875-39.972656-40-40h-56v-45.816406c.800781-11.945312-5.117187-23.339844-15.347656-29.558594-10.234375-6.214844-23.074219-6.214844-33.304687 0-10.234376 6.21875-16.152344 17.613282-15.347657 29.558594v45.816406h-56c-22.082031.027344-39.9765622 17.921875-39.9999998 40v320c.0234376 22.082032 17.9179688 39.972656 39.9999998 40zm72-445.816406c-.789062-6.199219 2.078125-12.292969 7.355469-15.644531 5.273438-3.347657 12.011719-3.347657 17.285156 0 5.277344 3.351562 8.144532 9.445312 7.359375 15.644531v45.816406h-32zm-96 85.816406c0-13.253906 10.742188-24 24-24h56v77.816406c0 .382813.09375.746094.101563 1.128907.007812.382812-.101563.695312-.101563 1.054687 0 17.671875 14.324219 32 32 32 17.671875 0 32-14.328125 32-32s-14.328125-32-32-32c-5.636719.035156-11.160156 1.570313-16 4.449219v-52.449219h104c13.253907 0 24 10.746094 24 24v320c0 13.253906-10.746093 24-24 24h-176c-13.257812 0-24-10.746094-24-24zm96.101563 54.976563c.558594-8.695313 7.96875-15.34375 16.675781-14.960938 8.703125.386719 15.5 7.664063 15.289063 16.375-.214844 8.710938-7.355469 15.648438-16.066407 15.609375-8.960937-.589844-15.921875-8.042968-15.898437-17.023437zm0 0" fill="url(#a)"/></svg>