<svg id="Layer_1" height="512" viewBox="0 0 48 48" width="512" xmlns="http://www.w3.org/2000/svg" xmlns:xlink="http://www.w3.org/1999/xlink" data-name="Layer 1"><linearGradient id="linear-gradient" gradientUnits="userSpaceOnUse" x1="14.765" x2="33.235" y1="36.929" y2="11.071"><stop offset="0" stop-color="#0056e0"/><stop offset=".01" stop-color="#0056e0"/><stop offset="1" stop-color="#00e5b8"/></linearGradient><path d="m24.23327 37.425 4.46256-26a2.501 2.501 0 0 0 -4.92923-.84991l-4.46243 26a2.50092 2.50092 0 0 0 4.9291.84992zm6.75417-21.85415 8.46666 8.42921-8.46666 8.42908a2.49992 2.49992 0 1 0 3.525 3.54576l10.25-10.20406a2.4946 2.4946 0 0 0 0-3.54156l-10.24996-10.20428a2.5 2.5 0 0 0 -3.525 3.54589zm-17.49992-3.54585-10.25 10.20432a2.49477 2.49477 0 0 0 0 3.54156l10.25 10.20406a2.49992 2.49992 0 1 0 3.525-3.54576l-8.46675-8.42912 8.46679-8.42921a2.5 2.5 0 0 0 -3.525-3.54589z" fill="url(#linear-gradient)" fill-rule="evenodd"/></svg>