<svg height="512" viewBox="0 0 512 512" width="512" xmlns="http://www.w3.org/2000/svg" xmlns:xlink="http://www.w3.org/1999/xlink"><linearGradient id="a" gradientUnits="userSpaceOnUse" x1="59.477" x2="538.107" y1="528.523" y2="49.893" data-name="New Gradient Swatch 1"><stop offset="0" stop-color="#003f8a"/><stop offset=".518" stop-color="#00d7df"/><stop offset="1" stop-color="#006df0"/></linearGradient><linearGradient id="b" x1="-.302" x2="478.349" xlink:href="#a" y1="468.744" y2="-9.907"/><g><path d="m356.42 265.33c-18.05-11.98-35.75-49.32-54.48-88.86-12-25.32-24.41-51.49-39.03-76.51a8.009 8.009 0 0 0 -13.82 0c-14.62 25.01-27.03 51.19-39.02 76.51-18.74 39.53-36.44 76.88-54.49 88.86a8 8 0 0 0 -2.6 10.51l50.51 92.16h-19.49a8 8 0 0 0 -8 8v24a8 8 0 0 0 8 8v88a8 8 0 0 0 8 8h128a8 8 0 0 0 8-8v-88a8 8 0 0 0 8-8v-24a8 8 0 0 0 -8-8h-18.61l49.65-92.21a8 8 0 0 0 -2.62-10.46zm-100.42-1.33a16 16 0 1 1 -16 16 16.021 16.021 0 0 1 16-16zm56 224h-112v-80h112zm8-104v8h-128v-8zm-28.78-16h-69.48l-51.44-93.86c19.16-16.82 35.53-51.38 54.22-90.82 7.53-15.88 15.22-32.09 23.48-48.07v113.76a32 32 0 1 0 16 0v-113.76c8.26 15.98 15.95 32.2 23.48 48.07 18.7 39.47 35.09 74.05 54.26 90.85z" fill="url(#a)"/><path d="m496 232h-6.942a238.956 238.956 0 0 0 -2.514-43.922c-4.137-27.726-15.276-67.746-44.862-100.941-36.082-40.485-90.454-61.68-161.682-63.061v-8.076a8 8 0 0 0 -8-8h-32a8 8 0 0 0 -8 8v8.09c-70.979 1.471-125.181 22.658-161.178 63.047-29.586 33.195-40.722 73.215-44.862 100.941a238.956 238.956 0 0 0 -2.514 43.922h-7.446a8 8 0 0 0 -8 8v32a8 8 0 0 0 8 8h32a8 8 0 0 0 8-8v-32a8 8 0 0 0 -8-8h-8.523c-.873-21.28.411-86.107 43.291-134.218 32.858-36.869 83.044-56.251 149.232-57.682v7.9a8 8 0 0 0 8 8h32a8 8 0 0 0 8-8v-7.917c66.372 1.346 116.7 20.7 149.64 57.59 42.858 47.993 44.218 113 43.374 134.327h-9.014a8 8 0 0 0 -8 8v32a8 8 0 0 0 8 8h32a8 8 0 0 0 8-8v-32a8 8 0 0 0 -8-8zm-456 32h-16v-16h16zm224-224h-16v-16h16zm224 224h-16v-16h16z" fill="url(#b)"/></g></svg>