<svg id="Capa_1" enable-background="new 0 0 512 512" height="512" viewBox="0 0 512 512" width="512" xmlns="http://www.w3.org/2000/svg" xmlns:xlink="http://www.w3.org/1999/xlink"><linearGradient id="SVGID_1_" gradientUnits="userSpaceOnUse" x1="256" x2="256" y1="271.231" y2="30"><stop offset="0" stop-color="#ffe59a"/><stop offset="1" stop-color="#ffffd5"/></linearGradient><linearGradient id="SVGID_2_" gradientUnits="userSpaceOnUse" x1="256" x2="256" y1="512" y2="0"><stop offset="0" stop-color="#fd5900"/><stop offset="1" stop-color="#ffde00"/></linearGradient><g><g><g><path d="m271 132.8-2.102-3.6c-5.398-9-20.398-9-25.796 0l-2.102 3.6-30 171.899-30 42.301 75 75 75-75-30-42.301zm-30.205-86.786c.026-.353.205-.653.205-1.014 0-8.291-6.709-15-15-15h-151c-8.291 0-15 6.709-15 15s6.709 15 15 15h68.214c-67.925 39.271-113.214 112.859-113.214 195 0 8.291 6.709 15 15 15s15-6.709 15-15c0-96.416 72.851-179.399 168.124-193.022 7.852-1.123 13.242-8.169 12.671-15.964zm127.995 13.986h68.21c8.291 0 15-6.709 15-15s-6.709-15-15-15h-151c-8.291 0-15 6.709-15 15 0 .361.179.661.205 1.014-.571 7.795 4.819 14.841 12.671 15.963 95.273 13.624 168.124 96.607 168.124 193.023 0 8.291 6.709 15 15 15s15-6.709 15-15c0-82.141-45.286-155.729-113.21-195z" fill="url(#SVGID_1_)"/></g></g><g><g><path d="m271 132.8v171.899c17.402 6.301 30 22.8 30 42.301 0 24.899-20.098 45-45 45s-45-20.101-45-45c0-19.501 12.598-36 30-42.301v-171.899l-113.701 191.1c-4.197 7.2-6.299 15-6.299 23.101 0 9.899 2.999 19.2 9.001 26.999l18 24c21.299 28.499 32.999 63.6 32.999 99 0 8.399 6.599 15 15 15h120c8.401 0 15-6.601 15-15 0-35.4 11.7-70.501 32.999-99l17.999-24.001c6.003-7.799 9.002-17.1 9.002-26.999 0-8.101-2.102-15.901-6.299-23.101zm-45-42.8h60c8.291 0 15-6.709 15-15v-60c0-8.291-6.709-15-15-15h-60c-8.291 0-15 6.709-15 15v60c0 8.291 6.709 15 15 15zm-151-90h-60c-8.291 0-15 6.709-15 15v60c0 8.291 6.709 15 15 15h60c8.291 0 15-6.709 15-15v-60c0-8.291-6.709-15-15-15zm422 0h-60c-8.291 0-15 6.709-15 15v60c0 8.291 6.709 15 15 15h60c8.291 0 15-6.709 15-15v-60c0-8.291-6.709-15-15-15zm0 240h-60c-8.291 0-15 6.709-15 15v60c0 8.291 6.709 15 15 15h60c8.291 0 15-6.709 15-15v-60c0-8.291-6.709-15-15-15zm-422 0h-60c-8.291 0-15 6.709-15 15v60c0 8.291 6.709 15 15 15h60c8.291 0 15-6.709 15-15v-60c0-8.291-6.709-15-15-15z" fill="url(#SVGID_2_)"/></g></g></g></svg>