<svg id="Capa_1" enable-background="new 0 0 512 512" height="512" viewBox="0 0 512 512" width="512" xmlns="http://www.w3.org/2000/svg" xmlns:xlink="http://www.w3.org/1999/xlink"><linearGradient id="SVGID_1_" gradientTransform="matrix(.707 -.707 .707 .707 -92.859 287.82)" gradientUnits="userSpaceOnUse" x1="33.442" x2="625.194" y1="224.181" y2="224.181"><stop offset="0" stop-color="#a93aff"/><stop offset="1" stop-color="#ff81ff"/></linearGradient><linearGradient id="SVGID_00000082358215148014321580000016074446003703300537_" gradientTransform="matrix(.707 -.707 .707 .707 -92.859 287.82)" gradientUnits="userSpaceOnUse" x1="84.901" x2="415.194" y1="224.621" y2="224.621"><stop offset="0" stop-color="#ffbef9"/><stop offset="1" stop-color="#fff1ff"/></linearGradient><g><g><g><path d="m497.133.018h-169.706c-4.029-.212-7.848 1.485-10.605 4.243l-312.367 312.366c-5.94 5.94-5.94 15.273 0 21.213l169.706 169.706c5.939 5.939 15.272 5.94 21.213 0l312.366-312.366c2.758-2.758 4.455-6.576 4.242-10.607v-169.705c.213-8.274-6.576-15.062-14.849-14.85zm-63.639 120.915c-11.667 11.667-30.759 11.667-42.426 0s-11.667-30.76 0-42.427 30.759-11.667 42.426 0 11.667 30.76 0 42.427z" fill="url(#SVGID_1_)"/></g></g><g><g><path d="m295.609 280.033-31.82 31.82-21.213-21.213 10.606-10.606c5.863-5.863 5.863-15.351 0-21.213-5.862-5.863-15.351-5.863-21.213 0l-10.606 10.607-21.213-21.213 31.82-31.82c5.862-5.863 5.862-15.351 0-21.213-5.863-5.863-15.351-5.863-21.213 0l-42.426 42.426c-5.863 5.863-5.863 15.351 0 21.213l84.853 84.853c5.863 5.863 15.351 5.863 21.213 0l42.426-42.426c5.863-5.863 5.863-15.351 0-21.213-5.864-5.865-15.352-5.865-21.214-.002zm-148.078 64.468c-5.842 5.842-15.361 5.853-21.213 0-8.669-8.669-1.729-25.594 10.617-25.594 8.266-.021 15.019-6.733 14.999-15.04-.021-8.266-6.743-14.988-15.02-14.978-12.036.021-23.336 4.713-31.81 13.186-17.546 17.546-17.546 46.093 0 63.64 17.547 17.546 46.093 17.546 63.64 0 5.842-5.842 15.361-5.852 21.213 0 8.69 8.69 1.626 25.574-10.606 25.605-8.287 0-14.999 6.712-14.999 14.999 0 8.286 6.712 14.998 14.999 14.998 12.015 0 23.326-4.682 31.82-13.176 17.546-17.546 17.546-46.093 0-63.64-17.547-17.547-46.094-17.547-63.64 0zm232.93-170.535-42.426-42.426c-17.546-17.547-46.093-17.547-63.64 0-17.546 17.546-17.546 46.093 0 63.64l42.426 42.426c17.547 17.546 46.093 17.546 63.64 0s17.547-46.093 0-63.64zm-21.213 42.427c-5.842 5.842-15.361 5.852-21.213 0l-42.426-42.427c-5.853-5.852-5.842-15.371 0-21.213s15.361-5.852 21.213 0l42.427 42.427c5.851 5.852 5.841 15.371-.001 21.213z" fill="url(#SVGID_00000082358215148014321580000016074446003703300537_)"/></g></g></g></svg>