<svg height="512" viewBox="0 0 64 64" width="512" xmlns="http://www.w3.org/2000/svg" xmlns:xlink="http://www.w3.org/1999/xlink"><linearGradient id="linear-gradient" gradientUnits="userSpaceOnUse" x1="19.23" x2="50.69" y1="50.69" y2="19.23"><stop offset="0" stop-color="#9f2fff"/><stop offset="1" stop-color="#0bb1d3"/></linearGradient><g id="Layer_21" data-name="Layer 21"><path d="m61.41 58.59-20-20.06c12-14.2 1.66-36.61-17.14-36.53a22.29 22.29 0 0 0 -22.27 22.27c-.08 18.8 22.33 29.15 36.53 17.09l20.06 20a2 2 0 0 0 2.82-2.77zm-55.41-34.32a18.3 18.3 0 0 1 18.27-18.27c24.24 1 24.23 35.54 0 36.54a18.29 18.29 0 0 1 -18.27-18.27z" fill="url(#linear-gradient)"/></g></svg>