<svg height="512" viewBox="0 0 64 64" width="512" xmlns="http://www.w3.org/2000/svg" xmlns:xlink="http://www.w3.org/1999/xlink"><linearGradient id="linear-gradient" gradientUnits="userSpaceOnUse" x1="2" x2="62.074" y1="31.943" y2="31.943"><stop offset="0" stop-color="#0fdcdd"/><stop offset="1" stop-color="#46a1e8"/></linearGradient><g id="_01_SEO_tags" data-name="01 SEO tags"><path d="m61.207 40.2-16.97 16.97a3.1679 3.1679 0 0 1 -4.7073-.4645l1.4143-1.4142c.397.5624 1.26 1.0835 1.8789.4647l16.97-16.97a1.0166 1.0166 0 0 0 0-1.4155l-29.12-29.1105c-.5506-.5635-1.9277-.2969-2.64-.2969l-2.0007-2c1.8068 0 4.6745-.534 6.0638.8921l29.111 29.1008a3.03 3.03 0 0 1 0 4.244zm-45.2226-24.2528a4 4 0 1 0 -4 4 4.0425 4.0425 0 0 0 4-4zm-4 2c-2.575 0-2.5785-4 0-4 2.5766 0 2.579 4 0 4zm17.7648 16.6293a.8831.8831 0 1 0 1.2374-1.2374l-3.403-3.403 1.9888-1.9887 3.6957 3.6957c.992.992 2.2471-.283 1.2651-1.2651l-4.331-4.331a1.2828 1.2828 0 0 0 -2.0109 0l-6.0877 6.0878a1.27 1.27 0 0 0 0 2.0109l4.4581 4.4581a.93.93 0 1 0 1.3037-1.3038l-3.8228-3.8228 2.3036-2.3036zm2.4542 1.8047c-2.3494 2.45-2.48 5.7757.0089 8.1653 2.571 2.4689 5.9674 1.8984 8.2854-.6085a5.432 5.432 0 0 0 -.0638-7.9149c-2.4906-2.4905-5.881-2.0918-8.2305.3581zm6.3966 6.1388c-1.416 1.416-3.61 2.199-5.2149.5966-1.5527-1.55-.8417-3.6838.4968-5.0881 1.439-1.51 3.7425-2.351 5.3567-.5837 1.4736 1.6131.752 3.6841-.6386 5.0752zm14.607-6.564-29.1015-29.0918a2.99 2.99 0 0 0 -2.1355-.9014h-16.97a3.0033 3.0033 0 0 0 -3 3v16.97a3.0474 3.0474 0 0 0 .8828 2.1172l29.11 29.12a3.074 3.074 0 0 0 4.2441 0l16.9701-16.97a3.03 3.03 0 0 0 0-4.244zm-1.4141 2.83-16.97 16.97a1.0279 1.0279 0 0 1 -1.416 0l-29.1193-29.1296a.973.973 0 0 1 -.2876-.6938v-16.9698a1.0013 1.0013 0 0 1 1-1h16.97a.98.98 0 0 1 .7026.2969l29.12 29.1108a1.0166 1.0166 0 0 1 .0004 1.4156zm-29.6561-9.4686c-3.2047 3.2047-9.2988-2.2151-6.9312-5.8636.4482-.6907 1.5414-1.0405 1.9573-.09.4174.954-.6946 1.9655-.3376 3.034.4927 1.4749 3.7778 3.0441 3.925.5773a4.9867 4.9867 0 0 0 -1.28-2.793c-2.0331-2.7759-.6113-6.6821 3.608-5.1249 1.7628.6506 3.4629 2.8331 3.1179 4.8527-.14.82-.8693 1.9563-1.85 1.433-.9951-.5309.1163-1.6679-.2442-2.7418-1.09-3.2482-4.3727-2.3071-2.895.3315 1.1015 1.9665 2.9778 4.3368.9298 6.3848z" fill="url(#linear-gradient)"/></g></svg>